<?xml version="1.0" encoding="utf-8"?>
<!-- Generator: Adobe Illustrator 20.0.0, SVG Export Plug-In . SVG Version: 6.00 Build 0)  -->
<svg version="1.1" id="Layer_1" xmlns="http://www.w3.org/2000/svg" xmlns:xlink="http://www.w3.org/1999/xlink" x="0px" y="0px"
	 viewBox="0 0 451 303" style="enable-background:new 0 0 451 303;" xml:space="preserve">
<style type="text/css">
	.st0{fill:#FFFFFF;stroke:#D3D3D3;stroke-miterlimit:10;}
	.st1{fill:#5E5A5A;}
	.st2{fill:#DDDDDD;}
	.st3{fill:#1C9480;}
	.st4{fill:none;stroke:#D3D3D3;stroke-miterlimit:10;}
	.st5{opacity:0.54;fill:#9F2EA1;}
	.st6{opacity:0.5;fill:#1C9480;}
	.st7{fill:#5E5A5A;stroke:#9F2EA1;stroke-width:2;stroke-miterlimit:10;}
</style>
<path class="st0" d="M438,290.1H9.8V16.8c0-1.6,1.3-2.9,2.9-2.9h422.6c1.5,0,2.7,1.2,2.7,2.7V290.1z"/>
<path class="st1" d="M110.8,290.8H9V17.3c0-1.4,1.2-2.6,2.6-2.6h99.2V290.8z"/>
<path class="st2" d="M438.4,33.1H9V16c0-1.6,1.3-2.9,2.9-2.9h423.8c1.5,0,2.7,1.2,2.7,2.7V33.1z"/>
<circle class="st3" cx="19.8" cy="23.1" r="2.6"/>
<circle class="st3" cx="29.7" cy="23.1" r="2.6"/>
<circle class="st3" cx="39.7" cy="23.1" r="2.6"/>
<rect x="131.9" y="134.2" class="st4" width="284.8" height="136.5"/>
<path class="st5" d="M132.6,201.8c0,0,28.8-40.5,45.1-19.7c13.8,17.7,31.7,102.9,71.7,60.7c17.8-18.8,72.4,6.6,97.9-35.8
	c7.5-12.5,26.3-79.3,54.6-51.6c9.9,9.7,14.1,47.7,14.1,47.7v67H132.6V201.8z"/>
<path class="st6" d="M133,217.7c0,0,18.3,22.5,44.8,6.3c19.3-11.9,56.7-61.9,92.9-25.4c15.4,15.6,26.9,61,51,48.8
	c18.9-9.6,41-64.2,70.6-46.7c6.9,4,11.4,8.5,23.7,19.1v49.9H133V217"/>
<g>
	<path class="st1" d="M132.8,79.3v-2.4c7-5.3,11.4-8.3,11.4-11.7c0-2.2-1.7-4-4.4-4c-2.1,0-4.1,1-6,2.5l-0.9-2.2
		c2-1.6,4.4-2.7,7.2-2.7c4.1,0,6.9,2.5,6.9,6.1c0,4.6-4.7,7.6-10.5,11.9c0.1,0,11.4,0,11.4,0v2.5H132.8z"/>
	<path class="st1" d="M150,61.9l0.1-2.6h16.7v2.1l-12,25.7h-2.7L164,61.9H150z"/>
	<path class="st1" d="M184.7,79c0,5-4.1,8.2-9.2,8.2c-2.5,0-5.2-0.6-6.8-1.7l0.7-2.4c1.4,0.9,3.7,1.7,6.2,1.7c3.7,0,6.4-2.1,6.4-5.5
		c0-3.2-2.5-5-5.9-5.1c-1.2,0-2.5,0.1-3.9,0.4v-2.2c5.1-1.2,8.8-3.3,8.8-6.7c0-2.8-2-4.4-5.1-4.4c-2.2,0-4.4,1.1-6.3,2.5l-1-2.2
		c1.9-1.5,4.6-2.8,7.5-2.8c4.7,0,7.6,2.7,7.6,6.5c0,3.3-2.7,5.8-5.8,6.9C182.2,72.6,184.7,75.6,184.7,79z"/>
</g>
<g>
	<path class="st1" d="M252.4,70.1c5.3,0,8.8,3.3,8.8,8c0,5.3-4.1,9-9.2,9c-2.4,0-5.1-0.8-6.8-1.7l0.5-2.6c1.7,0.9,4,1.8,6.4,1.8
		c3.7,0,6.5-2.5,6.5-6.4c0-3.2-2.4-5.9-6.4-5.9c-2.5,0-3.5,0.3-5,0.8l-0.9-0.8l1.7-13h12.6l0.1,2.5h-10.5l-1.2,8.7
		C249.8,70.3,250.8,70.1,252.4,70.1z"/>
	<path class="st1" d="M281,72.5c0,3.9-2.8,7.4-8.5,7.4c-5.8,0-8.5-3.3-8.5-7s3.3-6,5.6-6.8c-2.8-1.3-5.2-2.9-5.2-6.2
		c0-4.3,3.3-7.3,8.2-7.3c4.9,0,7.9,3,7.9,7c0,3.4-2.8,5.6-5,6.6C278.5,67.5,281,69.2,281,72.5z M266.7,72.5c0,3,2.2,5,5.9,5
		c3.9,0,5.7-1.9,5.7-4.7c0-3.2-3.3-4.5-6.6-5.9C269,67.9,266.7,69.8,266.7,72.5z M277.9,59.9c0-3-2.2-5-5.3-5
		c-3.5,0-5.5,2.2-5.5,4.7c0,3,3.2,4.2,6.5,5.6C276,64.2,277.9,62.5,277.9,59.9z"/>
	<path class="st1" d="M299.5,52.3l0.8,2.5c-7.1,1.7-11.4,6.1-12.7,11.4l0.1,0c1.9-1.7,4.2-3,7.1-3c4,0,7.7,2.8,7.7,7.9
		c0,5-3.4,8.7-8.7,8.7c-5.8,0-9-4.8-9-10.6C284.8,62.2,289.5,54.6,299.5,52.3z M293.9,77.5c3.6,0,5.9-2.6,5.9-6.2
		c0-3.6-2.4-5.7-5.5-5.7c-2.6,0-4.9,1.1-6.6,2.8c-0.1,0.4-0.1,0.9-0.1,1.4C287.5,73.9,289.8,77.5,293.9,77.5z"/>
</g>
<line class="st7" x1="132" y1="99" x2="183" y2="99"/>
<line class="st7" x1="132" y1="110" x2="169" y2="110"/>
<line class="st7" x1="245" y1="99" x2="295" y2="99"/>
<line class="st7" x1="245" y1="110" x2="283" y2="110"/>
<g>
	<path class="st1" d="M371.3,62.1l-4.9,1.9l-0.1-2.4l7.6-2.8v20.5h-2.6V62.1z"/>
	<path class="st1" d="M380.2,79.3v-2.4c7-5.3,11.4-8.3,11.4-11.7c0-2.2-1.7-4-4.4-4c-2.1,0-4.1,1-6,2.5l-0.9-2.2
		c2-1.6,4.4-2.7,7.2-2.7c4.1,0,6.9,2.5,6.9,6.1c0,4.6-4.7,7.6-10.5,11.9c0.1,0,11.4,0,11.4,0v2.5H380.2z"/>
	<path class="st1" d="M413.7,52.3l0.8,2.5c-7.1,1.7-11.4,6.1-12.7,11.4l0.1,0c1.9-1.7,4.2-3,7.1-3c4,0,7.7,2.8,7.7,7.9
		c0,5-3.4,8.7-8.7,8.7c-5.8,0-9-4.8-9-10.6C398.9,62.2,403.6,54.6,413.7,52.3z M408,77.5c3.6,0,5.9-2.6,5.9-6.2
		c0-3.6-2.4-5.7-5.5-5.7c-2.6,0-4.9,1.1-6.6,2.8c-0.1,0.4-0.1,0.9-0.1,1.4C401.7,73.9,404,77.5,408,77.5z"/>
</g>
<line class="st7" x1="363" y1="99" x2="413" y2="99"/>
<line class="st7" x1="363" y1="110" x2="400" y2="110"/>
</svg>
