<?xml version="1.0" encoding="utf-8"?>
<!-- Generator: Adobe Illustrator 20.0.0, SVG Export Plug-In . SVG Version: 6.00 Build 0)  -->
<svg version="1.1" id="Layer_1" xmlns="http://www.w3.org/2000/svg" xmlns:xlink="http://www.w3.org/1999/xlink" x="0px" y="0px"
	 viewBox="0 0 100 97" style="enable-background:new 0 0 100 97;" xml:space="preserve">
<style type="text/css">
	.st0{opacity:0.6;fill:#2D2D2D;}
</style>
<path class="st0" d="M49.6,5.5C25.7,5.5,6.4,24.9,6.4,48.8S25.7,92,49.6,92s43.2-19.4,43.2-43.2S73.5,5.5,49.6,5.5z M76.8,50.2
	c-3.9,3.2-7.8,0-7.8,0l-13-12v38c0,0,0.2,5.5-6.1,5.5c-6.4,0-5.9-5.5-5.9-5.5l0.1-38.4L30.5,49.8c0,0-3.6,2.5-6.8-0.9
	c-3-3.2-0.5-6.8-0.5-6.8l21.4-21.8c7.2-5.7,11.5,0,11.5,0l21.9,22.1C77.9,42.4,80.7,46.9,76.8,50.2z"/>
</svg>
