<?xml version="1.0" encoding="utf-8"?>
<!-- Generator: Adobe Illustrator 20.0.0, SVG Export Plug-In . SVG Version: 6.00 Build 0)  -->
<svg version="1.1" id="Layer_9" xmlns="http://www.w3.org/2000/svg" xmlns:xlink="http://www.w3.org/1999/xlink" x="0px" y="0px"
	 viewBox="0 0 450.7 295.3" style="enable-background:new 0 0 450.7 295.3;" xml:space="preserve">
<style type="text/css">
	.st0{fill:#F4F4F4;}
	.st1{fill:#1C9480;}
	.st2{fill:#1E88C8;}
</style>
<path class="st0" d="M424.3,274H25c-1.1,0-2-0.9-2-2V20c0-1.1,0.9-2,2-2h399.3c1.1,0,2,0.9,2,2v252C426.3,273.1,425.4,274,424.3,274
	z"/>
<g>
	<path class="st1" d="M69.2,75.1l0.5-2.1c0.6-1.1,1.6-3.7,3.1-7.7c1.5-4,2.2-6.2,2.2-6.7c0-0.5,0.3-0.8,0.9-0.8
		c0.2-0.2,0.5-0.3,0.9-0.3l0.9,0.9c0.4,0.4,0.6,0.9,0.6,1.5c0,0.6,0,1-0.1,1.2c0,0.2-0.1,0.4-0.1,0.6c0,0.2-0.1,0.4-0.3,0.7
		c-0.1,0.3-0.3,0.6-0.4,0.9c-0.1,0.3-0.3,0.7-0.7,1.4c-0.3,0.7-0.6,1.3-0.8,1.7c-0.2,0.5-0.4,1-0.7,1.5c-0.3,0.5-0.5,1-0.6,1.3
		c-0.1,0.3-0.2,0.5-0.2,0.6c0,0.1,0,0.2-0.1,0.4c-0.1,0.2-0.1,0.4-0.2,0.7c-0.1,0.3-0.3,0.6-0.4,1c-1.5,3.2-2.2,5-2.2,5.4
		c0,0.3-0.1,0.6-0.3,0.8c-0.2,0-0.3,0.1-0.3,0.4v0.2c0,0.4-0.3,1.3-0.9,2.9c-1.6,5.3-2.4,8.5-2.4,9.5c0,1,0,1.6-0.1,1.9
		c-0.1,0.3-0.2,0.5-0.5,0.6c-1.1,0.3-1.8-0.1-2.2-1.3c-0.4-1.2-0.4-2.8,0.1-4.8c0.4-1.1,0.6-1.8,0.6-2.3c0.1-0.7,0.5-2,1.1-3.8
		c0.6-1.8,1.1-2.9,1.2-3.3c0.4,0,0.6-0.4,0.6-1.2C68.6,76,68.8,75.4,69.2,75.1z"/>
	<path class="st1" d="M76.9,80.3c2.5-4.1,5.3-6.5,8.6-7.3c0.8-0.2,1.3-0.3,1.7-0.3c0.3,0,0.8,0.3,1.3,0.9c0.8,0.4,1.5,0.8,1.8,1.3
		c0.4,0.5,0.6,1.3,0.7,2.3c0.3,2.9-0.7,5.9-2.9,9c-0.8,1.2-1.6,2.1-2.4,2.8c-0.7,0.6-1.7,1.3-2.9,2.1c-1.4,1-2.9,1.5-4.3,1.6
		c-0.6,0-1.3-0.3-2.1-1c-1.4-1.4-2-2.8-1.8-4.1l0.1-1.3c-0.2-0.2-0.2-0.3-0.1-0.4c0.1-0.1,0.2-0.2,0.2-0.2c0.2,0,0.3-0.2,0.2-0.5
		c-0.1-0.3,0.1-1,0.4-2C75.9,82.1,76.3,81.2,76.9,80.3z M87.5,80.7c0.2-0.6,0.3-1.4,0.3-2.4c0-1-0.2-1.6-0.5-1.7
		c-1-0.6-2.2-0.3-3.6,0.8c-1.8,1.6-3.6,4.4-5.4,8.4c-0.8,1.8-0.7,3.1,0.2,3.9c1.1,0.9,2.9,0,5.4-2.8C85.4,85.1,86.7,83,87.5,80.7z"
		/>
	<path class="st1" d="M105.3,75.5c1.8-1.2,3.1-1.9,4-1.9c0.9,0,1.5,0.3,1.9,1c0.7,1.2,0.6,2.2-0.1,3.1c-0.3,0.4-0.8,0.7-1.3,0.9
		c-0.5,0.2-0.9,0.3-1.1,0.3c-0.2,0-0.5-0.2-0.8-0.5s-0.5-0.6-0.6-0.8c0-0.2-0.5,0.1-1.5,1c-1,0.8-1.7,1.4-2,1.7
		c-0.8,1-2.3,3.7-4.5,7.9c-0.2,0.4-0.4,1-0.7,1.6c-0.4,1.1-0.7,1.7-0.9,1.8c-0.2,0.1-0.6,0-1-0.1c-1.9-0.6-1.9-2.1-0.2-4.6
		c0.3-0.5,0.8-1.8,1.5-4c0.7-2.1,1.2-3.3,1.3-3.6c0.1-0.6,0-1.1-0.1-1.3c-0.2-0.3-0.5-0.5-0.9-0.5c-0.4,0-0.7,0-0.8-0.1
		c-0.3,0-0.4-0.4-0.4-1.2c0.1-0.7,0.5-1.3,1.3-1.8c1.3-0.7,2.4-0.7,3.1-0.1c0.5,0.3,0.7,1.5,0.7,3.6C104,76.6,105,75.7,105.3,75.5z"
		/>
	<path class="st1" d="M118.1,82.4c-0.9,2.3-1.3,4.1-1.3,5.2c0,1.1,0.2,2,0.5,2.4c0.3,0.5,0.9,0.7,1.8,0.7c0.9,0,1.6-0.1,2.1-0.3
		c0.5-0.2,1.3-0.7,2.4-1.5l1.9-1.1c0.1,0,0.3-0.1,0.4-0.3c0.3-0.1,0.7-0.1,1.2,0.2c0.4,0.3,0.7,0.6,0.7,1c-0.1,0.3-0.4,0.8-1,1.4
		c-0.6,0.7-1,1-1.3,1c-0.5,0.3-0.8,0.4-0.8,0.4h0.1c-0.3,0.4-0.7,0.7-1,0.7h-0.4c-0.1,0.3-0.6,0.6-1.5,0.9c-0.8,0.3-1.6,0.4-2.3,0.4
		c-1.6,0-2.9-0.6-4-1.8c-1-1.2-1.5-2.8-1.5-4.6c0.1-2.7,1-5.6,2.7-8.7c2.3-4.4,5-6.5,7.8-6.5c0.7,0,1.5,0.2,2.4,0.6
		c1.1,0.5,1.9,1.4,2.3,2.6c0.1,1.1,0.1,2-0.1,2.8c-0.9,2.7-2.4,4.6-4.5,5.8c-0.6,0.4-1.3,0.5-2.2,0.5c-1.7,0-3-0.5-3.7-1.6
		L118.1,82.4z M120.4,79.8c0,0.5,0.1,0.9,0.4,1.3c0.3,0.3,0.6,0.5,1,0.5c1.1,0,2.1-0.5,2.9-1.6c0.8-1.1,1.3-2.1,1.5-3.1
		c0.2-1,0-1.6-0.4-1.9c-0.9-0.4-2.1,0.1-3.7,1.5c-1,0.9-1.7,1.7-2.2,2.4l-0.7,1.2c0.3-0.1,0.6-0.2,0.9-0.2
		C120.2,79.7,120.4,79.8,120.4,79.8z"/>
	<path class="st1" d="M157.5,90.3c-0.7,0-1.4-0.2-2-0.6c-0.6-0.4-1-1-1-1.8v-3.4c0-1.7-0.1-2.7-0.4-2.9c-0.6-0.3-1.5,0.3-2.8,1.8
		c-1.3,1.5-2.5,3.1-3.5,4.7c-1,1.6-1.6,2.5-1.7,2.6c-0.1,0.1-0.4,0.1-0.8-0.2c-1.4-0.4-1.9-1.3-1.6-2.6c0.8-2.5,1.4-5.1,2-7.8
		c-0.3-0.5-0.9-0.4-1.8,0.2c-0.9,0.6-2.1,2.1-3.5,4.5c-1.8,2.8-3,4.4-3.7,5c-0.5,0.8-0.9,1.2-1,1.3c-0.2,0.1-0.5,0-1-0.3
		c-1.1-0.6-1.6-1.6-1.6-2.9c0-1.3,0.5-3.9,1.6-7.6c0.9-1.6,1.3-2.7,1.3-3.2c0.4-2.4,0.8-3.7,1-4c0.3-0.3,0.6-0.4,1.1-0.3
		c0.5,0.1,0.8,0.3,1,0.8c0.7,0.8,0.7,2.2,0,4.2c-0.8,1.8-1.5,3.8-2,6c0.5-0.5,1.1-1.3,1.8-2.4c0.8-1,1.8-2.2,3-3.6
		c1.3-1.4,2.6-2.1,4-2.1c1.7,0.3,2.7,1.7,2.9,4.2l-0.3,2.9c0.8-1.2,2-2.4,3.4-3.7c1.5-1.2,2.8-1.2,3.8-0.2c1.7,1,2.4,3.1,2.1,6.3
		c-0.1,1.2-0.1,2.4,0.3,3.5c0.3,0.2,0.3,0.5,0.1,0.9S157.7,90.3,157.5,90.3z"/>
	<path class="st1" d="M176.2,90.6l-0.3-1.1c-0.3-0.1-0.4-0.3-0.4-0.5c0-0.2,0-0.4,0.2-0.9c0.5-0.8,1.3-2.8,2.5-5.7
		c1.2-3,1.9-4.8,2-5.3c0-0.4,0.2-0.7,0.6-1.1c0.6-0.5,1.2-0.2,1.8,0.9c0.3,0.5,0.4,1,0.4,1.4c0,0.5-0.4,1.8-1.2,3.9
		c-0.9,2.2-1.8,4.2-2.7,5.9c-0.9,1.7-1.4,2.6-1.7,2.6c-0.1,0-0.2,0.1-0.3,0.1L176.2,90.6z M183.3,64.2c0.5,0,1,0.1,1.3,0.3
		c0.3,0.6,0.7,1.3,1.4,2.1c0.7,0.8,1,1.4,1,1.6c0,0.8-0.1,1.4-0.2,1.5c-0.2,0.2-0.7,0.3-1.5,0.3c-0.8,0-1.6-0.4-2.3-1.1
		c-0.7-0.8-1.1-1.5-1.1-2.3c0-0.2,0.2-0.6,0.7-1.3S183.3,64.2,183.3,64.2z"/>
	<path class="st1" d="M185.1,93.9l0.4-2c0.2-1,0.9-3.3,2.1-7c1.2-3.7,2.3-6.7,3.2-9c0.8-1.8,1.2-3.2,1.2-4.3c0-0.2,0.2-0.5,0.6-0.9
		c0.4-0.4,1-0.4,1.8,0.2c0.1,0.1,0.3,0.3,0.5,0.6c0.2,0.3,0.3,0.6,0.4,0.8c0.1,0.2,0.1,0.8,0,1.6c0,0.8-0.3,1.7-0.9,2.7
		c3-1.2,5.3-1.4,6.9-0.5c1.6,0.9,2.4,2.5,2.4,4.7c0,0.7-0.2,1.5-0.6,2.4c-0.4,0.9-0.8,1.6-1.1,1.9c-0.2,0-0.5,0.4-0.9,1.2
		c-0.5,0.6-1.3,1.2-2.4,1.8c-1.1,0.6-1.9,0.9-2.3,0.7c-0.2,0-0.3,0.1-0.3,0.3c0,0.3-0.7,0.6-2.1,0.9c-1.4,0.3-2.4,0.5-3.1,0.5
		c-0.7,0-1.2-0.1-1.5-0.4c-0.3,0.3-0.4,0.5-0.4,0.9c0,0.3-0.2,1-0.6,2.1c-0.4,1.1-0.7,1.6-0.9,1.6c-0.2,0.2-0.2,0.4,0,0.6
		c0,0.8-0.1,1.3-0.3,1.7c0,1-0.2,1.8-0.5,2.6c0,0.4-0.1,0.9-0.2,1.3c-0.1,0.4-0.3,0.6-0.4,0.6c-0.2,0.1-0.3,0.6-0.4,1.5
		c0,1-0.2,1.7-0.5,2.2c-0.3,0.5-0.7,0.8-1.2,0.8c0,0-0.1,0-0.2,0c-0.1,0-0.2,0-0.3,0c-0.8-0.2-1-1.3-0.6-3.2
		c0.4-1.5,0.6-2.6,0.6-3.2l0.3-1.8c0.4-0.7,0.6-1.5,0.6-2.6C184.5,94.6,184.7,94.2,185.1,93.9z M199.7,79c-0.5-0.7-1.5-0.8-2.9-0.3
		c-2.5,0.8-4.3,2.5-5.4,5c-1.1,2.3-1.3,3.6-0.7,3.9c0.6,0,1.7-0.3,3.3-0.9c1.7-0.6,2.9-1.2,3.8-2c0.9-0.7,1.5-1.6,1.9-2.6
		C200.3,81.1,200.2,80.1,199.7,79z"/>
	<path class="st1" d="M223.3,72.8c0.4,0.7,0.5,1.3,0.5,1.9c0,0.6-0.3,1.4-0.9,2.4c-0.1,0.4-0.3,0.8-0.5,1.2
		c-0.2,0.4-0.3,0.6-0.3,0.7c-0.3,0.6-0.7,0.7-1.2,0.4c-0.5-0.3-0.9-0.8-1.2-1.5c-0.3-1-0.2-1.8,0.3-2.5c0.7-0.7,0.7-1,0-1
		c-0.4,0-1.3,0.3-2.5,1c-1.2,0.7-2.2,1.4-2.9,2.1c-0.7,0.7-1.1,1.2-1.3,1.5c-0.1,0.3-0.2,0.8-0.2,1.3c0,0.6,0.1,1.3,0.4,2
		c0.2,0.8,0.5,1.3,0.7,1.5c0.4,0.8,0.8,1.6,1.3,2.3c1.1,2.3,1.3,4,0.9,5.1c-0.5,1-1.8,1.6-4,1.8c-1.4,0.1-2.7,0-3.8-0.5
		c-1.1-0.5-1.8-1.3-2.1-2.3c-0.4-0.8-0.4-1.4,0-1.6c0.2,0,0.5,0.1,0.9,0.3c0.4,0.2,0.7,0.4,0.9,0.4c0.8,0.7,1.9,0.9,3.1,0.7
		c1.3-0.2,2-0.7,2.1-1.4c0-0.2-0.2-0.8-0.5-1.9c-1.9-2.7-2.9-5.2-2.9-7.5c0-1.6,0.8-2.9,2.3-4c1.9-2.1,4.2-3.4,6.9-4.2
		c1.2,0,2.2,0.2,3,0.6C222.5,71.7,222.9,72.1,223.3,72.8z"/>
	<path class="st1" d="M236.9,88.4v-1c-0.2,0.6-0.6,1-1.2,1.5c-0.8,0.8-1.7,1.5-2.5,1.9c-1.3,0.8-2.3,1.2-3,1.3
		c-0.7,0-1.5-0.4-2.2-1.2c-1.2-1-1.6-2.3-1.3-4c0.1-2.6,0.9-5.5,2.4-8.7c1.2-2.3,2-3.9,2.5-4.6c1.2-0.4,1.9,0,2,1.1
		c0.4,0.7-0.1,2.4-1.5,5.1c-2.2,5.2-2.7,8-1.5,8.5c0.4,0.3,1,0.2,1.7-0.1c0.8-0.3,1.7-1.1,2.8-2.4c1.1-1.3,2-2.8,2.8-4.5
		c0.7-1.7,1.1-3.2,1.2-4.6c-0.2-0.9,0.1-1.6,0.9-2.1c0.1-0.2,0.3-0.4,0.6-0.5c0.2-0.1,0.4-0.1,0.5,0L242,74c0.1,0,0.2,0.1,0.3,0.3
		c0.1,0.2,0.2,0.4,0.3,0.4c0.8,0.7,0.4,3-1.2,6.8c-1.2,2.5-1.8,4.4-1.8,5.7c0,1.4,0.5,2.5,1.6,3.4c0.5,0.4,0.8,1,0.7,2
		c-0.1,0.5-0.5,0.9-1.2,1s-1.3,0.1-1.8-0.3c-0.9-0.8-1.5-2.1-2-3.7C236.9,89.5,236.9,89,236.9,88.4z"/>
	<path class="st1" d="M271.7,90.3c-0.7,0-1.4-0.2-2-0.6c-0.6-0.4-1-1-1-1.8v-3.4c0-1.7-0.1-2.7-0.4-2.9c-0.5-0.3-1.5,0.3-2.8,1.8
		c-1.3,1.5-2.5,3.1-3.5,4.7c-1,1.6-1.6,2.5-1.7,2.6c-0.1,0.1-0.4,0.1-0.8-0.2c-1.4-0.4-1.9-1.3-1.6-2.6c0.8-2.5,1.4-5.1,2-7.8
		c-0.3-0.5-0.9-0.4-1.8,0.2c-0.9,0.6-2.1,2.1-3.5,4.5c-1.8,2.8-3,4.4-3.7,5c-0.5,0.8-0.9,1.2-1,1.3c-0.2,0.1-0.5,0-1-0.3
		c-1.1-0.6-1.6-1.6-1.6-2.9c0-1.3,0.5-3.9,1.6-7.6c0.9-1.6,1.3-2.7,1.3-3.2c0.4-2.4,0.8-3.7,1-4c0.3-0.3,0.6-0.4,1.1-0.3
		c0.5,0.1,0.8,0.3,1,0.8c0.7,0.8,0.7,2.2,0,4.2c-0.8,1.8-1.5,3.8-2,6c0.5-0.5,1.1-1.3,1.8-2.4c0.8-1,1.8-2.2,3-3.6
		c1.3-1.4,2.6-2.1,4-2.1c1.7,0.3,2.7,1.7,2.9,4.2l-0.3,2.9c0.8-1.2,2-2.4,3.4-3.7c1.5-1.2,2.8-1.2,3.8-0.2c1.7,1,2.4,3.1,2.1,6.3
		c-0.1,1.2-0.1,2.4,0.3,3.5c0.3,0.2,0.3,0.5,0.1,0.9C272.2,90.1,272,90.3,271.7,90.3z"/>
	<path class="st1" d="M304.6,94.6c-0.9,0.2-1.5-0.2-1.9-1.2c-0.7-1.9-0.9-3.7-0.7-5.4l0.1-1.2l-2.1,1.7c-2.3,2.1-4.5,3.1-6.7,3.1
		c-3.1-0.5-4-3-2.6-7.4c0.8-2.3,1.8-4.2,3.2-5.7c2.4-3.6,5.1-4.5,8-2.8c0.9,0.4,1.5,0.6,1.8,0.6c0.3-0.1,0.5-0.7,0.8-1.9
		c1-4.2,2.7-9,5.2-14.2c0.6-1.3,1.2-1.9,1.9-1.8c0.8,0,1.4,0.6,1.9,1.7c0.3,0.6,0.2,1.2-0.2,1.8c-1,1.6-2.1,4.3-3.5,8.1
		c-1.4,3.7-2.4,6.7-3,8.8c-0.6,2.1-1,4.7-1.3,7.7c-0.3,3-0.3,5-0.1,5.9c0.2,0.9,0.3,1.5,0.2,1.8S305.3,94.5,304.6,94.6z M295.3,88.5
		c1.1-0.3,2.6-1.2,4.6-2.9c0.1-0.1,0.3-0.2,0.7-0.5c0.3-0.3,0.5-0.5,0.7-0.6c0.1-0.1,0.3-0.4,0.5-0.6c0.2-0.3,0.4-0.5,0.5-0.7
		c1-1.9,0.8-3.5-0.5-4.7c-0.4-0.4-1-0.5-1.8-0.4s-1.6,0.5-2.3,1.2c-2.2,2-3.7,4.7-4.4,8.2C293,88.5,293.8,88.8,295.3,88.5z"/>
	<path class="st1" d="M329.9,76.5c0,0.4,0.2,0.6,0.5,0.6c0.4,0-0.1,0.6-1.7,1.7c-0.9,0.6-1.4,0.9-1.4,1.1c0,0.1,0,0.3,0.1,0.6
		c0.8,1.8,0,4-2.4,6.6c-2.4,2.6-4.8,4.1-7.3,4.4c-0.8,0.1-1.3,0.2-1.5,0.2c-0.2,0-0.5-0.3-0.9-0.7c-0.8-0.4-1.4-1-1.9-1.7
		c-0.5-0.8-0.7-1.4-0.6-2c0.3-2.6,1.2-5.5,2.8-8.4c1.6-3,3.3-4.8,4.9-5.3c1.8-0.7,2.9-0.5,3.5,0.6c0.6,1.1,0.4,1.8-0.4,2.1
		c-0.4,0-0.6,0.2-0.6,0.5c0.3,0.1,1,0.1,2.3-0.1c1.2-0.2,2-0.4,2.3-0.7c0.3-0.1,0.7-0.1,1.3,0C329.6,76,329.9,76.2,329.9,76.5z
		 M323.7,79.9c-0.5,0-1.2-0.4-2.1-1.1l-0.9-1.1l-0.9,0.9c-0.9,0.9-1.8,2.3-2.7,4.3c-0.9,2-1.4,3.4-1.5,4.2c-0.1,0.8,0,1.3,0.2,1.5
		c0.2,0.2,0.5,0.3,0.8,0.3c0.3,0,0.9-0.2,1.8-0.6c0.5-0.5,0.9-0.8,1.2-0.9c0.6,0,1.6-1,3.1-2.9c1.6-1.8,2.3-3.2,2-4.1
		c0-0.1-0.1-0.2-0.4-0.3C324,80.1,323.8,80,323.7,79.9z"/>
	<path class="st1" d="M343.2,59.5c0.2,0.6,0.3,1,0.3,1.3s-0.1,0.6-0.2,0.9c-0.2,0.2-0.5,0.9-1.1,2c-0.5,1.8-0.9,3-1.2,3.7
		c-0.3,0.7-0.5,1.2-0.6,1.5c-0.1,0.3-0.4,1-0.8,2.1c-0.4,1.1-0.9,2.6-1.5,4.5s-1,3-1.3,3.5c-0.3,0.5-0.6,1.6-0.9,3.5
		c-0.6,1.6-0.8,2.6-0.8,2.9c-0.1,0.4-0.3,1.1-0.4,2.2c-0.2,1.1-0.4,1.8-0.6,2.3c-0.1,1.2-0.7,1.5-1.8,0.9c-0.7-0.4-1.1-1-1.1-1.6
		c0-0.7,0.2-1.9,0.7-3.5c0.2-1.8,0.6-3.1,1-3.9c1.5-5.1,2.3-7.9,2.4-8.4c0.3-1,0.8-2.2,1.4-3.8c0.6-1.6,1-2.6,1.2-3.2
		c0.2-0.6,0.5-1.6,0.9-3.1c0.4-1.5,0.8-2.5,1.1-3c0.5-0.8,0.9-1.4,1.1-1.8c0-0.2,0.3-0.3,0.7-0.3c0.4,0,0.7,0.2,1,0.4
		C342.8,58.7,343,59,343.2,59.5z"/>
	<path class="st1" d="M351.9,72.3c0.3,0,0.7,0.2,1.3,0.7c0.9,0.3,1.5,0.6,2,1.1c0.5,0.5,0.8,1.2,1.1,2.1c0.7,2.8,0.2,5.9-1.6,9.4
		c-0.7,1.3-1.3,2.3-1.9,3.1c-0.6,0.7-1.5,1.6-2.8,2.7c-1.2,1.1-2.5,1.7-3.9,2c-0.6,0.1-1.4-0.2-2.3-0.7c-1.6-1.3-2.4-2.5-2.3-3.8
		c0-0.2,0.1-0.4,0.1-0.6c0-0.2,0-0.4-0.1-0.7c-0.2-0.2-0.3-0.3-0.2-0.4c0.1-0.1,0.1-0.2,0.1-0.2c0.3-0.1,0.3-0.3,0.1-0.6
		c-0.1-0.3,0-1,0.2-2c0.2-1,0.5-2,0.9-2.8c1-2.3,2.1-4.1,3.2-5.4c1.4-1.6,2.8-2.6,4.3-3.2C351,72.5,351.6,72.3,351.9,72.3z
		 M350.5,86.7c2.2-3.3,3.1-6.3,2.7-9c-0.1-1-0.4-1.5-0.7-1.6c-1.1-0.4-2.2,0-3.5,1.3c-1.5,1.8-2.9,4.8-4.2,9c-0.6,2-0.3,3.2,0.7,3.8
		c1,0.5,2.4-0.2,4.1-2.3C349.9,87.5,350.2,87.1,350.5,86.7z"/>
	<path class="st1" d="M376.6,77.8c-0.4,0-0.8,0.1-1.2,0.3c-0.5,0.2-0.8,0.4-1,0.5c-0.2,0.1-0.5,0.3-0.8,0.6
		c-0.3,0.2-0.5,0.4-0.6,0.4c-2,1.3-3.5,2.5-4.6,3.6c-2,2.1-3.1,3.6-3.4,4.5c-1.2,2.8-1.9,4.3-2.2,4.6c-0.2,0.5-0.8,0.4-1.7-0.1
		c-0.5,0-0.9-0.3-1-0.9c-0.1-0.4,0.1-1.5,0.6-3.3c0.6-2.7,1.1-4.7,1.4-5.8c0.2-0.4,0.4-1.1,0.7-2c0.3-1,0.6-1.7,0.8-2.2
		c0.4-1.6,1.1-3.3,2.1-4.9c0.3-0.5,0.6-0.7,0.9-0.7c0.5-0.5,1-0.4,1.7,0.2c0.4,0.4,0.6,1,0.5,1.6c-0.1,0.7-0.5,1.6-1.3,2.8
		c-0.2,0.5-0.5,1.2-0.8,2c-0.7,1.5-1,2.6-1.2,3.3c0.5-0.6,1.3-1.5,2.4-2.7c1.1-1.2,2.5-2.2,4.1-3.2c1.5-1.1,3-1.5,4.2-1.3
		c1-0.1,1.6,0.9,1.8,2.9C377.4,77.8,376.9,77.8,376.6,77.8z"/>
	<path class="st1" d="M69.2,141.1l0.5-2.1c0.6-1.1,1.6-3.7,3.1-7.7c1.5-4,2.2-6.2,2.2-6.7c0-0.5,0.3-0.8,0.9-0.8
		c0.2-0.2,0.5-0.3,0.9-0.3l0.9,0.9c0.4,0.4,0.6,0.9,0.6,1.5c0,0.6,0,1-0.1,1.2c0,0.2-0.1,0.4-0.1,0.6c0,0.2-0.1,0.4-0.3,0.7
		c-0.1,0.3-0.3,0.6-0.4,0.9c-0.1,0.3-0.3,0.7-0.7,1.4c-0.3,0.7-0.6,1.3-0.8,1.7c-0.2,0.5-0.4,1-0.7,1.5c-0.3,0.5-0.5,1-0.6,1.3
		c-0.1,0.3-0.2,0.5-0.2,0.6c0,0.1,0,0.2-0.1,0.4c-0.1,0.2-0.1,0.4-0.2,0.7c-0.1,0.3-0.3,0.6-0.4,1c-1.5,3.2-2.2,5-2.2,5.4
		c0,0.3-0.1,0.6-0.3,0.8c-0.2,0-0.3,0.1-0.3,0.4v0.2c0,0.4-0.3,1.3-0.9,2.9c-1.6,5.3-2.4,8.5-2.4,9.5c0,1,0,1.6-0.1,1.9
		c-0.1,0.3-0.2,0.5-0.5,0.6c-1.1,0.3-1.8-0.1-2.2-1.3c-0.4-1.2-0.4-2.8,0.1-4.8c0.4-1.1,0.6-1.8,0.6-2.3c0.1-0.7,0.5-2,1.1-3.8
		c0.6-1.8,1.1-2.9,1.2-3.3c0.4,0,0.6-0.4,0.6-1.2C68.6,142,68.8,141.4,69.2,141.1z"/>
	<path class="st1" d="M76.9,146.3c2.5-4.1,5.3-6.5,8.6-7.3c0.8-0.2,1.3-0.3,1.7-0.3c0.3,0,0.8,0.3,1.3,0.9c0.8,0.4,1.5,0.8,1.8,1.3
		c0.4,0.5,0.6,1.3,0.7,2.3c0.3,2.9-0.7,5.9-2.9,9c-0.8,1.2-1.6,2.1-2.4,2.8c-0.7,0.6-1.7,1.3-2.9,2.1c-1.4,1-2.9,1.5-4.3,1.6
		c-0.6,0-1.3-0.3-2.1-1c-1.4-1.4-2-2.8-1.8-4.1l0.1-1.3c-0.2-0.2-0.2-0.3-0.1-0.4c0.1-0.1,0.2-0.2,0.2-0.2c0.2,0,0.3-0.2,0.2-0.5
		c-0.1-0.3,0.1-1,0.4-2C75.9,148.1,76.3,147.2,76.9,146.3z M87.5,146.7c0.2-0.6,0.3-1.4,0.3-2.4c0-1-0.2-1.6-0.5-1.7
		c-1-0.6-2.2-0.3-3.6,0.8c-1.8,1.6-3.6,4.4-5.4,8.4c-0.8,1.8-0.7,3.1,0.2,3.9c1.1,0.9,2.9,0,5.4-2.8C85.4,151.1,86.7,149,87.5,146.7
		z"/>
	<path class="st1" d="M105.3,141.5c1.8-1.2,3.1-1.9,4-1.9c0.9,0,1.5,0.3,1.9,1c0.7,1.2,0.6,2.2-0.1,3.1c-0.3,0.4-0.8,0.7-1.3,0.9
		c-0.5,0.2-0.9,0.3-1.1,0.3c-0.2,0-0.5-0.2-0.8-0.5s-0.5-0.6-0.6-0.8c0-0.2-0.5,0.1-1.5,1c-1,0.8-1.7,1.4-2,1.7
		c-0.8,1-2.3,3.7-4.5,7.9c-0.2,0.4-0.4,1-0.7,1.6c-0.4,1.1-0.7,1.7-0.9,1.8c-0.2,0.1-0.6,0-1-0.1c-1.9-0.6-1.9-2.1-0.2-4.6
		c0.3-0.5,0.8-1.8,1.5-4c0.7-2.1,1.2-3.3,1.3-3.6c0.1-0.6,0-1.1-0.1-1.3c-0.2-0.3-0.5-0.5-0.9-0.5c-0.4,0-0.7,0-0.8-0.1
		c-0.3,0-0.4-0.4-0.4-1.2c0.1-0.7,0.5-1.3,1.3-1.8c1.3-0.7,2.4-0.7,3.1-0.1c0.5,0.3,0.7,1.5,0.7,3.6
		C104,142.6,105,141.7,105.3,141.5z"/>
	<path class="st1" d="M118.1,148.4c-0.9,2.3-1.3,4.1-1.3,5.2c0,1.1,0.2,2,0.5,2.4c0.3,0.5,0.9,0.7,1.8,0.7c0.9,0,1.6-0.1,2.1-0.3
		c0.5-0.2,1.3-0.7,2.4-1.5l1.9-1.1c0.1,0,0.3-0.1,0.4-0.3c0.3-0.1,0.7-0.1,1.2,0.2c0.4,0.3,0.7,0.6,0.7,1c-0.1,0.3-0.4,0.8-1,1.4
		c-0.6,0.7-1,1-1.3,1c-0.5,0.3-0.8,0.4-0.8,0.4h0.1c-0.3,0.4-0.7,0.7-1,0.7h-0.4c-0.1,0.3-0.6,0.6-1.5,0.9c-0.8,0.3-1.6,0.4-2.3,0.4
		c-1.6,0-2.9-0.6-4-1.8c-1-1.2-1.5-2.8-1.5-4.6c0.1-2.7,1-5.6,2.7-8.7c2.3-4.4,5-6.5,7.8-6.5c0.7,0,1.5,0.2,2.4,0.6
		c1.1,0.5,1.9,1.4,2.3,2.6c0.1,1.1,0.1,2-0.1,2.8c-0.9,2.7-2.4,4.6-4.5,5.8c-0.6,0.4-1.3,0.5-2.2,0.5c-1.7,0-3-0.5-3.7-1.6
		L118.1,148.4z M120.4,145.8c0,0.5,0.1,0.9,0.4,1.3c0.3,0.3,0.6,0.5,1,0.5c1.1,0,2.1-0.5,2.9-1.6c0.8-1.1,1.3-2.1,1.5-3.1
		c0.2-1,0-1.6-0.4-1.9c-0.9-0.4-2.1,0.1-3.7,1.5c-1,0.9-1.7,1.7-2.2,2.4l-0.7,1.2c0.3-0.1,0.6-0.2,0.9-0.2
		C120.2,145.7,120.4,145.8,120.4,145.8z"/>
	<path class="st1" d="M157.5,156.3c-0.7,0-1.4-0.2-2-0.6c-0.6-0.4-1-1-1-1.8v-3.4c0-1.7-0.1-2.7-0.4-2.9c-0.6-0.3-1.5,0.3-2.8,1.8
		c-1.3,1.5-2.5,3.1-3.5,4.7c-1,1.6-1.6,2.5-1.7,2.6c-0.1,0.1-0.4,0.1-0.8-0.2c-1.4-0.4-1.9-1.3-1.6-2.6c0.8-2.5,1.4-5.1,2-7.8
		c-0.3-0.5-0.9-0.4-1.8,0.2c-0.9,0.6-2.1,2.1-3.5,4.5c-1.8,2.8-3,4.4-3.7,5c-0.5,0.8-0.9,1.2-1,1.3c-0.2,0.1-0.5,0-1-0.3
		c-1.1-0.6-1.6-1.6-1.6-2.9c0-1.3,0.5-3.9,1.6-7.6c0.9-1.6,1.3-2.7,1.3-3.2c0.4-2.4,0.8-3.7,1-4c0.3-0.3,0.6-0.4,1.1-0.3
		c0.5,0.1,0.8,0.3,1,0.8c0.7,0.8,0.7,2.2,0,4.2c-0.8,1.8-1.5,3.8-2,6c0.5-0.5,1.1-1.3,1.8-2.4c0.8-1,1.8-2.2,3-3.6
		c1.3-1.4,2.6-2.1,4-2.1c1.7,0.3,2.7,1.7,2.9,4.2l-0.3,2.9c0.8-1.2,2-2.4,3.4-3.7c1.5-1.2,2.8-1.2,3.8-0.2c1.7,1,2.4,3.1,2.1,6.3
		c-0.1,1.2-0.1,2.4,0.3,3.5c0.3,0.2,0.3,0.5,0.1,0.9S157.7,156.3,157.5,156.3z"/>
	<path class="st1" d="M176.2,156.6l-0.3-1.1c-0.3-0.1-0.4-0.3-0.4-0.5c0-0.2,0-0.4,0.2-0.9c0.5-0.8,1.3-2.8,2.5-5.7
		c1.2-3,1.9-4.8,2-5.3c0-0.4,0.2-0.7,0.6-1.1c0.6-0.5,1.2-0.2,1.8,0.9c0.3,0.5,0.4,1,0.4,1.4c0,0.5-0.4,1.8-1.2,3.9
		c-0.9,2.2-1.8,4.2-2.7,5.9c-0.9,1.7-1.4,2.6-1.7,2.6c-0.1,0-0.2,0.1-0.3,0.1L176.2,156.6z M183.3,130.2c0.5,0,1,0.1,1.3,0.3
		c0.3,0.6,0.7,1.3,1.4,2.1c0.7,0.8,1,1.4,1,1.6c0,0.8-0.1,1.4-0.2,1.5c-0.2,0.2-0.7,0.3-1.5,0.3c-0.8,0-1.6-0.4-2.3-1.1
		c-0.7-0.8-1.1-1.5-1.1-2.3c0-0.2,0.2-0.6,0.7-1.3S183.3,130.2,183.3,130.2z"/>
	<path class="st1" d="M185.1,159.9l0.4-2c0.2-1,0.9-3.3,2.1-7c1.2-3.7,2.3-6.7,3.2-9c0.8-1.8,1.2-3.2,1.2-4.3c0-0.2,0.2-0.5,0.6-0.9
		c0.4-0.4,1-0.4,1.8,0.2c0.1,0.1,0.3,0.3,0.5,0.6c0.2,0.3,0.3,0.6,0.4,0.8c0.1,0.2,0.1,0.8,0,1.6c0,0.8-0.3,1.7-0.9,2.7
		c3-1.2,5.3-1.4,6.9-0.5c1.6,0.9,2.4,2.5,2.4,4.7c0,0.7-0.2,1.5-0.6,2.4c-0.4,0.9-0.8,1.6-1.1,1.9c-0.2,0-0.5,0.4-0.9,1.2
		c-0.5,0.6-1.3,1.2-2.4,1.8c-1.1,0.6-1.9,0.9-2.3,0.7c-0.2,0-0.3,0.1-0.3,0.3c0,0.3-0.7,0.6-2.1,0.9c-1.4,0.3-2.4,0.5-3.1,0.5
		c-0.7,0-1.2-0.1-1.5-0.4c-0.3,0.3-0.4,0.5-0.4,0.9c0,0.3-0.2,1-0.6,2.1c-0.4,1.1-0.7,1.6-0.9,1.6c-0.2,0.2-0.2,0.4,0,0.6
		c0,0.8-0.1,1.3-0.3,1.7c0,1-0.2,1.8-0.5,2.6c0,0.4-0.1,0.9-0.2,1.3c-0.1,0.4-0.3,0.6-0.4,0.6c-0.2,0.1-0.3,0.6-0.4,1.5
		c0,1-0.2,1.7-0.5,2.2c-0.3,0.5-0.7,0.8-1.2,0.8c0,0-0.1,0-0.2,0c-0.1,0-0.2,0-0.3,0c-0.8-0.2-1-1.3-0.6-3.2
		c0.4-1.5,0.6-2.6,0.6-3.2l0.3-1.8c0.4-0.7,0.6-1.5,0.6-2.6C184.5,160.6,184.7,160.2,185.1,159.9z M199.7,145
		c-0.5-0.7-1.5-0.8-2.9-0.3c-2.5,0.8-4.3,2.5-5.4,5c-1.1,2.3-1.3,3.6-0.7,3.9c0.6,0,1.7-0.3,3.3-0.9c1.7-0.6,2.9-1.2,3.8-2
		c0.9-0.7,1.5-1.6,1.9-2.6C200.3,147.1,200.2,146.1,199.7,145z"/>
	<path class="st1" d="M223.3,138.8c0.4,0.7,0.5,1.3,0.5,1.9c0,0.6-0.3,1.4-0.9,2.4c-0.1,0.4-0.3,0.8-0.5,1.2
		c-0.2,0.4-0.3,0.6-0.3,0.7c-0.3,0.6-0.7,0.7-1.2,0.4c-0.5-0.3-0.9-0.8-1.2-1.5c-0.3-1-0.2-1.8,0.3-2.5c0.7-0.7,0.7-1,0-1
		c-0.4,0-1.3,0.3-2.5,1c-1.2,0.7-2.2,1.4-2.9,2.1c-0.7,0.7-1.1,1.2-1.3,1.5c-0.1,0.3-0.2,0.8-0.2,1.3c0,0.6,0.1,1.3,0.4,2
		c0.2,0.8,0.5,1.3,0.7,1.5c0.4,0.8,0.8,1.6,1.3,2.3c1.1,2.3,1.3,4,0.9,5.1c-0.5,1-1.8,1.6-4,1.8c-1.4,0.1-2.7,0-3.8-0.5
		c-1.1-0.5-1.8-1.3-2.1-2.3c-0.4-0.8-0.4-1.4,0-1.6c0.2,0,0.5,0.1,0.9,0.3c0.4,0.2,0.7,0.4,0.9,0.4c0.8,0.7,1.9,0.9,3.1,0.7
		c1.3-0.2,2-0.7,2.1-1.4c0-0.2-0.2-0.8-0.5-1.9c-1.9-2.7-2.9-5.2-2.9-7.5c0-1.6,0.8-2.9,2.3-4c1.9-2.1,4.2-3.4,6.9-4.2
		c1.2,0,2.2,0.2,3,0.6C222.5,137.7,222.9,138.1,223.3,138.8z"/>
	<path class="st1" d="M236.9,154.4v-1c-0.2,0.6-0.6,1-1.2,1.5c-0.8,0.8-1.7,1.5-2.5,1.9c-1.3,0.8-2.3,1.2-3,1.3
		c-0.7,0-1.5-0.4-2.2-1.2c-1.2-1-1.6-2.3-1.3-4c0.1-2.6,0.9-5.5,2.4-8.7c1.2-2.3,2-3.9,2.5-4.6c1.2-0.4,1.9,0,2,1.1
		c0.4,0.7-0.1,2.4-1.5,5.1c-2.2,5.2-2.7,8-1.5,8.5c0.4,0.3,1,0.2,1.7-0.1c0.8-0.3,1.7-1.1,2.8-2.4c1.1-1.3,2-2.8,2.8-4.5
		c0.7-1.7,1.1-3.2,1.2-4.6c-0.2-0.9,0.1-1.6,0.9-2.1c0.1-0.2,0.3-0.4,0.6-0.5c0.2-0.1,0.4-0.1,0.5,0l0.9-0.1c0.1,0,0.2,0.1,0.3,0.3
		c0.1,0.2,0.2,0.4,0.3,0.4c0.8,0.7,0.4,3-1.2,6.8c-1.2,2.5-1.8,4.4-1.8,5.7c0,1.4,0.5,2.5,1.6,3.4c0.5,0.4,0.8,1,0.7,2
		c-0.1,0.5-0.5,0.9-1.2,1s-1.3,0.1-1.8-0.3c-0.9-0.8-1.5-2.1-2-3.7C236.9,155.5,236.9,155,236.9,154.4z"/>
	<path class="st1" d="M271.7,156.3c-0.7,0-1.4-0.2-2-0.6c-0.6-0.4-1-1-1-1.8v-3.4c0-1.7-0.1-2.7-0.4-2.9c-0.5-0.3-1.5,0.3-2.8,1.8
		c-1.3,1.5-2.5,3.1-3.5,4.7c-1,1.6-1.6,2.5-1.7,2.6c-0.1,0.1-0.4,0.1-0.8-0.2c-1.4-0.4-1.9-1.3-1.6-2.6c0.8-2.5,1.4-5.1,2-7.8
		c-0.3-0.5-0.9-0.4-1.8,0.2c-0.9,0.6-2.1,2.1-3.5,4.5c-1.8,2.8-3,4.4-3.7,5c-0.5,0.8-0.9,1.2-1,1.3c-0.2,0.1-0.5,0-1-0.3
		c-1.1-0.6-1.6-1.6-1.6-2.9c0-1.3,0.5-3.9,1.6-7.6c0.9-1.6,1.3-2.7,1.3-3.2c0.4-2.4,0.8-3.7,1-4c0.3-0.3,0.6-0.4,1.1-0.3
		c0.5,0.1,0.8,0.3,1,0.8c0.7,0.8,0.7,2.2,0,4.2c-0.8,1.8-1.5,3.8-2,6c0.5-0.5,1.1-1.3,1.8-2.4c0.8-1,1.8-2.2,3-3.6
		c1.3-1.4,2.6-2.1,4-2.1c1.7,0.3,2.7,1.7,2.9,4.2l-0.3,2.9c0.8-1.2,2-2.4,3.4-3.7c1.5-1.2,2.8-1.2,3.8-0.2c1.7,1,2.4,3.1,2.1,6.3
		c-0.1,1.2-0.1,2.4,0.3,3.5c0.3,0.2,0.3,0.5,0.1,0.9C272.2,156.1,272,156.3,271.7,156.3z"/>
	<path class="st1" d="M304.6,160.6c-0.9,0.2-1.5-0.2-1.9-1.2c-0.7-1.9-0.9-3.7-0.7-5.4l0.1-1.2l-2.1,1.7c-2.3,2.1-4.5,3.1-6.7,3.1
		c-3.1-0.5-4-3-2.6-7.4c0.8-2.3,1.8-4.2,3.2-5.7c2.4-3.6,5.1-4.5,8-2.8c0.9,0.4,1.5,0.6,1.8,0.6c0.3-0.1,0.5-0.7,0.8-1.9
		c1-4.2,2.7-9,5.2-14.2c0.6-1.3,1.2-1.9,1.9-1.8c0.8,0,1.4,0.6,1.9,1.7c0.3,0.6,0.2,1.2-0.2,1.8c-1,1.6-2.1,4.3-3.5,8.1
		c-1.4,3.7-2.4,6.7-3,8.8c-0.6,2.1-1,4.7-1.3,7.7c-0.3,3-0.3,5-0.1,5.9c0.2,0.9,0.3,1.5,0.2,1.8
		C305.6,160.3,305.3,160.5,304.6,160.6z M295.3,154.5c1.1-0.3,2.6-1.2,4.6-2.9c0.1-0.1,0.3-0.2,0.7-0.5c0.3-0.3,0.5-0.5,0.7-0.6
		c0.1-0.1,0.3-0.4,0.5-0.6c0.2-0.3,0.4-0.5,0.5-0.7c1-1.9,0.8-3.5-0.5-4.7c-0.4-0.4-1-0.5-1.8-0.4s-1.6,0.5-2.3,1.2
		c-2.2,2-3.7,4.7-4.4,8.2C293,154.5,293.8,154.8,295.3,154.5z"/>
	<path class="st1" d="M329.9,142.5c0,0.4,0.2,0.6,0.5,0.6c0.4,0-0.1,0.6-1.7,1.7c-0.9,0.6-1.4,0.9-1.4,1.1c0,0.1,0,0.3,0.1,0.6
		c0.8,1.8,0,4-2.4,6.6c-2.4,2.6-4.8,4.1-7.3,4.4c-0.8,0.1-1.3,0.2-1.5,0.2c-0.2,0-0.5-0.3-0.9-0.7c-0.8-0.4-1.4-1-1.9-1.7
		c-0.5-0.8-0.7-1.4-0.6-2c0.3-2.6,1.2-5.5,2.8-8.4c1.6-3,3.3-4.8,4.9-5.3c1.8-0.7,2.9-0.5,3.5,0.6c0.6,1.1,0.4,1.8-0.4,2.1
		c-0.4,0-0.6,0.2-0.6,0.5c0.3,0.1,1,0.1,2.3-0.1c1.2-0.2,2-0.4,2.3-0.7c0.3-0.1,0.7-0.1,1.3,0C329.6,142,329.9,142.2,329.9,142.5z
		 M323.7,145.9c-0.5,0-1.2-0.4-2.1-1.1l-0.9-1.1l-0.9,0.9c-0.9,0.9-1.8,2.3-2.7,4.3c-0.9,2-1.4,3.4-1.5,4.2c-0.1,0.8,0,1.3,0.2,1.5
		c0.2,0.2,0.5,0.3,0.8,0.3c0.3,0,0.9-0.2,1.8-0.6c0.5-0.5,0.9-0.8,1.2-0.9c0.6,0,1.6-1,3.1-2.9c1.6-1.8,2.3-3.2,2-4.1
		c0-0.1-0.1-0.2-0.4-0.3C324,146.1,323.8,146,323.7,145.9z"/>
	<path class="st1" d="M343.2,125.5c0.2,0.6,0.3,1,0.3,1.3s-0.1,0.6-0.2,0.9c-0.2,0.2-0.5,0.9-1.1,2c-0.5,1.8-0.9,3-1.2,3.7
		c-0.3,0.7-0.5,1.2-0.6,1.5c-0.1,0.3-0.4,1-0.8,2.1c-0.4,1.1-0.9,2.6-1.5,4.5s-1,3-1.3,3.5c-0.3,0.5-0.6,1.6-0.9,3.5
		c-0.6,1.6-0.8,2.6-0.8,2.9c-0.1,0.4-0.3,1.1-0.4,2.2c-0.2,1.1-0.4,1.8-0.6,2.3c-0.1,1.2-0.7,1.5-1.8,0.9c-0.7-0.4-1.1-1-1.1-1.6
		c0-0.7,0.2-1.9,0.7-3.5c0.2-1.8,0.6-3.1,1-3.9c1.5-5.1,2.3-7.9,2.4-8.4c0.3-1,0.8-2.2,1.4-3.8c0.6-1.6,1-2.6,1.2-3.2
		c0.2-0.6,0.5-1.6,0.9-3.1c0.4-1.5,0.8-2.5,1.1-3c0.5-0.8,0.9-1.4,1.1-1.8c0-0.2,0.3-0.3,0.7-0.3c0.4,0,0.7,0.2,1,0.4
		C342.8,124.7,343,125,343.2,125.5z"/>
	<path class="st1" d="M351.9,138.3c0.3,0,0.7,0.2,1.3,0.7c0.9,0.3,1.5,0.6,2,1.1c0.5,0.5,0.8,1.2,1.1,2.1c0.7,2.8,0.2,5.9-1.6,9.4
		c-0.7,1.3-1.3,2.3-1.9,3.1c-0.6,0.7-1.5,1.6-2.8,2.7c-1.2,1.1-2.5,1.7-3.9,2c-0.6,0.1-1.4-0.2-2.3-0.7c-1.6-1.3-2.4-2.5-2.3-3.8
		c0-0.2,0.1-0.4,0.1-0.6c0-0.2,0-0.4-0.1-0.7c-0.2-0.2-0.3-0.3-0.2-0.4c0.1-0.1,0.1-0.2,0.1-0.2c0.3-0.1,0.3-0.3,0.1-0.6
		c-0.1-0.3,0-1,0.2-2c0.2-1,0.5-2,0.9-2.8c1-2.3,2.1-4.1,3.2-5.4c1.4-1.6,2.8-2.6,4.3-3.2C351,138.5,351.6,138.3,351.9,138.3z
		 M350.5,152.7c2.2-3.3,3.1-6.3,2.7-9c-0.1-1-0.4-1.5-0.7-1.6c-1.1-0.4-2.2,0-3.5,1.3c-1.5,1.8-2.9,4.8-4.2,9
		c-0.6,2-0.3,3.2,0.7,3.8c1,0.5,2.4-0.2,4.1-2.3C349.9,153.5,350.2,153.1,350.5,152.7z"/>
	<path class="st1" d="M376.6,143.8c-0.4,0-0.8,0.1-1.2,0.3c-0.5,0.2-0.8,0.4-1,0.5c-0.2,0.1-0.5,0.3-0.8,0.6
		c-0.3,0.2-0.5,0.4-0.6,0.4c-2,1.3-3.5,2.5-4.6,3.6c-2,2.1-3.1,3.6-3.4,4.5c-1.2,2.8-1.9,4.3-2.2,4.6c-0.2,0.5-0.8,0.4-1.7-0.1
		c-0.5,0-0.9-0.3-1-0.9c-0.1-0.4,0.1-1.5,0.6-3.3c0.6-2.7,1.1-4.7,1.4-5.8c0.2-0.4,0.4-1.1,0.7-2c0.3-1,0.6-1.7,0.8-2.2
		c0.4-1.6,1.1-3.3,2.1-4.9c0.3-0.5,0.6-0.7,0.9-0.7c0.5-0.5,1-0.4,1.7,0.2c0.4,0.4,0.6,1,0.5,1.6c-0.1,0.7-0.5,1.6-1.3,2.8
		c-0.2,0.5-0.5,1.2-0.8,2c-0.7,1.5-1,2.6-1.2,3.3c0.5-0.6,1.3-1.5,2.4-2.7c1.1-1.2,2.5-2.2,4.1-3.2c1.5-1.1,3-1.5,4.2-1.3
		c1-0.1,1.6,0.9,1.8,2.9C377.4,143.8,376.9,143.8,376.6,143.8z"/>
	<path class="st2" d="M69.2,207.1l0.5-2.1c0.6-1.1,1.6-3.7,3.1-7.7c1.5-4,2.2-6.2,2.2-6.7s0.3-0.8,0.9-0.8c0.2-0.2,0.5-0.3,0.9-0.3
		l0.9,0.9c0.4,0.4,0.6,0.9,0.6,1.5c0,0.6,0,1-0.1,1.2c0,0.2-0.1,0.4-0.1,0.5c0,0.2-0.1,0.4-0.3,0.7c-0.1,0.3-0.3,0.6-0.4,0.9
		c-0.1,0.3-0.3,0.7-0.7,1.4c-0.3,0.7-0.6,1.3-0.8,1.7c-0.2,0.5-0.4,1-0.7,1.5c-0.3,0.5-0.5,1-0.6,1.3c-0.1,0.3-0.2,0.5-0.2,0.6
		c0,0.1,0,0.2-0.1,0.4c-0.1,0.2-0.1,0.4-0.2,0.7c-0.1,0.3-0.3,0.6-0.4,1c-1.5,3.2-2.2,5-2.2,5.4c0,0.3-0.1,0.6-0.3,0.8
		c-0.2,0-0.3,0.1-0.3,0.4v0.2c0,0.4-0.3,1.3-0.9,2.9c-1.6,5.3-2.4,8.5-2.4,9.5c0,1,0,1.6-0.1,1.9c-0.1,0.3-0.2,0.5-0.5,0.6
		c-1.1,0.3-1.8-0.1-2.2-1.3c-0.4-1.2-0.4-2.8,0.1-4.8c0.4-1.1,0.6-1.8,0.6-2.3c0.1-0.7,0.5-2,1.1-3.8c0.6-1.8,1.1-2.9,1.2-3.3
		c0.4,0,0.6-0.4,0.6-1.2S68.8,207.4,69.2,207.1z"/>
	<path class="st2" d="M76.9,212.3c2.5-4.1,5.3-6.5,8.6-7.3c0.8-0.2,1.3-0.3,1.7-0.3c0.3,0,0.8,0.3,1.3,0.9c0.8,0.4,1.5,0.8,1.8,1.3
		c0.4,0.5,0.6,1.3,0.7,2.3c0.3,2.9-0.7,5.9-2.9,9c-0.8,1.2-1.6,2.1-2.4,2.8c-0.7,0.6-1.7,1.3-2.9,2.1c-1.4,1-2.9,1.5-4.3,1.6
		c-0.6,0-1.3-0.3-2.1-1c-1.4-1.4-2-2.8-1.8-4.1l0.1-1.3c-0.2-0.2-0.2-0.3-0.1-0.4c0.1-0.1,0.2-0.2,0.2-0.2c0.2,0,0.3-0.2,0.2-0.5
		c-0.1-0.3,0.1-1,0.4-2C75.9,214.1,76.3,213.2,76.9,212.3z M87.5,212.7c0.2-0.6,0.3-1.4,0.3-2.4c0-1-0.2-1.6-0.5-1.7
		c-1-0.6-2.2-0.3-3.6,0.8c-1.8,1.6-3.6,4.4-5.4,8.4c-0.8,1.8-0.7,3.1,0.2,3.8c1.1,0.9,2.9,0,5.4-2.8C85.4,217.1,86.7,215,87.5,212.7
		z"/>
	<path class="st2" d="M105.3,207.5c1.8-1.2,3.1-1.9,4-1.9c0.9,0,1.5,0.3,1.9,1c0.7,1.2,0.6,2.2-0.1,3.1c-0.3,0.4-0.8,0.7-1.3,0.9
		c-0.5,0.2-0.9,0.3-1.1,0.3c-0.2,0-0.5-0.2-0.8-0.5s-0.5-0.6-0.6-0.8c0-0.2-0.5,0.1-1.5,1c-1,0.8-1.7,1.4-2,1.7
		c-0.8,1-2.3,3.7-4.5,7.9c-0.2,0.4-0.4,1-0.7,1.6c-0.4,1.1-0.7,1.7-0.9,1.8c-0.2,0.1-0.6,0-1-0.1c-1.9-0.6-1.9-2.1-0.2-4.6
		c0.3-0.5,0.8-1.8,1.5-4c0.7-2.1,1.2-3.3,1.3-3.6c0.1-0.6,0-1.1-0.1-1.3c-0.2-0.3-0.5-0.5-0.9-0.5c-0.4,0-0.7,0-0.8-0.1
		c-0.3,0-0.4-0.4-0.4-1.2c0.1-0.7,0.5-1.3,1.3-1.8c1.3-0.7,2.4-0.7,3.1-0.1c0.5,0.3,0.7,1.5,0.7,3.6
		C104,208.6,105,207.7,105.3,207.5z"/>
	<path class="st2" d="M118.1,214.4c-0.9,2.3-1.3,4.1-1.3,5.2c0,1.1,0.2,2,0.5,2.4s0.9,0.7,1.8,0.7c0.9,0,1.6-0.1,2.1-0.3
		c0.5-0.2,1.3-0.7,2.4-1.5l1.9-1.1c0.1,0,0.3-0.1,0.4-0.3c0.3-0.1,0.7-0.1,1.2,0.2c0.4,0.3,0.7,0.6,0.7,1c-0.1,0.3-0.4,0.8-1,1.4
		c-0.6,0.7-1,1-1.3,1c-0.5,0.3-0.8,0.4-0.8,0.4h0.1c-0.3,0.4-0.7,0.7-1,0.7h-0.4c-0.1,0.3-0.6,0.6-1.5,0.9c-0.8,0.3-1.6,0.4-2.3,0.4
		c-1.6,0-2.9-0.6-4-1.8c-1-1.2-1.5-2.8-1.5-4.6c0.1-2.7,1-5.6,2.7-8.7c2.3-4.4,5-6.5,7.8-6.5c0.7,0,1.5,0.2,2.4,0.6
		c1.1,0.5,1.9,1.4,2.3,2.6c0.1,1.1,0.1,2-0.1,2.8c-0.9,2.7-2.4,4.6-4.5,5.8c-0.6,0.4-1.3,0.5-2.2,0.5c-1.7,0-3-0.5-3.7-1.6
		L118.1,214.4z M120.4,211.8c0,0.5,0.1,0.9,0.4,1.3c0.3,0.3,0.6,0.5,1,0.5c1.1,0,2.1-0.6,2.9-1.7c0.8-1.1,1.3-2.1,1.5-3.1
		c0.2-1,0-1.6-0.4-1.9c-0.9-0.4-2.1,0.1-3.7,1.5c-1,0.9-1.7,1.7-2.2,2.4l-0.7,1.2c0.3-0.1,0.6-0.2,0.9-0.2
		C120.2,211.7,120.4,211.8,120.4,211.8z"/>
	<path class="st2" d="M157.5,222.3c-0.7,0-1.4-0.2-2-0.6c-0.6-0.4-1-1-1-1.8v-3.4c0-1.7-0.1-2.7-0.4-2.9c-0.6-0.3-1.5,0.3-2.8,1.8
		c-1.3,1.5-2.5,3.1-3.5,4.7c-1,1.6-1.6,2.5-1.7,2.6c-0.1,0.1-0.4,0.1-0.8-0.2c-1.4-0.4-1.9-1.3-1.6-2.6c0.8-2.5,1.4-5.1,2-7.8
		c-0.3-0.5-0.9-0.4-1.8,0.2c-0.9,0.6-2.1,2.1-3.5,4.5c-1.8,2.8-3,4.4-3.7,5c-0.5,0.8-0.9,1.2-1,1.3c-0.2,0.1-0.5,0-1-0.3
		c-1.1-0.6-1.6-1.6-1.6-2.9c0-1.3,0.5-3.9,1.6-7.6c0.9-1.6,1.3-2.7,1.3-3.2c0.4-2.4,0.8-3.7,1-4c0.3-0.3,0.6-0.4,1.1-0.3
		c0.5,0.1,0.8,0.3,1,0.8c0.7,0.8,0.7,2.2,0,4.2c-0.8,1.8-1.5,3.8-2,6c0.5-0.6,1.1-1.3,1.8-2.4c0.8-1,1.8-2.2,3-3.6s2.6-2.1,4-2.1
		c1.7,0.3,2.7,1.7,2.9,4.2l-0.3,2.9c0.8-1.2,2-2.4,3.4-3.7c1.5-1.2,2.8-1.2,3.8-0.2c1.7,1,2.4,3.1,2.1,6.3c-0.1,1.2-0.1,2.4,0.3,3.5
		c0.3,0.2,0.3,0.5,0.1,0.9C157.9,222.1,157.7,222.3,157.5,222.3z"/>
	<path class="st2" d="M176.2,222.6l-0.3-1.1c-0.3-0.1-0.4-0.3-0.4-0.5c0-0.2,0-0.4,0.2-0.9c0.5-0.8,1.3-2.8,2.5-5.7
		c1.2-3,1.9-4.8,2-5.3c0-0.4,0.2-0.7,0.6-1.1c0.6-0.5,1.2-0.2,1.8,0.9c0.3,0.5,0.4,1,0.4,1.4s-0.4,1.8-1.2,3.8
		c-0.9,2.2-1.8,4.2-2.7,5.9c-0.9,1.7-1.4,2.6-1.7,2.6c-0.1,0-0.2,0.1-0.3,0.1L176.2,222.6z M183.3,196.2c0.5,0,1,0.1,1.3,0.3
		c0.3,0.6,0.7,1.3,1.4,2.1c0.7,0.8,1,1.4,1,1.6c0,0.8-0.1,1.4-0.2,1.5c-0.2,0.2-0.7,0.3-1.5,0.3c-0.8,0-1.6-0.4-2.3-1.1
		c-0.7-0.8-1.1-1.5-1.1-2.3c0-0.2,0.2-0.6,0.7-1.3C183,196.6,183.3,196.2,183.3,196.2z"/>
	<path class="st2" d="M185.1,225.9l0.4-2c0.2-1,0.9-3.3,2.1-7c1.2-3.7,2.3-6.7,3.2-9c0.8-1.8,1.2-3.2,1.2-4.3c0-0.2,0.2-0.5,0.6-0.9
		c0.4-0.4,1-0.4,1.8,0.2c0.1,0.1,0.3,0.3,0.5,0.6c0.2,0.3,0.3,0.6,0.4,0.8s0.1,0.8,0,1.6c0,0.8-0.3,1.7-0.9,2.7
		c3-1.2,5.3-1.4,6.9-0.5c1.6,0.9,2.4,2.5,2.4,4.7c0,0.7-0.2,1.5-0.6,2.4c-0.4,0.9-0.8,1.6-1.1,1.9c-0.2,0-0.5,0.4-0.9,1.2
		c-0.5,0.6-1.3,1.2-2.4,1.8c-1.1,0.6-1.9,0.9-2.3,0.7c-0.2,0-0.3,0.1-0.3,0.3c0,0.3-0.7,0.6-2.1,0.9s-2.4,0.5-3.1,0.5
		c-0.7,0-1.2-0.1-1.5-0.4c-0.3,0.3-0.4,0.5-0.4,0.9c0,0.3-0.2,1-0.6,2.1c-0.4,1.1-0.7,1.6-0.9,1.6c-0.2,0.2-0.2,0.4,0,0.6
		c0,0.8-0.1,1.3-0.3,1.7c0,1-0.2,1.8-0.5,2.6c0,0.4-0.1,0.9-0.2,1.3c-0.1,0.4-0.3,0.6-0.4,0.6c-0.2,0.1-0.3,0.6-0.4,1.5
		c0,1-0.2,1.7-0.5,2.2c-0.3,0.5-0.7,0.8-1.2,0.8c0,0-0.1,0-0.2,0c-0.1,0-0.2,0-0.3,0c-0.8-0.2-1-1.3-0.6-3.2
		c0.4-1.5,0.6-2.6,0.6-3.2l0.3-1.8c0.4-0.7,0.6-1.5,0.6-2.6C184.5,226.6,184.7,226.2,185.1,225.9z M199.7,211
		c-0.5-0.7-1.5-0.8-2.9-0.3c-2.5,0.8-4.3,2.5-5.4,5c-1.1,2.3-1.3,3.6-0.7,3.9c0.6,0,1.7-0.3,3.3-0.9c1.7-0.6,2.9-1.2,3.8-2
		c0.9-0.7,1.5-1.6,1.9-2.6C200.3,213.1,200.2,212.1,199.7,211z"/>
	<path class="st2" d="M223.3,204.8c0.4,0.7,0.5,1.3,0.5,1.9c0,0.6-0.3,1.4-0.9,2.4c-0.1,0.4-0.3,0.8-0.5,1.2
		c-0.2,0.4-0.3,0.6-0.3,0.7c-0.3,0.5-0.7,0.7-1.2,0.4c-0.5-0.3-0.9-0.8-1.2-1.5c-0.3-1-0.2-1.8,0.3-2.5c0.7-0.7,0.7-1,0-1
		c-0.4,0-1.3,0.3-2.5,1c-1.2,0.7-2.2,1.4-2.9,2.1c-0.7,0.7-1.1,1.2-1.3,1.5c-0.1,0.3-0.2,0.8-0.2,1.3s0.1,1.3,0.4,2
		c0.2,0.8,0.5,1.3,0.7,1.5c0.4,0.8,0.8,1.6,1.3,2.3c1.1,2.3,1.3,4,0.9,5.1s-1.8,1.6-4,1.8c-1.4,0.1-2.7,0-3.8-0.5
		c-1.1-0.5-1.8-1.3-2.1-2.3c-0.4-0.8-0.4-1.4,0-1.6c0.2,0,0.5,0.1,0.9,0.3c0.4,0.2,0.7,0.4,0.9,0.4c0.8,0.7,1.9,0.9,3.1,0.7
		c1.3-0.2,2-0.7,2.1-1.4c0-0.2-0.2-0.8-0.5-1.9c-1.9-2.7-2.9-5.2-2.9-7.5c0-1.6,0.8-2.9,2.3-4c1.9-2.1,4.2-3.4,6.9-4.2
		c1.2,0,2.2,0.2,3,0.5C222.5,203.7,222.9,204.1,223.3,204.8z"/>
	<path class="st2" d="M236.9,220.4v-1c-0.2,0.5-0.6,1-1.2,1.5c-0.8,0.8-1.7,1.5-2.5,1.9c-1.3,0.8-2.3,1.2-3,1.3
		c-0.7,0-1.5-0.4-2.2-1.2c-1.2-1-1.6-2.3-1.3-4c0.1-2.6,0.9-5.5,2.4-8.7c1.2-2.3,2-3.8,2.5-4.6c1.2-0.4,1.9,0,2,1.1
		c0.4,0.7-0.1,2.4-1.5,5.1c-2.2,5.2-2.7,8-1.5,8.5c0.4,0.3,1,0.2,1.7-0.1c0.8-0.3,1.7-1.1,2.8-2.4s2-2.8,2.8-4.5
		c0.7-1.7,1.1-3.2,1.2-4.6c-0.2-0.9,0.1-1.6,0.9-2.1c0.1-0.2,0.3-0.4,0.6-0.5c0.2-0.1,0.4-0.1,0.5,0l0.9-0.1c0.1,0,0.2,0.1,0.3,0.3
		c0.1,0.2,0.2,0.4,0.3,0.4c0.8,0.7,0.4,3-1.2,6.8c-1.2,2.5-1.8,4.4-1.8,5.7c0,1.4,0.5,2.5,1.6,3.4c0.5,0.4,0.8,1,0.7,2
		c-0.1,0.5-0.5,0.9-1.2,1s-1.3,0.1-1.8-0.3c-0.9-0.8-1.5-2.1-2-3.7C236.9,221.5,236.9,221,236.9,220.4z"/>
	<path class="st2" d="M271.7,222.3c-0.7,0-1.4-0.2-2-0.6s-1-1-1-1.8v-3.4c0-1.7-0.1-2.7-0.4-2.9c-0.5-0.3-1.5,0.3-2.8,1.8
		c-1.3,1.5-2.5,3.1-3.5,4.7c-1,1.6-1.6,2.5-1.7,2.6c-0.1,0.1-0.4,0.1-0.8-0.2c-1.4-0.4-1.9-1.3-1.6-2.6c0.8-2.5,1.4-5.1,2-7.8
		c-0.3-0.5-0.9-0.4-1.8,0.2c-0.9,0.6-2.1,2.1-3.5,4.5c-1.8,2.8-3,4.4-3.7,5c-0.5,0.8-0.9,1.2-1,1.3c-0.2,0.1-0.5,0-1-0.3
		c-1.1-0.6-1.6-1.6-1.6-2.9c0-1.3,0.5-3.9,1.6-7.6c0.9-1.6,1.3-2.7,1.3-3.2c0.4-2.4,0.8-3.7,1-4c0.3-0.3,0.6-0.4,1.1-0.3
		c0.5,0.1,0.8,0.3,1,0.8c0.7,0.8,0.7,2.2,0,4.2c-0.8,1.8-1.5,3.8-2,6c0.5-0.6,1.1-1.3,1.8-2.4c0.8-1,1.8-2.2,3-3.6
		c1.3-1.4,2.6-2.1,4-2.1c1.7,0.3,2.7,1.7,2.9,4.2l-0.3,2.9c0.8-1.2,2-2.4,3.4-3.7c1.5-1.2,2.8-1.2,3.8-0.2c1.7,1,2.4,3.1,2.1,6.3
		c-0.1,1.2-0.1,2.4,0.3,3.5c0.3,0.2,0.3,0.5,0.1,0.9C272.2,222.1,272,222.3,271.7,222.3z"/>
	<path class="st2" d="M304.6,226.6c-0.9,0.2-1.5-0.2-1.9-1.2c-0.7-1.9-0.9-3.7-0.7-5.4l0.1-1.2l-2.1,1.7c-2.3,2.1-4.5,3.1-6.7,3.1
		c-3.1-0.5-4-3-2.6-7.4c0.8-2.3,1.8-4.2,3.2-5.7c2.4-3.6,5.1-4.5,8-2.8c0.9,0.4,1.5,0.6,1.8,0.5c0.3-0.1,0.5-0.7,0.8-1.9
		c1-4.2,2.7-9,5.2-14.2c0.6-1.3,1.2-1.9,1.9-1.8c0.8,0,1.4,0.5,1.9,1.7c0.3,0.6,0.2,1.2-0.2,1.8c-1,1.7-2.1,4.3-3.5,8.1
		c-1.4,3.7-2.4,6.7-3,8.8c-0.6,2.1-1,4.7-1.3,7.7s-0.3,5-0.1,5.9s0.3,1.5,0.2,1.8S305.3,226.5,304.6,226.6z M295.3,220.5
		c1.1-0.3,2.6-1.2,4.6-2.9c0.1-0.1,0.3-0.2,0.7-0.5c0.3-0.3,0.5-0.5,0.7-0.6s0.3-0.4,0.5-0.6c0.2-0.3,0.4-0.5,0.5-0.7
		c1-1.9,0.8-3.5-0.5-4.7c-0.4-0.4-1-0.5-1.8-0.4s-1.6,0.5-2.3,1.2c-2.2,2-3.7,4.7-4.4,8.2C293,220.5,293.8,220.8,295.3,220.5z"/>
	<path class="st2" d="M329.9,208.5c0,0.4,0.2,0.6,0.5,0.6c0.4,0-0.1,0.6-1.7,1.7c-0.9,0.6-1.4,0.9-1.4,1.1c0,0.1,0,0.3,0.1,0.6
		c0.8,1.8,0,4-2.4,6.6c-2.4,2.6-4.8,4.1-7.3,4.4c-0.8,0.1-1.3,0.2-1.5,0.2c-0.2,0-0.5-0.3-0.9-0.7c-0.8-0.4-1.4-1-1.9-1.7
		c-0.5-0.8-0.7-1.4-0.6-2c0.3-2.6,1.2-5.5,2.8-8.4c1.6-3,3.3-4.8,4.9-5.3c1.8-0.7,2.9-0.5,3.5,0.6c0.6,1.1,0.4,1.8-0.4,2.1
		c-0.4,0-0.6,0.2-0.6,0.5c0.3,0.1,1,0.1,2.3-0.1c1.2-0.2,2-0.4,2.3-0.7c0.3-0.1,0.7-0.1,1.3,0C329.6,208,329.9,208.2,329.9,208.5z
		 M323.7,211.9c-0.5,0-1.2-0.4-2.1-1.1l-0.9-1.1l-0.9,0.9c-0.9,0.9-1.8,2.3-2.7,4.3c-0.9,2-1.4,3.4-1.5,4.2c-0.1,0.8,0,1.3,0.2,1.5
		c0.2,0.2,0.5,0.3,0.8,0.3s0.9-0.2,1.8-0.6c0.5-0.5,0.9-0.8,1.2-0.9c0.6,0,1.6-1,3.1-2.9c1.6-1.8,2.3-3.2,2-4.1
		c0-0.1-0.1-0.2-0.4-0.3C324,212.1,323.8,212,323.7,211.9z"/>
	<path class="st2" d="M343.2,191.5c0.2,0.6,0.3,1,0.3,1.3s-0.1,0.6-0.2,0.9c-0.2,0.2-0.5,0.9-1.1,2c-0.5,1.8-0.9,3-1.2,3.7
		c-0.3,0.7-0.5,1.2-0.6,1.5c-0.1,0.3-0.4,1-0.8,2.1s-0.9,2.6-1.5,4.5s-1,3-1.3,3.5c-0.3,0.5-0.6,1.6-0.9,3.5
		c-0.6,1.6-0.8,2.6-0.8,2.9c-0.1,0.4-0.3,1.1-0.4,2.2c-0.2,1.1-0.4,1.8-0.6,2.3c-0.1,1.2-0.7,1.5-1.8,0.9c-0.7-0.4-1.1-1-1.1-1.7
		c0-0.7,0.2-1.9,0.7-3.5c0.2-1.8,0.6-3.1,1-3.9c1.5-5.1,2.3-7.9,2.4-8.4c0.3-1,0.8-2.2,1.4-3.8c0.6-1.6,1-2.6,1.2-3.2
		c0.2-0.6,0.5-1.6,0.9-3.1c0.4-1.5,0.8-2.5,1.1-3c0.5-0.8,0.9-1.4,1.1-1.8c0-0.2,0.3-0.3,0.7-0.3c0.4,0,0.7,0.2,1,0.4
		C342.8,190.7,343,191,343.2,191.5z"/>
	<path class="st2" d="M351.9,204.3c0.3,0,0.7,0.2,1.3,0.7c0.9,0.3,1.5,0.6,2,1.1c0.5,0.5,0.8,1.2,1.1,2.1c0.7,2.8,0.2,5.9-1.6,9.3
		c-0.7,1.3-1.3,2.3-1.9,3.1c-0.6,0.7-1.5,1.6-2.8,2.7c-1.2,1.1-2.5,1.7-3.9,2c-0.6,0.1-1.4-0.2-2.3-0.7c-1.6-1.3-2.4-2.5-2.3-3.8
		c0-0.2,0.1-0.4,0.1-0.6c0-0.2,0-0.4-0.1-0.7c-0.2-0.2-0.3-0.3-0.2-0.4c0.1-0.1,0.1-0.2,0.1-0.2c0.3-0.1,0.3-0.3,0.1-0.6
		c-0.1-0.3,0-1,0.2-2c0.2-1,0.5-2,0.9-2.8c1-2.3,2.1-4.1,3.2-5.4c1.4-1.6,2.8-2.6,4.3-3.2C351,204.5,351.6,204.3,351.9,204.3z
		 M350.5,218.7c2.2-3.3,3.1-6.3,2.7-9c-0.1-1-0.4-1.5-0.7-1.6c-1.1-0.4-2.2,0-3.5,1.3c-1.5,1.8-2.9,4.8-4.2,9
		c-0.6,2-0.3,3.2,0.7,3.8c1,0.6,2.4-0.2,4.1-2.3C349.9,219.5,350.2,219.1,350.5,218.7z"/>
	<path class="st2" d="M376.6,209.8c-0.4,0-0.8,0.1-1.2,0.3c-0.5,0.2-0.8,0.4-1,0.5c-0.2,0.1-0.5,0.3-0.8,0.5
		c-0.3,0.2-0.5,0.4-0.6,0.4c-2,1.3-3.5,2.5-4.6,3.6c-2,2.1-3.1,3.6-3.4,4.5c-1.2,2.8-1.9,4.3-2.2,4.6c-0.2,0.5-0.8,0.4-1.7-0.1
		c-0.5,0-0.9-0.3-1-0.9c-0.1-0.4,0.1-1.5,0.6-3.3c0.6-2.7,1.1-4.7,1.4-5.8c0.2-0.4,0.4-1.1,0.7-2c0.3-1,0.6-1.7,0.8-2.2
		c0.4-1.6,1.1-3.3,2.1-4.9c0.3-0.5,0.6-0.7,0.9-0.7c0.5-0.5,1-0.4,1.7,0.2c0.4,0.4,0.6,1,0.5,1.7c-0.1,0.7-0.5,1.6-1.3,2.8
		c-0.2,0.5-0.5,1.2-0.8,2c-0.7,1.5-1,2.6-1.2,3.3c0.5-0.6,1.3-1.5,2.4-2.7c1.1-1.2,2.5-2.2,4.1-3.2c1.5-1.1,3-1.5,4.2-1.3
		c1-0.1,1.6,0.9,1.8,2.9C377.4,209.8,376.9,209.8,376.6,209.8z"/>
	<path class="st2" d="M60,217.6V214h327.6v3.6H60z"/>
</g>
</svg>
