<?xml version="1.0" encoding="utf-8"?>
<!-- Generator: Adobe Illustrator 20.0.0, SVG Export Plug-In . SVG Version: 6.00 Build 0)  -->
<svg version="1.1" id="Layer_1" xmlns="http://www.w3.org/2000/svg" xmlns:xlink="http://www.w3.org/1999/xlink" x="0px" y="0px"
	 viewBox="0 0 66.2 56.3" style="enable-background:new 0 0 66.2 56.3;" xml:space="preserve">
<path id="menu" d="M143.1,29.9h-27c-0.7,0-1.2-0.6-1.2-1.4c0-0.8,0.6-1.4,1.2-1.4h27c0.7,0,1.2,0.6,1.2,1.4
	C144.3,29.3,143.8,29.9,143.1,29.9z M143.1,23.4h-27c-0.7,0-1.2-0.6-1.2-1.4c0-0.8,0.6-1.4,1.2-1.4h27c0.7,0,1.2,0.6,1.2,1.4
	C144.3,22.8,143.8,23.4,143.1,23.4z M116.1,33.6h27c0.7,0,1.2,0.6,1.2,1.4c0,0.8-0.6,1.4-1.2,1.4h-27c-0.7,0-1.2-0.6-1.2-1.4
	C114.9,34.3,115.4,33.6,116.1,33.6z"/>
<g>
	<path d="M33,35.8L20.3,23.1c-0.5-0.5-0.5-1.4,0-1.9l0.2-0.2c0.5-0.5,1.4-0.5,1.9,0l12.8,12.8c0.5,0.5,0.5,1.4,0,1.9L35,35.8
		C34.4,36.4,33.6,36.4,33,35.8z"/>
	<path d="M35.2,23.1L22.4,35.8c-0.5,0.5-1.4,0.5-1.9,0l-0.2-0.2c-0.5-0.5-0.5-1.4,0-1.9L33,20.9c0.5-0.5,1.4-0.5,1.9,0l0.2,0.2
		C35.7,21.7,35.7,22.5,35.2,23.1z"/>
</g>
</svg>
