<?xml version="1.0" encoding="utf-8"?>
<!-- Generator: Adobe Illustrator 20.0.0, SVG Export Plug-In . SVG Version: 6.00 Build 0)  -->
<svg version="1.1" id="Layer_2" xmlns="http://www.w3.org/2000/svg" xmlns:xlink="http://www.w3.org/1999/xlink" x="0px" y="0px"
	 viewBox="0 0 450.7 295.3" style="enable-background:new 0 0 450.7 295.3;" xml:space="preserve">
<style type="text/css">
	.st0{fill:#FFFFFF;}
	.st1{fill:#1E88C8;fill-opacity:0.32;stroke:#1E88C8;stroke-miterlimit:10;}
	.st2{fill:#1E88C8;stroke:#1E88C8;stroke-miterlimit:10;}
	.st3{fill:#1E88C8;stroke:#1C9480;stroke-width:12;stroke-miterlimit:10;}
	.st4{fill:#1E88C8;stroke:#B3B3B3;stroke-width:4;stroke-linecap:round;stroke-miterlimit:10;}
	.st5{fill:#1E88C8;stroke:#5E5A5A;stroke-width:4;stroke-linecap:round;stroke-miterlimit:10;}
</style>
<path class="st0" d="M421,276.3H29.7c-1.1,0-2-0.9-2-2V21c0-1.1,0.9-2,2-2H421c1.1,0,2,0.9,2,2v253.4
	C423,275.5,422.1,276.3,421,276.3z"/>
<rect x="53.2" y="79.5" class="st1" width="100" height="80.7"/>
<rect x="172.3" y="79.5" class="st1" width="100" height="80.7"/>
<line class="st2" x1="53.2" y1="79.5" x2="153.2" y2="160.2"/>
<line class="st2" x1="153.2" y1="79.5" x2="53.2" y2="160.2"/>
<line class="st2" x1="172.3" y1="79.5" x2="272.3" y2="160.2"/>
<line class="st2" x1="272.3" y1="79.5" x2="172.3" y2="160.2"/>
<line class="st3" x1="51.7" y1="51" x2="397.7" y2="51"/>
<line class="st4" x1="52.7" y1="194" x2="275.7" y2="194"/>
<line class="st4" x1="52.7" y1="222" x2="243.7" y2="222"/>
<line class="st4" x1="52.7" y1="249" x2="262.7" y2="249"/>
<line class="st5" x1="299.7" y1="79" x2="397.7" y2="79"/>
<line class="st5" x1="299.7" y1="105" x2="390.7" y2="105"/>
<line class="st5" x1="299.7" y1="129" x2="379.7" y2="129"/>
<line class="st5" x1="299.7" y1="167" x2="397.7" y2="167"/>
<line class="st5" x1="299.7" y1="194" x2="386.7" y2="194"/>
<line class="st5" x1="299.7" y1="222" x2="390.7" y2="222"/>
<line class="st5" x1="299.7" y1="249" x2="369.7" y2="249"/>
</svg>
