<?xml version="1.0" encoding="utf-8"?>
<!-- Generator: Adobe Illustrator 20.0.0, SVG Export Plug-In . SVG Version: 6.00 Build 0)  -->
<svg version="1.1" id="Layer_10" xmlns="http://www.w3.org/2000/svg" xmlns:xlink="http://www.w3.org/1999/xlink" x="0px" y="0px"
	 viewBox="0 0 450.7 295.3" style="enable-background:new 0 0 450.7 295.3;" xml:space="preserve">
<style type="text/css">
	.st0{fill:#5E5A5A;}
	.st1{fill:#E6E6E6;}
	.st2{fill:#1D917E;}
	.st3{fill:#93D4FA;}
</style>
<g>
	<path class="st0" d="M418.3,268.7H39c-2.8,0-5-2.2-5-5V24.3c0-2.8,2.2-5,5-5h379.3c2.8,0,5,2.2,5,5v239.3
		C423.3,266.4,421.1,268.7,418.3,268.7z"/>
</g>
<g>
	<path class="st1" d="M67.8,88.2v1.5H52.1v-1.5h7.3V68h-5.3v-1.1c1.2-0.2,2.3-0.4,3.2-0.6c0.9-0.3,1.8-0.5,2.5-0.9H61v22.8H67.8z"/>
	<path class="st2" d="M101.2,86.3c0-1.1,0.4-2,1.1-2.8c0.7-0.7,1.6-1.1,2.7-1.1c1.1,0,2,0.4,2.7,1.1c0.7,0.7,1.1,1.6,1.1,2.8
		s-0.4,2-1.1,2.8c-0.7,0.7-1.6,1.1-2.7,1.1c-1.1,0-2-0.4-2.7-1.1C101.6,88.3,101.2,87.4,101.2,86.3z"/>
	<path class="st2" d="M119.5,62.8h4.4v6.9l-0.2,3.3c0.8-0.8,1.7-1.4,2.7-1.8c1-0.4,2-0.7,3-0.7c1.2,0,2.3,0.2,3.2,0.7
		c0.9,0.4,1.7,1.1,2.4,1.9c0.7,0.8,1.2,1.8,1.5,3c0.3,1.2,0.5,2.5,0.5,3.9c0,1.6-0.2,3-0.7,4.3s-1.1,2.3-1.8,3.2
		c-0.8,0.9-1.7,1.5-2.7,2c-1,0.5-2,0.7-3.1,0.7c-0.9,0-1.8-0.2-2.8-0.6c-1-0.4-1.8-1.1-2.7-1.9h-0.1l-0.4,2.1h-3.5V62.8z
		 M123.9,84.8c0.7,0.6,1.4,1.1,2.1,1.3c0.7,0.3,1.4,0.4,2,0.4c1.3,0,2.4-0.5,3.3-1.6c0.9-1.1,1.3-2.7,1.3-4.8c0-1.9-0.3-3.3-1-4.4
		c-0.7-1-1.8-1.6-3.3-1.6c-0.7,0-1.4,0.2-2.2,0.5c-0.7,0.4-1.5,0.9-2.2,1.7V84.8z"/>
	<path class="st2" d="M141.2,80.3c0-1.5,0.3-2.9,0.8-4.1c0.5-1.2,1.2-2.2,2.1-3.1c0.9-0.8,1.9-1.5,3-1.9c1.1-0.4,2.3-0.7,3.5-0.7
		c1.2,0,2.4,0.2,3.5,0.7c1.1,0.4,2.1,1.1,3,1.9c0.9,0.8,1.6,1.9,2.1,3.1c0.5,1.2,0.8,2.6,0.8,4.1c0,1.5-0.3,2.9-0.8,4.1
		c-0.5,1.2-1.2,2.2-2.1,3.1c-0.9,0.8-1.9,1.5-3,1.9c-1.1,0.4-2.3,0.6-3.5,0.6c-1.2,0-2.4-0.2-3.5-0.6c-1.1-0.4-2.1-1.1-3-1.9
		s-1.6-1.9-2.1-3.1C141.5,83.3,141.2,81.9,141.2,80.3z M145.7,80.3c0,1.9,0.4,3.4,1.3,4.5c0.9,1.1,2.1,1.7,3.6,1.7s2.7-0.6,3.6-1.7
		c0.9-1.1,1.3-2.6,1.3-4.5c0-1.9-0.4-3.4-1.3-4.5c-0.9-1.1-2.1-1.7-3.6-1.7s-2.7,0.6-3.6,1.7C146.2,76.9,145.7,78.4,145.7,80.3z"/>
	<path class="st2" d="M164,80.3c0-1.5,0.2-2.9,0.7-4.1c0.5-1.2,1.1-2.2,1.8-3.1c0.8-0.8,1.7-1.5,2.6-1.9c1-0.5,2-0.7,3.1-0.7
		c1.1,0,2.1,0.2,2.9,0.6c0.8,0.4,1.6,0.9,2.3,1.6l-0.2-3.2v-6.8h4.4v26.8h-3.6l-0.3-2.2h-0.1c-0.7,0.7-1.6,1.4-2.6,1.9
		c-1,0.5-2,0.8-3.1,0.8c-1.2,0-2.3-0.2-3.3-0.7c-1-0.4-1.8-1.1-2.5-1.9c-0.7-0.8-1.2-1.9-1.6-3.1C164.2,83.3,164,81.9,164,80.3z
		 M168.5,80.3c0,2,0.4,3.6,1.2,4.6c0.8,1.1,1.9,1.6,3.3,1.6c1.5,0,3-0.7,4.2-2.2v-8.4c-0.7-0.6-1.3-1.1-2-1.3
		c-0.7-0.3-1.3-0.4-2-0.4c-0.7,0-1.3,0.1-1.8,0.4c-0.6,0.3-1.1,0.7-1.5,1.2c-0.4,0.5-0.8,1.2-1,1.9
		C168.7,78.4,168.5,79.3,168.5,80.3z"/>
	<path class="st2" d="M188.9,93.7c0.3,0.1,0.5,0.1,0.8,0.1c1.2,0,2.1-0.3,2.9-0.9c0.7-0.6,1.3-1.4,1.6-2.3l0.5-1.2L186.3,71h4.4
		l3.8,9.2c0.4,0.8,0.7,1.7,1,2.7c0.3,0.9,0.7,1.9,1,2.8h0.2c0.3-0.9,0.6-1.8,0.9-2.7c0.3-0.9,0.6-1.8,0.9-2.7L202,71h4.1l-7.8,19.5
		c-0.4,1.1-0.9,2-1.3,2.9c-0.5,0.8-1.1,1.6-1.7,2.1c-0.7,0.6-1.4,1.1-2.3,1.4c-0.9,0.3-1.8,0.5-3,0.5c-0.5,0-1,0-1.4-0.1
		c-0.5-0.1-0.9-0.2-1.2-0.3l0.8-3.4C188.4,93.6,188.7,93.7,188.9,93.7z"/>
	<path class="st2" d="M239.7,90.2c0-0.7,0-1.3,0.1-1.9c0-0.6,0.1-1.1,0.1-1.7c0.1-0.5,0.1-1.1,0.1-1.6c0-0.5,0.1-1.1,0.1-1.8
		c0-0.3-0.1-0.7-0.2-1c-0.2-0.3-0.4-0.6-0.8-0.9c-0.4-0.3-1-0.5-1.7-0.7c-0.7-0.2-1.6-0.3-2.6-0.3v-2.7c1.1,0,1.9-0.1,2.6-0.3
		c0.7-0.2,1.2-0.4,1.7-0.7c0.4-0.3,0.7-0.6,0.8-0.9c0.2-0.3,0.2-0.7,0.2-1c0-1.2-0.1-2.3-0.2-3.4c-0.1-1.1-0.2-2.2-0.2-3.6
		c0-1,0.1-1.9,0.4-2.5c0.3-0.7,0.7-1.2,1.3-1.6c0.6-0.4,1.3-0.7,2.2-0.9c0.9-0.2,1.9-0.2,3.2-0.2h2.6v2.4h-1.7
		c-0.9,0-1.6,0.1-2.2,0.2c-0.6,0.1-1,0.3-1.3,0.5c-0.3,0.2-0.5,0.6-0.6,1c-0.1,0.4-0.2,0.9-0.2,1.4c0,1.1,0,2.1,0.1,3.2
		s0.1,2.2,0.1,3.3c0,1.3-0.3,2.3-0.8,3c-0.5,0.6-1.5,1.1-2.8,1.3v0.2c1.3,0.2,2.3,0.7,2.8,1.3c0.5,0.6,0.8,1.6,0.8,3
		c0,1.2,0,2.3-0.1,3.3c-0.1,1-0.1,2.1-0.1,3.2c0,0.6,0.1,1.1,0.2,1.4c0.1,0.4,0.3,0.7,0.6,0.9c0.3,0.2,0.8,0.4,1.3,0.5
		c0.6,0.1,1.3,0.2,2.2,0.2h1.7v2.4h-2.6c-1.2,0-2.3-0.1-3.2-0.2c-0.9-0.2-1.6-0.4-2.2-0.9c-0.6-0.4-1-0.9-1.3-1.6
		C239.8,92,239.7,91.2,239.7,90.2z"/>
	<path class="st1" d="M51.1,152.6c2.2-2,4.2-3.8,5.9-5.4c1.7-1.6,3.1-3.1,4.2-4.4c1.1-1.3,1.9-2.6,2.5-3.7c0.6-1.1,0.8-2.2,0.8-3.3
		c0-0.8-0.1-1.5-0.3-2.1c-0.2-0.7-0.6-1.2-1.1-1.7c-0.5-0.5-1.1-0.9-1.9-1.1c-0.8-0.3-1.7-0.4-2.7-0.4c-1.3,0-2.4,0.3-3.5,0.9
		c-1.1,0.6-2,1.4-2.9,2.3l-1.1-1.1c1-1,2.1-1.9,3.3-2.5c1.2-0.7,2.6-1,4.3-1c2.4,0,4.2,0.6,5.5,1.9c1.3,1.2,2,2.9,2,4.9
		c0,1.2-0.3,2.4-0.9,3.6c-0.6,1.2-1.4,2.5-2.5,3.8s-2.4,2.7-3.9,4.3c-1.5,1.5-3.3,3.1-5.2,4.9c0.8-0.1,1.5-0.1,2.3-0.1
		c0.8,0,1.5-0.1,2.3-0.1h9.3v1.5H51.1V152.6z"/>
	<path class="st3" d="M145.6,144.3c0-1.5,0.3-2.9,0.9-4.1c0.6-1.2,1.3-2.2,2.3-3.1c1-0.8,2.1-1.5,3.4-1.9c1.3-0.4,2.6-0.7,4.1-0.7
		c1.5,0,2.9,0.3,4,0.8c1.2,0.5,2.1,1.1,2.9,1.9l-2.1,2.7c-0.7-0.6-1.5-1-2.2-1.3c-0.7-0.3-1.5-0.5-2.4-0.5c-1.9,0-3.4,0.6-4.6,1.7
		c-1.2,1.1-1.7,2.6-1.7,4.5c0,0.9,0.2,1.8,0.5,2.5c0.3,0.8,0.7,1.4,1.3,2c0.5,0.5,1.2,1,2,1.3c0.8,0.3,1.6,0.4,2.5,0.4
		c1.1,0,2-0.2,2.9-0.6c0.9-0.4,1.7-0.9,2.4-1.4l1.8,2.8c-1.1,0.9-2.3,1.6-3.6,2.1c-1.3,0.5-2.6,0.7-4,0.7c-1.5,0-2.8-0.2-4.1-0.6
		c-1.3-0.4-2.3-1.1-3.3-1.9c-0.9-0.8-1.6-1.9-2.2-3.1C145.8,147.3,145.6,145.9,145.6,144.3z"/>
	<path class="st3" d="M167.6,144.3c0-1.5,0.3-2.9,0.8-4.1c0.5-1.2,1.2-2.2,2.1-3.1c0.9-0.8,1.9-1.5,3-1.9c1.1-0.4,2.3-0.7,3.5-0.7
		c1.2,0,2.4,0.2,3.5,0.7c1.1,0.4,2.1,1.1,3,1.9c0.9,0.8,1.6,1.9,2.1,3.1c0.5,1.2,0.8,2.6,0.8,4.1c0,1.5-0.3,2.9-0.8,4.1
		c-0.5,1.2-1.2,2.2-2.1,3.1c-0.9,0.8-1.9,1.5-3,1.9c-1.1,0.4-2.3,0.6-3.5,0.6c-1.2,0-2.4-0.2-3.5-0.6c-1.1-0.4-2.1-1.1-3-1.9
		s-1.6-1.9-2.1-3.1C167.9,147.3,167.6,145.9,167.6,144.3z M172.1,144.3c0,1.9,0.4,3.4,1.3,4.5c0.9,1.1,2.1,1.7,3.6,1.7
		s2.7-0.6,3.6-1.7c0.9-1.1,1.3-2.6,1.3-4.5c0-1.9-0.4-3.4-1.3-4.5c-0.9-1.1-2.1-1.7-3.6-1.7s-2.7,0.6-3.6,1.7
		C172.6,140.9,172.1,142.4,172.1,144.3z"/>
	<path class="st3" d="M191.1,126.8h10.3v20.3c0,1.3,0.3,2.2,1,2.7c0.6,0.5,1.4,0.8,2.4,0.8c0.9,0,2-0.2,3.2-0.7l1,3.2
		c-0.9,0.3-1.7,0.6-2.5,0.8c-0.8,0.2-1.7,0.3-2.8,0.3c-2.2,0-3.9-0.6-5-1.9c-1.1-1.3-1.7-3.1-1.7-5.4v-16.6h-5.9V126.8z"/>
	<path class="st3" d="M213.2,144.3c0-1.5,0.3-2.9,0.8-4.1c0.5-1.2,1.2-2.2,2.1-3.1c0.9-0.8,1.9-1.5,3-1.9c1.1-0.4,2.3-0.7,3.5-0.7
		s2.4,0.2,3.5,0.7c1.1,0.4,2.1,1.1,3,1.9c0.9,0.8,1.6,1.9,2.1,3.1c0.5,1.2,0.8,2.6,0.8,4.1c0,1.5-0.3,2.9-0.8,4.1s-1.2,2.2-2.1,3.1
		s-1.9,1.5-3,1.9c-1.1,0.4-2.3,0.6-3.5,0.6s-2.4-0.2-3.5-0.6c-1.1-0.4-2.1-1.1-3-1.9s-1.6-1.9-2.1-3.1
		C213.5,147.3,213.2,145.9,213.2,144.3z M217.7,144.3c0,1.9,0.4,3.4,1.3,4.5c0.9,1.1,2.1,1.7,3.6,1.7s2.7-0.6,3.6-1.7
		c0.9-1.1,1.3-2.6,1.3-4.5c0-1.9-0.4-3.4-1.3-4.5c-0.9-1.1-2.1-1.7-3.6-1.7s-2.7,0.6-3.6,1.7C218.2,140.9,217.7,142.4,217.7,144.3z"
		/>
	<path class="st3" d="M238.9,135h3.6l0.4,4.2h0.1c1-1.5,2.1-2.7,3.5-3.5c1.4-0.8,2.8-1.2,4.5-1.2c0.8,0,1.4,0.1,2,0.2
		c0.5,0.1,1.1,0.3,1.7,0.6l-0.9,3.7c-0.6-0.2-1.1-0.3-1.6-0.4c-0.5-0.1-1.1-0.1-1.8-0.1c-1.3,0-2.5,0.4-3.7,1.1
		c-1.2,0.7-2.3,2-3.2,3.8v10.3h-4.4V135z"/>
	<path class="st3" d="M264.4,137.4c0-1.1,0.4-2,1.1-2.8c0.7-0.7,1.6-1.1,2.7-1.1c1.1,0,2,0.4,2.7,1.1c0.7,0.7,1.1,1.6,1.1,2.8
		s-0.4,2-1.1,2.8c-0.7,0.7-1.6,1.1-2.7,1.1c-1.1,0-2-0.4-2.7-1.1C264.8,139.4,264.4,138.5,264.4,137.4z M264.4,150.3
		c0-1.1,0.4-2,1.1-2.8c0.7-0.7,1.6-1.1,2.7-1.1c1.1,0,2,0.4,2.7,1.1c0.7,0.7,1.1,1.6,1.1,2.8s-0.4,2-1.1,2.8s-1.6,1.1-2.7,1.1
		c-1.1,0-2-0.4-2.7-1.1C264.8,152.3,264.4,151.4,264.4,150.3z"/>
	<path class="st3" d="M308.3,146.2h-2.9v-2.9h3.3l0.6-4.9h-3.1v-2.9h3.5l0.9-6.6h2.6l-0.8,6.6h4.5l0.8-6.6h2.6l-0.8,6.6h3v2.9H319
		l-0.6,4.9h3.2v2.9h-3.5l-0.9,7.4h-2.7l0.9-7.4h-4.5l-0.9,7.4h-2.7L308.3,146.2z M315.8,143.4l0.6-4.9h-4.5l-0.6,4.9H315.8z"/>
	<path class="st3" d="M346.4,130.6c-0.7-0.3-1.3-0.5-2-0.6c-0.6-0.1-1.3-0.2-2.1-0.2c-1.4,0-2.5,0.3-3.1,1c-0.6,0.7-1,1.7-1,3v1.1
		h7.1v3.5h-7.1v15.2h-4.3v-15.2h-5.2v-3.3l5.2-0.2v-1c0-1.1,0.2-2.1,0.5-3c0.3-0.9,0.8-1.7,1.4-2.4c0.6-0.7,1.5-1.2,2.5-1.6
		c1-0.4,2.2-0.6,3.6-0.6c1,0,2,0.1,2.9,0.3c0.9,0.2,1.8,0.4,2.6,0.8L346.4,130.6z"/>
	<path class="st3" d="M369.2,130.6c-0.7-0.3-1.3-0.5-2-0.6c-0.6-0.1-1.3-0.2-2.1-0.2c-1.4,0-2.5,0.3-3.1,1c-0.6,0.7-1,1.7-1,3v1.1
		h7.1v3.5H361v15.2h-4.3v-15.2h-5.2v-3.3l5.2-0.2v-1c0-1.1,0.2-2.1,0.5-3c0.3-0.9,0.8-1.7,1.4-2.4c0.6-0.7,1.5-1.2,2.5-1.6
		c1-0.4,2.2-0.6,3.6-0.6c1,0,2,0.1,2.9,0.3c0.9,0.2,1.8,0.4,2.6,0.8L369.2,130.6z"/>
	<path class="st3" d="M392,130.6c-0.7-0.3-1.3-0.5-2-0.6c-0.6-0.1-1.3-0.2-2.1-0.2c-1.4,0-2.5,0.3-3.1,1c-0.6,0.7-1,1.7-1,3v1.1h7.1
		v3.5h-7.1v15.2h-4.3v-15.2h-5.2v-3.3l5.2-0.2v-1c0-1.1,0.2-2.1,0.5-3c0.3-0.9,0.8-1.7,1.4-2.4c0.6-0.7,1.5-1.2,2.5-1.6
		c1-0.4,2.2-0.6,3.6-0.6c1,0,2,0.1,2.9,0.3c0.9,0.2,1.8,0.4,2.6,0.8L392,130.6z"/>
	<path class="st3" d="M400.8,159.2c3.2-1.3,4.8-3.2,4.9-5.9c-0.1,0-0.3,0-0.5,0c-1,0-1.8-0.3-2.5-0.9c-0.7-0.6-1.1-1.4-1.1-2.5
		c0-1.1,0.4-1.9,1.1-2.5c0.7-0.6,1.6-0.9,2.6-0.9c1.4,0,2.4,0.5,3.1,1.5s1,2.4,1,4.2c0,2.3-0.6,4.3-1.9,5.9
		c-1.3,1.6-3.1,2.8-5.5,3.6L400.8,159.2z M401.2,137.4c0-1.1,0.4-2,1.1-2.8c0.7-0.7,1.6-1.1,2.7-1.1c1.1,0,2,0.4,2.7,1.1
		c0.7,0.7,1.1,1.6,1.1,2.8s-0.4,2-1.1,2.8c-0.7,0.7-1.6,1.1-2.7,1.1c-1.1,0-2-0.4-2.7-1.1C401.6,139.4,401.2,138.5,401.2,137.4z"/>
	<path class="st1" d="M51.5,213.5c0.8,0.8,1.8,1.5,3,2.2c1.2,0.6,2.7,0.9,4.6,0.9c0.9,0,1.8-0.1,2.6-0.4c0.8-0.3,1.5-0.6,2.1-1.1
		c0.6-0.5,1-1,1.4-1.7c0.3-0.7,0.5-1.4,0.5-2.2c0-1.7-0.8-3-2.3-4.1c-1.5-1-4-1.6-7.4-1.6v-1.5c1.6,0,2.9-0.1,4-0.4
		c1.1-0.3,2-0.7,2.7-1.1c0.7-0.5,1.2-1,1.5-1.7c0.3-0.6,0.5-1.3,0.5-2.1c0-1.4-0.5-2.5-1.6-3.3c-1.1-0.8-2.5-1.2-4.2-1.2
		c-1.3,0-2.5,0.3-3.6,0.8c-1.1,0.5-2.1,1.1-2.8,1.9l-1-1.1c0.9-0.8,2-1.5,3.2-2.1c1.3-0.6,2.7-0.9,4.2-0.9c1,0,2,0.1,2.9,0.4
		c0.9,0.3,1.7,0.6,2.4,1.1c0.7,0.5,1.2,1.1,1.6,1.8c0.4,0.7,0.6,1.6,0.6,2.5c0,0.8-0.1,1.5-0.4,2.2s-0.7,1.2-1.2,1.7
		c-0.5,0.5-1.1,0.9-1.7,1.3c-0.7,0.4-1.4,0.6-2.2,0.9v0.2c0.8,0.2,1.6,0.4,2.4,0.8c0.8,0.4,1.5,0.8,2.1,1.3c0.6,0.5,1.1,1.1,1.4,1.8
		c0.4,0.7,0.5,1.5,0.5,2.3c0,1.1-0.2,2-0.6,2.9c-0.4,0.8-1,1.6-1.8,2.2c-0.7,0.6-1.6,1.1-2.6,1.4c-1,0.3-2.1,0.5-3.3,0.5
		c-1.1,0-2-0.1-2.9-0.3c-0.9-0.2-1.6-0.5-2.3-0.8c-0.7-0.3-1.3-0.7-1.9-1.1c-0.6-0.4-1-0.8-1.4-1.2L51.5,213.5z"/>
	<path class="st2" d="M99.2,221c0.9,0,1.6-0.1,2.1-0.2c0.6-0.1,1-0.3,1.3-0.5c0.3-0.2,0.6-0.6,0.7-0.9c0.1-0.4,0.2-0.9,0.2-1.4
		c0-1.1,0-2.2-0.1-3.2c-0.1-1-0.1-2.1-0.1-3.3c0-1.3,0.3-2.3,0.8-3c0.5-0.6,1.5-1.1,2.8-1.3V207c-1.4-0.2-2.3-0.7-2.8-1.3
		c-0.5-0.6-0.8-1.6-0.8-3c0-1.2,0-2.3,0.1-3.3c0.1-1.1,0.1-2.1,0.1-3.2c0-0.6-0.1-1-0.2-1.4c-0.1-0.4-0.3-0.7-0.7-1
		c-0.3-0.2-0.8-0.4-1.3-0.5c-0.6-0.1-1.3-0.2-2.1-0.2h-1.7v-2.4h2.6c1.2,0,2.3,0.1,3.1,0.2c0.9,0.2,1.6,0.5,2.2,0.9
		c0.6,0.4,1,0.9,1.3,1.6c0.3,0.7,0.4,1.5,0.4,2.5c0,1.3-0.1,2.5-0.2,3.6c-0.1,1.1-0.2,2.2-0.2,3.4c0,0.4,0.1,0.7,0.2,1
		s0.4,0.6,0.8,0.9c0.4,0.3,1,0.5,1.7,0.7c0.7,0.2,1.6,0.3,2.6,0.3v2.7c-1.1,0-1.9,0.1-2.6,0.3c-0.7,0.2-1.2,0.4-1.7,0.7
		c-0.4,0.3-0.7,0.6-0.8,0.9c-0.2,0.3-0.2,0.7-0.2,1c0,0.6,0,1.2,0.1,1.8c0,0.5,0.1,1.1,0.1,1.6s0.1,1.1,0.1,1.7
		c0,0.6,0.1,1.2,0.1,1.9c0,1-0.1,1.9-0.4,2.5s-0.7,1.2-1.3,1.6c-0.6,0.4-1.3,0.7-2.2,0.9c-0.9,0.2-1.9,0.2-3.1,0.2h-2.6V221H99.2z"
		/>
</g>
</svg>
