<?xml version="1.0" encoding="utf-8"?>
<!-- Generator: Adobe Illustrator 20.0.0, SVG Export Plug-In . SVG Version: 6.00 Build 0)  -->
<svg version="1.1" id="Layer_7" xmlns="http://www.w3.org/2000/svg" xmlns:xlink="http://www.w3.org/1999/xlink" x="0px" y="0px"
	 viewBox="0 0 450.7 295.3" style="enable-background:new 0 0 450.7 295.3;" xml:space="preserve">
<style type="text/css">
	.st0{fill:#FFFFFF;}
	.st1{fill:#E6E6E6;}
	.st2{fill:#93D4FA;}
	.st3{fill:#B3B3B3;}
	.st4{fill:#1C9480;}
	.st5{fill:#808080;}
</style>
<g>
	<path class="st0" d="M11.7,271.3V26c0-1.1,0.9-2,2-2H317c1.1,0,2,0.9,2,2v245.3H11.7z"/>
	<path class="st1" d="M317,25c0.6,0,1,0.4,1,1v244.3H12.7V26c0-0.6,0.4-1,1-1H317 M317,23H13.7c-1.7,0-3,1.3-3,3v246.3H320V26
		C320,24.3,318.7,23,317,23L317,23z"/>
</g>
<path class="st1" d="M320,62.8H10.7V26c0-1.7,1.3-3,3-3H317c1.7,0,3,1.3,3,3V62.8z"/>
<rect x="29.2" y="74.8" class="st2" width="272.3" height="23"/>
<rect x="29.2" y="229.8" class="st2" width="272.3" height="23"/>
<path class="st3" d="M40.7,40.3l2-9.3c0-1.1,0.9-2,2-2h50.7c1.1,0,2,0.9,2,2l2,9.3"/>
<path class="st3" d="M103.7,40.3l2-9.3c0-1.1,0.9-2,2-2h50.7c1.1,0,2,0.9,2,2l2,9.3"/>
<g>
	<path class="st4" d="M158.3,113.7V212H31.2v-98.3H158.3 M160.3,111.7H29.2V214h131.1V111.7L160.3,111.7z"/>
</g>
<g>
	<path class="st4" d="M299.5,113.7V212H172.2v-98.3H299.5 M301.5,111.7H170.2V214h131.3V111.7L301.5,111.7z"/>
</g>
<rect x="11.2" y="39.8" class="st5" width="308.8" height="23"/>
<path class="st0" d="M299.5,57.5H31.2c-1.1,0-2-0.9-2-2V48c0-1.1,0.9-2,2-2h268.3c1.1,0,2,0.9,2,2v7.5
	C301.5,56.6,300.6,57.5,299.5,57.5z"/>
<path class="st5" d="M410.7,277h-92.5c-2.2,0-4-1.8-4-4V101c0-2.2,1.8-4,4-4h92.5c2.2,0,4,1.8,4,4v172
	C414.7,275.2,412.9,277,410.7,277z"/>
<rect x="322.7" y="118.8" class="st0" width="83.5" height="135.7"/>
<g>
	<path class="st4" d="M358.7,138.7V160h-28.5v-21.3H358.7 M360.7,136.7h-32.5V162h32.5V136.7L360.7,136.7z"/>
</g>
<g>
	<path class="st4" d="M397.7,138.7V160h-28.5v-21.3H397.7 M399.7,136.7h-32.5V162h32.5V136.7L399.7,136.7z"/>
</g>
<g>
	<path class="st4" d="M358.7,172.7V194h-28.5v-21.3H358.7 M360.7,170.7h-32.5V196h32.5V170.7L360.7,170.7z"/>
</g>
<g>
	<path class="st4" d="M397.7,172.7V194h-28.5v-21.3H397.7 M399.7,170.7h-32.5V196h32.5V170.7L399.7,170.7z"/>
</g>
<rect x="328.2" y="206.3" class="st2" width="71.5" height="11.5"/>
<rect x="328.2" y="226.3" class="st2" width="71.5" height="11.5"/>
</svg>
