<?xml version="1.0" encoding="utf-8"?>
<!-- Generator: Adobe Illustrator 20.0.0, SVG Export Plug-In . SVG Version: 6.00 Build 0)  -->
<svg version="1.1" id="Layer_8" xmlns="http://www.w3.org/2000/svg" xmlns:xlink="http://www.w3.org/1999/xlink" x="0px" y="0px"
	 viewBox="0 0 450.7 295.3" style="enable-background:new 0 0 450.7 295.3;" xml:space="preserve">
<style type="text/css">
	.st0{fill:#EFEFEF;}
	.st1{fill:#E1BAE5;}
	.st2{fill:#8C8C8C;}
	.st3{fill:#FFFFFF;}
	.st4{fill:#1C9480;}
	.st5{fill:#9F2EA1;}
	.st6{opacity:0.62;fill:#9F2EA1;}
	.st7{fill:#9F2EA1;stroke:#9F2EA1;stroke-miterlimit:10;}
	.st8{fill:#B7B7B7;stroke:#CCCCCC;stroke-width:4;stroke-miterlimit:10;}
	.st9{fill:#B7B7B7;}
</style>
<path class="st0" d="M423.3,93.4H22.2V19.7c0-1.7,1.3-3,3-3h398.1V93.4z"/>
<path class="st1" d="M81.6,94.2l8.4-30c0-3.5,2.9-6.4,6.4-6.4h163c3.5,0,6.4,2.9,6.4,6.4l8.4,30"/>
<rect x="22.2" y="93.2" class="st2" width="401.1" height="186.4"/>
<path class="st3" d="M423.3,213.4H53.4c-1.1,0-2-0.9-2-2v-89.2c0-1.1,0.9-2,2-2h369.9V213.4z"/>
<g>
	<path class="st4" d="M77.9,170c-0.3,1.1-0.4,1.9-0.4,2.4c0,0.5,0,0.8,0.1,1s0.2,0.3,0.2,0.3c0.1,0,0.2,0,0.4,0
		c1.3,0,2.8-1.4,4.6-4.2c0.8-1.2,1.2-1.9,1.2-2.1s0.1-0.4,0.4-0.7c0.3-0.4,0.6-0.7,0.9-0.9c0.3-0.2,0.7,0,1.1,0.4
		c0.2,0.2,0.2,0.6,0.2,1.3c-0.1,0.5-0.4,1.1-0.7,1.9c-0.3,0.8-0.6,1.2-0.8,1.5c-0.5,0.4-0.9,0.9-1.3,1.5c-0.7,0.9-1.3,1.5-1.6,1.7
		c-0.3,0.3-0.5,0.4-0.6,0.5c-0.8,0.8-1.7,1.4-2.7,1.6c-0.9,0.2-1.7,0.1-2.2-0.3c-0.8-0.4-1.2-1.1-1.2-2.2l-0.2-0.8
		c-0.4,0-0.8,0.3-1.1,0.8c-0.3,0.5-0.9,1.2-1.8,1.8c-0.9,0.7-1.6,1-2.1,1c-0.6,0-1.1-0.5-1.5-1.6c-0.4-1.1-0.5-2.2-0.4-3.5
		c0-0.9,0.1-1.7,0.3-2.6c0.2-0.8,0.3-1.3,0.3-1.4c0.3-1.9,0.6-3.1,1-3.5c0.2-0.2,0.5-0.3,0.8-0.3c0.8,0.1,1.2,0.8,1.1,2.2
		c-0.1,0.9-0.2,1.4-0.4,1.8c-0.1,0.1-0.2,0.8-0.3,2c-0.1,1.2-0.2,2-0.3,2.3c-0.1,0.9,0,1.3,0.5,1.4c0.6,0.1,1.4-0.7,2.6-2.4
		c1.1-1.6,1.9-3.1,2.4-4.4c0.5-1.3,0.8-2,0.9-2.1c0.4-0.3,0.9-0.2,1.5,0.2c0.6,0.6,0.6,1.5,0,2.8C78.5,168,78.2,168.8,77.9,170z"/>
	<path class="st4" d="M91.7,164.1l0.2-1.2c0-0.2,0.1-0.5,0.4-0.8c0.4-0.2,0.8-0.1,1.4,0.4c0.4,0.4,0.6,0.7,0.6,0.9
		c0,0.2-0.2,0.8-0.6,1.8c-0.9,2-1.6,3.9-2,5.9c-0.1,0.1-0.2,0.2-0.2,0.4s0,0.4-0.1,0.7s-0.1,0.7-0.2,1s0,0.6,0.2,0.7
		s0.4,0.1,0.7-0.1c0-0.1,0.1-0.1,0.3-0.3c0.5-0.4,0.8-0.8,1-1.1c0.1-0.3,0.3-0.6,0.5-0.7c0.2-0.2,0.3-0.3,0.3-0.5s0.4-0.8,1.2-1.9
		c0.9-1.5,1.4-2.5,1.7-2.8c0.3-0.4,0.5-0.6,0.5-0.8c0.1-0.2,0.1-0.3,0.2-0.4c0-0.1,0-0.1,0-0.1c0.1-0.1,0.1-0.2,0.2-0.2
		s0.1,0,0.1-0.1c0,0,0.1,0,0.2,0h0.2c0.4,0,0.6,0.1,0.7,0.2c0.1,0.1,0.2,0.3,0.2,0.4c0.3,0.3,0.4,0.7,0.4,1.2l-0.2,0.6
		c0,0.5-0.2,1.1-0.6,1.9c-0.3,1.4-0.6,2.8-0.7,4.3c-0.1,1.5,0,2.3,0.1,2.4c0.2,0.1,0.5-0.1,0.9-0.6c0.4-0.5,0.8-1.1,1.2-1.6
		c0.4-0.5,0.7-1,0.9-1.3c0.6-0.7,1-1.3,1.2-1.8c0-0.1,0.2-0.5,0.5-1.2c0.3-0.7,0.5-1.1,0.5-1.2s0.1-0.3,0.2-0.5
		c0.4-0.7,0.8-1.4,1.1-2c0.2-0.7,0.6-1.2,1.1-1.4c0.6-0.2,0.9,0,0.9,0.5c0,0.1,0,0.2,0,0.3c-0.2,1.3-0.7,2.9-1.6,4.8
		c-0.8,1.9-1.7,3.6-2.7,5.1c-0.2,0.2-0.4,0.4-0.6,0.6s-0.2,0.4-0.2,0.5s-0.2,0.3-0.7,0.7c-0.5,0.4-1,0.7-1.4,1.1
		c-0.6,0.5-1.3,0.6-2,0.2c-0.6-0.3-1-0.8-1.2-1.5s-0.3-1.7-0.3-3.1v-1.9c-0.4,0.5-0.9,1.1-1.4,1.9c-0.6,1-1.1,1.9-1.8,2.7
		s-1.1,1.2-1.4,1.3c-0.3,0.1-0.8,0-1.4-0.2s-1-0.5-1.1-0.8c-0.1-0.3-0.1-1.1,0-2.5c0.1-1.4,0.2-2.3,0.5-2.7l0.1-0.4
		c0-0.1,0-0.1-0.1-0.2C90.7,167,91.4,164.8,91.7,164.1z"/>
	<path class="st4" d="M113.2,169.7l-0.1,2.8c0.1,0.6,0.2,0.9,0.2,1s0.1,0.1,0.1,0.1s0.1-0.1,0.2-0.1c0.3-0.1,1-1.3,2.3-3.4
		c1-1.5,1.6-2.4,1.9-2.8c0.1-0.8,0.3-1.7,0.4-2.8c0.8-0.8,1.4-0.9,1.7-0.2c0.5,0.2,0.7,0.6,0.5,1.3l-0.6,2.2c-0.2,0.6-0.2,1.6-0.3,3
		c0,1.4,0,2.3,0.1,2.7c0.1,0.4,0.2,0.6,0.3,0.7c0.2,0.1,0.6-0.1,1.2-0.5c0.6-0.6,1.3-1.5,2-2.5s1.1-1.7,1.1-1.9c0-0.5,0.2-1,0.6-1.3
		l0.6-1.6c-0.1-0.1,0-0.3,0.2-0.5c0.2-0.2,0.3-0.4,0.3-0.4c0.1-0.3,0.2-0.5,0.5-0.6c0.3-0.1,0.5,0,0.8,0.2c0.3,0.2,0.4,0.5,0.4,0.9
		c0,0.4-0.2,1.2-0.7,2.2c-0.5,1.1-1,2-1.5,2.9c-0.5,1-1,1.9-1.6,2.6c-0.6,0.8-1.1,1.3-1.5,1.6c-1,1.2-1.7,1.9-2.3,1.9
		c-0.4,0.1-1-0.4-1.8-1.3c-0.5-0.7-0.8-2.2-0.9-4.5c-2.1,3.2-3.8,5-5.1,5.4c-0.5,0.2-0.8,0-1.1-0.6s-0.4-1.2-0.4-2.1
		c-0.1-1.2-0.2-2.6-0.2-4.1c0-1.5,0-2.5,0.2-3l0-0.5c-0.1-0.2-0.1-0.7,0-1.6s0.2-1.4,0.3-1.5c0.1-0.2,0.2-0.3,0.6-0.4
		c0.4,0.1,0.6,0.2,0.6,0.5c0.2,0.2,0.4,0.3,0.5,0.3c0.2,0.1,0.2,0.9,0.2,2.2l0,1.4C113.1,168.1,113.1,168.8,113.2,169.7z"/>
	<path class="st4" d="M130,173.1c0.5-0.3,0.8-0.5,1.1-0.5s0.6,0.1,1.1,0.3c0.8,0.5,1.2,1.1,1.1,1.7c-0.1,0.6-0.6,1.2-1.6,1.6
		c-0.9,0.4-1.7,0.3-2.4-0.2C128.2,175.1,128.5,174.1,130,173.1z"/>
	<path class="st4" d="M138.6,163.7c-0.1-0.2-0.2-0.3-0.2-0.5s0.1-0.4,0.3-0.7c0.2-0.3,0.4-0.5,0.6-0.4c0.2,0,0.6,0,1.2,0
		s1-0.1,1.3-0.1c0.2-0.1,0.4-0.2,0.4-0.4c0.2-0.7,0.6-1.4,1-2.2c0.8-1.5,1.4-2.5,1.9-2.9c0.5-0.4,1.1-0.3,1.7,0.2
		c0.2,0.3,0.3,0.5,0.3,0.6c0,0.1-0.1,0.3-0.3,0.7c-0.2,0.4-0.5,0.9-0.8,1.5c-0.4,0.6-0.6,1-0.7,1.3c-0.5,0.6-0.5,1-0.2,1
		s1.1,0,2.4-0.2s2,0.2,2.1,1.1c0.1,0.6,0,1-0.2,1.2c-0.2,0.1-0.8,0.2-1.8,0.2c-0.9,0.1-1.7,0.2-2.4,0.2c-0.8,0-1.2,0-1.4,0.1
		c-0.3,0.1-0.6,0.3-0.8,0.8c-0.1,0.1-0.2,0.2-0.3,0.4c-0.2,0.3-0.5,0.9-1,1.9c-0.7,2.1-1.2,3.9-1.4,5.4c-0.2,1.5-0.3,2.3-0.1,2.6
		c0.1,0.3,0.6,0.4,1.4,0.5c1.4,0.2,2.8-0.2,4.4-1.2l1.1-0.6c0.3-0.4,0.5-0.3,0.8,0.4c0,0.3,0,0.5-0.1,0.7s-0.2,0.4-0.4,0.7
		c-0.3,0.3-0.6,0.6-1.2,0.9c-2,1.3-4,1.7-5.8,1.4c-0.4-0.1-0.9-0.4-1.3-0.9c-0.4-0.5-0.7-1-0.9-1.4l-0.2-0.3
		c-0.2-0.1-0.2-0.8-0.2-2.1c0.1-1.2,0.1-2.1,0.3-2.6c0.1-0.5,0.4-1.2,0.7-2.2s0.6-1.5,0.6-1.8l1.1-2.3l-1.6-0.4
		C138.9,163.9,138.8,163.8,138.6,163.7z"/>
	<path class="st4" d="M152.1,168.7c1.8-3,3.9-4.7,6.2-5.3c0.6-0.2,1-0.2,1.2-0.2c0.3,0,0.6,0.2,0.9,0.6c0.6,0.3,1.1,0.6,1.3,1
		c0.3,0.4,0.5,0.9,0.5,1.6c0.2,2.1-0.5,4.3-2.1,6.6c-0.6,0.9-1.2,1.6-1.7,2c-0.5,0.5-1.2,1-2.1,1.5c-1,0.7-2.1,1.1-3.1,1.2
		c-0.5,0-1-0.3-1.6-0.8c-1-1-1.4-2-1.3-3l0.1-0.9c-0.1-0.1-0.2-0.2-0.1-0.3c0.1-0.1,0.1-0.1,0.1-0.2c0.2,0,0.2-0.1,0.2-0.4
		c-0.1-0.3,0.1-0.7,0.3-1.5S151.7,169.3,152.1,168.7z M159.8,169c0.2-0.4,0.2-1,0.2-1.7c0-0.7-0.1-1.2-0.3-1.3
		c-0.7-0.4-1.6-0.2-2.6,0.6c-1.3,1.1-2.7,3.2-4,6.1c-0.6,1.3-0.5,2.3,0.1,2.8c0.8,0.7,2.1,0,4-2C158.3,172.1,159.2,170.6,159.8,169z
		"/>
	<path class="st4" d="M170.6,174.8c-0.5,0.3-0.9,0.5-1,0.5c-0.1,0-0.2,0.1-0.2,0.2s-0.3,0.3-1,0.5s-1.2,0.3-1.4,0.3
		s-0.5-0.1-0.8-0.4s-0.5-0.5-0.6-0.7c-0.1-0.2-0.2-0.4-0.4-0.7s-0.2-0.5-0.3-0.6c-0.3-0.7-0.3-1.3-0.1-1.8c0.3-1.2,0.9-2.9,1.6-5.1
		c0.8-2.2,1.3-3.6,1.7-4.2c0.2-0.3,0.5-0.5,0.8-0.4c0.3,0,0.6,0.2,0.9,0.6c0.3,0.4,0.4,0.7,0.3,1s-0.3,0.8-0.7,1.6
		c-0.1,0.3-0.2,0.7-0.4,1c-0.2,0.3-0.2,0.5-0.3,0.6s0,0.2-0.1,0.5c-0.2,0.9-0.3,1.3-0.5,1.3c-0.1,0.1-0.3,0.6-0.5,1.4
		c-0.5,2-0.6,3.1-0.3,3.3c1.6,0,3.3-1.2,5.1-3.5c0.1-0.7,0.4-1.7,0.7-3.1c0.3-1.4,0.6-2.6,0.8-3.5c0.2-0.4,0.3-0.6,0.4-0.7
		s0.3-0.1,0.6-0.1c0.3,0,0.5,0,0.6,0.1c0.1,0.1,0.3,0.2,0.5,0.5c0.3,0.5,0.4,1.1,0.3,1.8c-0.1,0.7-0.3,1.3-0.7,1.9s-0.8,2.1-1.2,4.6
		c-0.2,1-0.5,2.6-0.9,4.7c-0.4,1.1-0.7,1.9-0.8,2.4c-0.1,0.5-0.4,1.3-0.9,2.3c-2.1,4.3-4.7,6.6-7.9,6.8c-0.7,0.1-1.1,0.1-1.2,0
		c-0.1,0-0.4-0.2-0.9-0.4c-0.6-0.4-0.9-0.7-0.9-0.8c0-0.4,0.3-0.6,1-0.6c0.2,0.1,0.5,0.2,0.9,0.2c0.4,0,0.8-0.1,1-0.3
		c0.2-0.2,0.6-0.3,1.2-0.4c1.6-0.8,2.9-2.1,4-3.9c1-1.6,2-4.3,2.9-8l-0.5,0.5C171.5,174.3,171.2,174.5,170.6,174.8z"/>
	<path class="st4" d="M188.1,162.6c0.5,0.2,0.8,0.3,0.9,0.3c0.5,0.1,1,0.4,1.3,0.9c0.4,0.5,0.6,1.1,0.5,1.6c-0.1,0.5-0.2,1-0.5,1.3
		c-0.3,0.4-0.6,0.6-0.9,0.7c0.2,0,0-0.1-0.5-0.4l-0.1,0.1c0-0.1,0-0.2-0.1-0.4c-0.1-0.2-0.1-0.5-0.1-0.9c0.1-0.4,0.1-0.7,0-0.7
		c0-0.1-0.2-0.1-0.6-0.2c-0.3-0.1-0.9,0-1.6,0.3s-1.4,0.6-2.1,1.1c-1.4,0.9-2.3,1.9-2.8,2.9c-0.3,0.5-0.5,0.8-0.5,1
		c0,0.5,0.8,1.1,2.5,1.9c1.7,0.7,2.6,1.5,2.9,2.3c0.1,0.3,0.1,0.5,0,0.7c0,0,0.1,0.1,0.1,0.1c0.3,0.5,0.2,1-0.4,1.5
		c-0.5,0.5-1.3,0.8-2.3,1c-0.6,0.2-1.3,0.3-2,0.3c-1.3,0-2.3-0.5-2.9-1.4c-0.3-0.5-0.4-0.8-0.2-1.2s0.4-0.3,0.7,0.1
		c0.4,0.2,0.9,0.3,1.6,0.3s1.4-0.1,2.2-0.4c0.9-0.4,1.1-0.7,0.7-0.9c-1-0.3-2-0.8-3.1-1.5c-1-0.8-1.6-1.4-1.7-2.1
		c-0.4-1.6,0.1-3.2,1.5-4.8c0.8-0.5,1.3-0.8,1.6-0.8v0c0.7-0.7,2.1-1.4,4.2-2.2C187.5,162.7,187.9,162.6,188.1,162.6z"/>
	<path class="st4" d="M192.5,173.1c0.5-0.3,0.8-0.5,1.1-0.5s0.6,0.1,1.1,0.3c0.8,0.5,1.2,1.1,1.1,1.7c-0.1,0.6-0.6,1.2-1.6,1.6
		c-0.9,0.4-1.7,0.3-2.4-0.2C190.8,175.1,191,174.1,192.5,173.1z"/>
	<path class="st4" d="M210.3,168.3c-0.3,0.4-0.5,0.6-0.8,0.6s-0.4,0.1-0.4,0.2c0,0.2-0.2,0.3-0.5,0.1c-0.3-0.2-0.5-0.4-0.5-0.6
		s0-0.4,0-0.5s0.1-0.4,0.2-0.7c0.7-2.1,0.4-2.9-0.9-2.4c-2.2,1.3-3.9,3.9-4.9,8.1c-0.2,0.7-0.3,1.3-0.2,1.7c0.1,0.4,0.1,0.6,0.2,0.6
		c0.4,0.1,0.9,0.1,1.5,0.1c0.6-0.1,1.2-0.3,1.8-0.6c0.6-0.3,1.1-0.7,1.7-1.1c0.5-0.4,0.9-0.7,1.2-0.9s0.5-0.4,0.6-0.5
		c0.2-0.4,0.4-0.6,0.6-0.6c0.2,0,0.4,0,0.7,0c0.6,0.2,1,0.4,1,0.7c0,0.1-0.1,0.1-0.2,0.2l-0.2,0.2c0.1,0.2-0.4,0.8-1.4,1.8
		s-1.7,1.4-2,1.4c-0.3,0-0.4,0.1-0.4,0.2c0,0.1-0.4,0.4-1.2,0.7s-1.5,0.6-2,0.7c-1.2,0.2-2.2,0-3-0.6c-0.8-0.6-1.2-1.5-1.2-2.8
		c-0.1-1.2,0.2-2.6,0.8-4.4c0.6-1.7,1.5-3.3,2.7-4.7c1.2-1.4,2-2.2,2.7-2.5c0.6-0.3,1.3-0.4,2-0.4c0.5,0.1,1,0.3,1.4,0.6
		c0.5,0.3,0.7,0.6,0.7,0.9l0.2,0.2c0.2,0,0.4,0.4,0.6,1.1c0.1,0.7,0.1,1.3-0.1,1.7C210.8,167.5,210.6,167.9,210.3,168.3z"/>
	<path class="st4" d="M215.6,168.7c1.8-3,3.9-4.7,6.2-5.3c0.6-0.2,1-0.2,1.2-0.2c0.3,0,0.6,0.2,0.9,0.6c0.6,0.3,1.1,0.6,1.3,1
		c0.3,0.4,0.5,0.9,0.5,1.6c0.2,2.1-0.5,4.3-2.1,6.6c-0.6,0.9-1.2,1.6-1.7,2c-0.5,0.5-1.2,1-2.1,1.5c-1,0.7-2.1,1.1-3.1,1.2
		c-0.5,0-1-0.3-1.6-0.8c-1-1-1.4-2-1.3-3l0.1-0.9c-0.1-0.1-0.2-0.2-0.1-0.3c0.1-0.1,0.1-0.1,0.1-0.2c0.2,0,0.2-0.1,0.2-0.4
		c-0.1-0.3,0.1-0.7,0.3-1.5S215.2,169.3,215.6,168.7z M223.3,169c0.2-0.4,0.2-1,0.2-1.7c0-0.7-0.1-1.2-0.3-1.3
		c-0.7-0.4-1.6-0.2-2.6,0.6c-1.3,1.1-2.7,3.2-4,6.1c-0.6,1.3-0.5,2.3,0.1,2.8c0.8,0.7,2.1,0,4-2C221.8,172.1,222.7,170.6,223.3,169z
		"/>
	<path class="st4" d="M247.4,176.2l-0.9,0.2c-0.3,0.1-0.8,0.1-1.3-0.1c-0.5-0.2-0.8-0.6-1-1.1c-0.4-0.9-0.5-2-0.2-3.4
		c0.1-0.3,0.1-0.6,0.2-0.9c0.1-0.8,0.1-1.2,0.2-1.3c0-0.7,0-1-0.1-1c-0.2,0-0.9,0.7-2.1,2.1c-1.9,2.1-3.1,3.8-3.6,5
		c-0.1,0.2-0.2,0.3-0.2,0.4c-0.4,0.4-0.9,0.2-1.4-0.7c-0.2-0.3-0.2-0.6-0.2-1c0-0.1,0.7-2.3,2-6.5c0-0.2-0.7,0.3-2,1.4
		c-0.1,0.1-0.5,0.5-1.1,1.2c-1.7,1.8-2.9,3.3-3.8,4.4s-1.4,1.8-1.7,2.1c-0.3,0.2-0.6,0.2-0.8-0.1c-0.3-0.3-0.4-0.6-0.4-0.8
		s-0.1-0.4-0.2-0.4c-0.2-0.2,0.1-1.1,0.9-2.7c0.8-1.7,1.4-2.9,2-3.8c0.2-0.2,0.3-0.4,0.2-0.6c0.3-0.5,0.5-0.8,0.6-0.9
		c0.5-0.9,0.6-1.6,0.6-2.1c-0.1-0.1-0.2-0.1-0.3-0.1c-0.1,0-0.2,0-0.2,0.1s-0.2,0.1-0.3,0.1c-0.2,0.1-0.5,0.1-0.8,0.3
		c-0.6,0.4-1,0.6-1.2,0.6c-0.2,0-0.4-0.3-0.7-0.9c-0.2-0.5-0.2-0.9,0-1.1c0.2-0.2,0.5-0.4,0.7-0.5s0.5-0.3,0.8-0.4
		c0.3-0.2,0.6-0.3,0.8-0.3c1.4-0.4,2.4-0.1,2.8,0.9c0.8,1.1,0.7,2.5-0.4,4.1c-0.1,0.2-0.1,0.3-0.1,0.4c0.1,0.1,0.2-0.1,0.5-0.5
		c0.3-0.4,0.6-0.6,0.8-0.6c0.1,0,0.2-0.1,0.2-0.4l0.4-0.4c0.1,0,0.6-0.4,1.7-1.3c0.3-0.2,0.6-0.3,0.8-0.3c0.6-0.2,1.1,0,1.5,0.6
		s0.6,1.3,0.6,2.3l-0.8,2.2l1.4-1.8c0.2-0.3,0.6-0.6,1-1c0.1-0.2,0.2-0.4,0.3-0.4h0.1c0.1,0,0.2-0.1,0.2-0.2
		c0.1-0.1,0.1-0.1,0.2-0.2c0.3-0.2,0.5-0.3,0.5-0.4c1-0.4,1.7-0.1,2.2,0.9c0.2,0.4,0.4,1.1,0.4,1.9c-0.1,0.5-0.2,1.4-0.4,2.6
		c-0.1,0.3-0.2,0.7-0.2,1.1c0,0.4,0,0.7,0,0.8c0,0.2,0.1,0.3,0.3,0.3c0.4-0.1,0.9-0.3,1.6-0.6c0.7-0.3,1.2-0.6,1.5-1
		c0.3-0.3,0.7-0.5,1-0.5c0.3,0,0.5,0.1,0.6,0.5c0.1,0.2-0.1,0.6-0.6,1.3c-0.5,0.7-0.8,1-1,1c-0.1,0-0.1,0.1-0.3,0.2
		C248.2,175.9,247.7,176.2,247.4,176.2z"/>
	<path class="st4" d="M260.9,163.3c-0.1,0-0.2,0.1-0.2,0.4c0,0.2-0.4,0.9-1.1,2c-1.2,2.2-2.7,5-4.6,8.6c-1.8,3.5-2.8,5.6-3,6.2
		c-0.1,0.6-0.2,1-0.3,1.2c-0.1,0.2-0.2,0.3-0.4,0.4c-0.8,0.1-1.3-0.4-1.4-1.3c-0.1-0.9,0.2-2,0.8-3.4c0.5-0.9,0.8-1.5,0.9-1.8
		c0.1-0.3,1.3-2.4,3.5-6.4c2.2-4,3.4-6.1,3.5-6.3c0.2,0.1,0.4-0.2,0.6-0.8c0.2-0.6,0.4-1,0.7-1.1c0.2-0.5,0.4-0.8,0.4-0.8
		c0-0.1,0.1-0.2,0.2-0.3c0.1-0.1,0.2-0.2,0.2-0.3c0.6-0.7,1.7-2.4,3.3-4.9c1.6-2.6,2.5-4,2.6-4.4c0.1-0.4,0.3-0.5,0.8-0.4
		c0.1-0.1,0.3-0.1,0.6-0.1c0.1,0.2,0.2,0.4,0.5,0.8c0.3,0.3,0.3,0.9,0.1,1.5c-0.1,0.5-0.2,0.8-0.5,1.2c-0.3,0.3-0.4,0.6-0.6,0.8
		c-0.1,0.2-0.3,0.5-0.7,0.9c-0.3,0.4-0.6,0.8-0.8,1.1s-0.5,0.6-0.7,0.9c-0.5,0.7-0.8,1-0.8,1.1c0,0.1-0.1,0.2-0.3,0.5
		c-0.2,0.3-0.3,0.5-0.4,0.7c-0.3,0.4-0.8,1-1.5,2s-1.1,1.5-1.2,1.8C261.1,163.1,261,163.3,260.9,163.3z"/>
	<path class="st4" d="M268.3,177c-0.3,0.4-0.5,0.6-0.7,0.6s-0.5-0.2-1-0.6c-0.3-0.2-0.4-0.4-0.5-0.6c-0.2-0.4,0.1-2,0.8-5
		c0.1-0.7,0.5-2.1,1.4-4.2c0.9-2.1,1.5-3.6,2.1-4.4c0.5-0.4,1.1-0.3,1.6,0.2c0.3,0.2,0.3,0.6,0.2,1.1c-0.2,0.7-0.6,1.8-1.3,3.2
		c-0.7,1.4-0.9,2.1-0.9,2.1s0.2-0.1,0.4-0.2c0.3-0.5,1-1.2,2.1-2.1c1.1-0.9,1.8-1.4,2.1-1.5c0.3-0.1,0.6-0.3,0.9-0.4
		c0.3-0.1,0.5-0.2,0.6-0.2c0.6-0.3,1.2-0.4,1.9-0.3s1.1,0.3,1.2,0.7c0,0.3,0.2,0.5,0.5,0.6l0.2,0.2c0,0.2-0.3,0.4-1,0.4
		s-1.5,0.2-2.3,0.6c-0.1,0.1-0.3,0.2-0.7,0.4c-0.3,0.2-0.6,0.3-0.7,0.4s-0.3,0.2-0.6,0.4c-0.3,0.2-0.5,0.3-0.7,0.4
		c-0.1,0.1-0.3,0.2-0.6,0.4c-0.2,0.2-0.4,0.3-0.6,0.4c-0.2,0.1-0.4,0.3-0.6,0.4c-0.8,0.7-1.6,1.7-2.3,2.9c-0.2,0.2-0.4,0.7-0.6,1.5
		c-0.2,0.8-0.3,1.3-0.3,1.5C268.8,176.2,268.6,176.6,268.3,177z"/>
	<path class="st4" d="M287.2,174.9c0.1,0,0.1-0.1,0.1-0.1s0,0,0.1,0s0.1-0.1,0.1-0.1c0.2-0.2,0.4-0.4,0.7-0.7
		c0.3-0.3,0.5-0.4,0.6-0.4c0.1,0,0.3,0.1,0.4,0.2c0.1,0.1,0.2,0.2,0.3,0.2c0.4,0,0.4,0.3-0.2,1c-0.5,0.7-1.2,1.3-2,1.8
		c-0.9,0.7-1.9,1-3,0.8c-1.2-0.2-2.1-0.8-2.8-1.7c-0.8-1-1.1-2.7-0.9-5c0.1-1.5,0.7-3,1.9-4.6c1.2-1.6,2.4-2.6,3.7-3.1
		c0.4-0.2,0.7-0.4,1-0.4s0.9,0,1.6,0.1c0.8,0.1,1.4,0.4,1.8,1c0.7,0.7,1,1.4,1,2.3c-0.1,0.6-0.5,1.4-1.2,2.2s-1.6,1.5-2.6,2
		c-1.5,0.5-2.7,0.4-3.6-0.3c-0.5-0.2-0.8-0.1-1,0.1c-0.2,0.3-0.3,0.9-0.5,2c-0.2,1.8,0.2,2.9,1.3,3c0.1,0,0.3,0.1,0.5,0.1
		c0.2,0,0.4,0.1,0.4,0.1c0.1,0,0.2,0,0.3,0c0.2,0,0.3,0,0.4,0c0.2-0.1,0.4-0.1,0.6-0.3c0.2-0.1,0.4-0.2,0.5-0.3
		C287,175,287.2,174.9,287.2,174.9z M287.3,168.4c0.5-0.2,0.9-0.5,1.4-1c0.5-0.5,0.7-0.9,0.7-1.3c0-0.4-0.2-0.7-0.6-0.9
		c-0.4-0.2-0.8-0.3-1.3-0.1c-0.5,0.1-1,0.4-1.6,0.9c-0.5,0.5-1,1-1.3,1.4c-0.3,0.5-0.5,0.7-0.4,0.8c0.1,0.2,0.5,0.3,1.3,0.4
		C286.2,168.7,286.8,168.6,287.3,168.4z"/>
	<path class="st4" d="M303.5,165.8c0,0.1,0.2,0.1,0.6,0c0.2-0.2,0.4-0.2,0.8,0c0.3,0.2,0.4,0.4,0.4,0.6s-0.2,0.7-0.6,1.4
		c-0.4,0.8-0.7,1.2-0.9,1.3l-0.4,0.4c-0.2,0.7-1.6,2.7-4.1,5.9c-0.5,0.7-1.1,1.2-1.8,1.6c-0.3,0.2-0.5,0.3-0.6,0.3
		c-0.1,0-0.3-0.2-0.6-0.5c-0.9-0.9-1.4-3.7-1.4-8.4c0.1-1.4,0.2-2.8,0.2-4.1c0.2-0.3,0.6-0.3,1.2,0c0.4,0.2,0.6,0.5,0.7,1.1
		c0.1,0.5,0.1,1.9,0.1,4c-0.2,2.5-0.2,3.9-0.1,4.1c0.1,0.2,0.3,0.3,0.4,0.2c0.1-0.1,0.4-0.3,0.8-0.7c0.8-1.3,1.6-2.4,2.4-3.5
		c0.8-1.1,1.3-1.8,1.5-2.1c0.2-0.3,0.4-0.6,0.8-1C303.1,166,303.4,165.8,303.5,165.8z"/>
	<path class="st4" d="M309.1,165.6c0.1-0.2,0.3-0.2,0.6-0.1c0.3,0.1,0.6,0.3,0.8,0.5c0.2,0.3,0.3,0.7,0.2,1.2s-0.4,1.8-0.9,3.7
		c-0.5,1.9-0.8,3.3-0.7,4.2c-0.2,1.2-0.3,1.9-0.4,1.9c-0.5,0.2-0.9,0-1.2-0.6c-0.3-0.6-0.5-1.1-0.6-1.6c0.1-1,0.2-1.7,0.2-2.2
		c0.2-1,0.6-2.3,1-4.1C308.7,166.8,309,165.9,309.1,165.6z M310.7,158.4c0.1-0.4,0.2-0.8,0.4-1.1c0.2-0.3,0.5-0.5,0.7-0.5
		c0.3,0,0.6,0.1,1.2,0.3c0.1,0.1,0.2,0.3,0.3,0.6s0.2,0.6,0.3,0.8c0.1,0.2,0.2,0.4,0.2,0.5c0,0.1,0.1,0.3,0.1,0.5c0,0.2,0,0.4,0,0.5
		c0,0.1-0.1,0.3-0.1,0.4c-0.1,0.3-0.3,0.5-0.6,0.7c-0.3,0.2-0.6,0.2-0.9,0c-0.3,0-0.6-0.3-1.1-0.7c-0.4-0.4-0.7-0.8-0.7-1
		C310.6,159.1,310.6,158.8,310.7,158.4z"/>
	<path class="st4" d="M313.9,167.7l0.7-0.1c0.4,0,0.6,0.1,0.6,0.2c0.2,0.3,0.5,0.3,0.9-0.3c0.1-0.2,0.3-0.4,0.4-0.7
		c0.4-0.6,0.9-1.2,1.7-1.9s1.3-1.1,1.8-1.4c0.8-0.4,1.6-0.5,2.3-0.5c0.7,0.1,1.4,0.5,2.1,1.3c0.5,0.3,0.7,0.9,0.7,1.6
		c0,0.7-0.1,1.3-0.4,1.9c-0.1,0.4-0.5,0.9-1.3,1.5s-1.4,1-2,1.3c-0.6,0.1-1.3,0.2-2.1,0.3c-0.9,0-1.4,0-1.7-0.1
		c-0.2-0.1-0.3,0.1-0.4,0.5c-0.1,0.4-0.2,1.1-0.3,1.8c-0.1,0.8,0,1.3,0.1,1.4c0.1,0.2,0.2,0.3,0.3,0.4c0.9,1,1.9,1,3,0.2
		c0.3-0.3,0.7-0.6,1.1-1c0.4-0.4,0.7-0.7,0.9-0.8c0.2-0.4,0.7-0.5,1.4-0.3c0.3,0.2,0.4,0.5,0.4,0.7c0,0.2-0.1,0.5-0.3,0.9
		c-0.2,0.4-0.6,0.8-1.1,1.3c-0.5,0.5-1,0.8-1.4,1.1c-1.4,0.7-2.8,0.9-4.2,0.3c-1-0.4-1.7-1-2-1.8c-0.3-0.8-0.4-1.7-0.3-2.9
		c0.1-1.2,0.2-1.9,0.2-2.2c0-0.3-0.1-0.5-0.3-0.6s-0.3-0.3-0.4-0.4c-0.3-0.3-0.5-0.5-0.5-0.7c0-0.2,0-0.4,0.1-0.6
		C313.7,167.8,313.7,167.7,313.9,167.7z M322.7,165.5c-0.4-0.5-1-0.4-1.8,0.2c-0.3,0.1-0.7,0.4-1.2,0.9c-0.5,0.5-1,1-1.3,1.5
		c-0.4,0.5-0.5,0.8-0.4,0.9c0,0.1,0,0.1,0.1,0.1c0.1,0,0.2,0,0.4,0.1s0.3,0,0.4,0c0.1,0,0.3,0,0.4,0s0.4-0.1,0.8-0.1
		c0.4-0.1,0.7-0.1,0.8-0.2s0.3-0.1,0.6-0.3c0.3-0.2,0.8-0.7,1.4-1.6C323,166.3,322.9,165.8,322.7,165.5z"/>
	<path class="st4" d="M331.5,169.7l-0.1,2.8c0.1,0.6,0.2,0.9,0.2,1s0.1,0.1,0.1,0.1s0.1-0.1,0.2-0.1c0.3-0.1,1-1.3,2.3-3.4
		c1-1.5,1.6-2.4,1.9-2.8c0.1-0.8,0.3-1.7,0.4-2.8c0.8-0.8,1.4-0.9,1.7-0.2c0.5,0.2,0.7,0.6,0.5,1.3l-0.6,2.2c-0.2,0.6-0.2,1.6-0.3,3
		c0,1.4,0,2.3,0.1,2.7c0.1,0.4,0.2,0.6,0.3,0.7c0.2,0.1,0.6-0.1,1.2-0.5c0.6-0.6,1.3-1.5,2-2.5s1.1-1.7,1.1-1.9c0-0.5,0.2-1,0.6-1.3
		l0.6-1.6c-0.1-0.1,0-0.3,0.2-0.5c0.2-0.2,0.3-0.4,0.3-0.4c0.1-0.3,0.2-0.5,0.5-0.6c0.3-0.1,0.5,0,0.8,0.2c0.3,0.2,0.4,0.5,0.4,0.9
		c0,0.4-0.2,1.2-0.7,2.2c-0.5,1.1-1,2-1.5,2.9c-0.5,1-1,1.9-1.6,2.6c-0.6,0.8-1.1,1.3-1.5,1.6c-1,1.2-1.7,1.9-2.3,1.9
		c-0.4,0.1-1-0.4-1.8-1.3c-0.5-0.7-0.8-2.2-0.9-4.5c-2.1,3.2-3.8,5-5.1,5.4c-0.5,0.2-0.8,0-1.1-0.6s-0.4-1.2-0.4-2.1
		c-0.1-1.2-0.2-2.6-0.2-4.1c0-1.5,0-2.5,0.2-3l0-0.5c-0.1-0.2-0.1-0.7,0-1.6s0.2-1.4,0.3-1.5c0.1-0.2,0.2-0.3,0.6-0.4
		c0.4,0.1,0.6,0.2,0.6,0.5c0.2,0.2,0.4,0.3,0.5,0.3c0.2,0.1,0.2,0.9,0.2,2.2l0,1.4C331.4,168.1,331.4,168.8,331.5,169.7z"/>
	<path class="st4" d="M358.6,157.4l1.2,0.2c0.3,0,0.7,0.2,1.3,0.8c0.5,0.5,0.9,1.1,1.2,1.6c0.7,1.1,0.5,2.7-0.8,4.6
		c-0.3,0.3-1.1,1.3-2.5,2.7c-1.3,1.5-2.2,2.3-2.4,2.5c-0.5,0.2-1.3,1-2.4,2.4c-1.1,1.3-1.7,2-1.6,2c0,0.1,0,0.2,0.1,0.1
		c0.1,0,0.4-0.1,0.9-0.3s1.6-0.4,3.2-0.6c1.6-0.2,2.5-0.3,2.7-0.1l0.2,0.1c0.1-0.2,0.4-0.2,1-0.2c0.6,0.1,1.1,0.2,1.8,0.4
		s0.9,0.4,1,0.5s0.2,0.3,0.4,0.6c0.6,0.5,0.5,0.8-0.4,0.8c-0.4,0-0.9-0.1-1.5-0.2c-0.7,0-1.2,0-1.4,0.1s-0.9,0.1-2,0.2
		c-0.8-0.1-1.6,0-2.6,0.4c-1,0.3-2.1,0.7-3.4,1c-1.3,0.3-2.1,0.5-2.3,0.4c-0.2-0.1-0.5-0.3-0.8-0.6c-0.3-0.3-0.6-0.5-0.7-0.7
		c-0.1-0.2-0.1-0.4,0-0.8c0.1-0.4,0.2-0.5,0.3-0.5c0.1,0.1,0.3-0.1,0.7-0.6c0.4-0.5,0.6-0.8,0.6-0.9c0-0.1,0.2-0.2,0.6-0.5
		c0,0,0.2-0.3,0.6-0.8c0.4-0.5,0.8-0.9,1.1-1.2c2.8-2.7,4.2-4.3,4.3-4.8c0.1-0.2,0.3-0.3,0.6-0.5s0.6-0.5,1-0.8
		c0.1-0.5,0.5-1.2,1.2-1.9c0.5-0.7,0.7-1.2,0.9-1.7c0.1-0.5,0.2-0.7,0.1-0.8c-0.1-0.1-0.4-0.2-1-0.4c-1.6-0.5-3.1-0.3-4.6,0.8
		c-0.2,0.1-0.4,0.1-0.7,0.2c-0.6,0.2-0.9,0.3-1,0.3c-0.1,0-0.2-0.1-0.3-0.2s-0.2-0.2-0.3-0.4c-0.1-0.1-0.2-0.3-0.3-0.3l-0.4-0.8
		l1.2-0.7C355.3,157.4,357.2,156.9,358.6,157.4z"/>
	<path class="st4" d="M370.1,166.4l2.4,0.1c0.5,0,0.9,0,1.1,0.1c0.3,0,0.5,0,0.6-0.1c0.1-0.1,0.4-0.4,0.8-0.9c0.1-0.2,0.4-0.7,1-1.5
		s1-1.5,1.2-2c1.8-2.5,2.4-3.9,2-4.3c-0.2-0.1-0.5-0.2-1-0.2c-0.5,0-1.5,0.3-2.9,0.9c-1.4,0.6-2.3,0.9-2.7,1c-0.4,0.1-0.7,0.1-1-0.1
		c-0.5-0.1-0.7-0.5-0.5-1.4c0.1-0.5,1.9-1.1,5.2-2c2.3-0.3,3.7-0.2,4,0.3c0.2,0,0.3,0.1,0.4,0.2c0.2,0.4,0.4,0.8,0.6,1.1
		c0.2,0.3,0.3,0.6,0.3,0.7c0,0.2,0,0.5,0,0.9c-0.2,0.6-0.5,1.1-0.8,1.4c-0.3,0.5-0.7,0.9-1,1.2c0,0.1-0.1,0.2-0.2,0.4
		s-0.2,0.3-0.2,0.3l-2.2,3.3c-0.5,0.5-0.7,0.7-0.6,0.9c0.1,0.1,0.3,0.3,0.5,0.4c0.9,0.4,1.5,1,1.7,1.6c0,0.5,0,0.8-0.2,0.9
		c-0.2,0.2-0.4,0.2-0.6,0.2c-0.3,0-0.4-0.1-0.5-0.2c-0.1-0.2-0.4-0.4-0.9-0.6c-0.5-0.2-0.8-0.3-1-0.3c-0.4,0.2-0.9,1.1-1.7,2.5
		c-0.8,1.5-1.2,2.3-1.3,2.4s-0.2,0.3-0.3,0.5s-0.2,0.4-0.3,0.6c-0.1,0.2-0.2,0.6-0.3,1.2s-0.1,0.9,0.1,0.9c0.3-0.1,0.5,0.1,0.7,0.5
		c0.2,0.3,0.1,0.6-0.5,1c-0.5,0.4-1,0.5-1.4,0.4c-0.6-0.1-1.1-0.6-1.4-1.5c-0.2-0.9,0.7-3.3,2.8-7.1c0.7-1.1,1-1.7,0.9-1.8
		c-0.1-0.1-0.4-0.1-0.8-0.1c-0.9-0.2-1.4-0.4-1.4-0.4c-0.6-0.3-0.9-0.6-0.8-0.9c0.1-0.1,0.1-0.2,0.3-0.2
		C370.6,166.7,370.6,166.6,370.1,166.4z M370.1,166.4C370,166.4,370,166.4,370.1,166.4C370,166.4,370,166.4,370.1,166.4z"/>
	<path class="st4" d="M390.9,177.5l0.1-1.4c0.1-1.5,0.8-4,2-7.5c0.4-1,0.6-1.5,0.5-1.8c-0.1-0.2-0.4-0.3-1-0.2
		c-1.2,0.2-2.3-0.1-3.2-1c-0.9-0.9-1.3-1.9-1.2-3.1c0-0.6,0.4-1.5,1.1-2.6s1.6-2.1,2.7-3c1.1-0.9,2.2-1.4,3.2-1.6
		c1.1-0.2,2-0.2,2.7,0.1c0.7,0.3,1.3,0.8,1.8,1.6c0.5,0.8,0.7,1.4,0.6,1.9c-0.3,1.4-0.8,2.5-1.5,3.2c-0.6,0.5-1.4,1.7-2.3,3.6
		c-0.9,1.8-1.6,3.4-2.1,4.7s-0.7,2.3-0.9,3s-0.2,1.2-0.2,1.7c0,0.4,0.1,0.6,0.2,0.7l0.8,0.2c0.3,0.5,0,1.3-1,2.4
		c-0.5,0.6-0.9,0.8-1,0.8c-0.2,0-0.4-0.1-0.6-0.4s-0.4-0.4-0.4-0.5c0-0.1,0-0.2,0-0.2c0,0-0.1,0-0.2,0L390.9,177.5z M397.9,158
		c-0.4-0.5-1.1-0.6-2.3-0.2c-0.7,0.1-1.5,0.5-2.6,1.2c-0.2,0.2-0.3,0.2-0.5,0.2c-0.2,0-0.3,0-0.3,0.2c0.1,0.2,0,0.5-0.5,0.9
		c-0.7,0.7-1.1,1.5-1.4,2.3c-0.3,0.8-0.3,1.3,0,1.6c0.6,0.6,1.5,0.6,2.7,0c1.2-0.6,2.2-1.6,3.1-2.9c0.8-1.1,1.2-1.6,1.3-1.7
		C398.1,158.9,398.2,158.3,397.9,158z"/>
	<path class="st4" d="M412.6,157.4l1.2,0.2c0.3,0,0.7,0.2,1.3,0.8c0.5,0.5,0.9,1.1,1.2,1.6c0.7,1.1,0.5,2.7-0.8,4.6
		c-0.3,0.3-1.1,1.3-2.5,2.7c-1.3,1.5-2.2,2.3-2.4,2.5c-0.5,0.2-1.3,1-2.4,2.4c-1.1,1.3-1.7,2-1.6,2c0,0.1,0,0.2,0.1,0.1
		c0.1,0,0.4-0.1,0.9-0.3s1.6-0.4,3.2-0.6c1.6-0.2,2.5-0.3,2.7-0.1l0.2,0.1c0.1-0.2,0.4-0.2,1-0.2c0.6,0.1,1.1,0.2,1.8,0.4
		s0.9,0.4,1,0.5s0.2,0.3,0.4,0.6c0.6,0.5,0.5,0.8-0.4,0.8c-0.4,0-0.9-0.1-1.5-0.2c-0.7,0-1.2,0-1.4,0.1s-0.9,0.1-2,0.2
		c-0.8-0.1-1.6,0-2.6,0.4c-1,0.3-2.1,0.7-3.4,1c-1.3,0.3-2.1,0.5-2.3,0.4c-0.2-0.1-0.5-0.3-0.8-0.6c-0.3-0.3-0.6-0.5-0.7-0.7
		c-0.1-0.2-0.1-0.4,0-0.8c0.1-0.4,0.2-0.5,0.3-0.5c0.1,0.1,0.3-0.1,0.7-0.6c0.4-0.5,0.6-0.8,0.6-0.9c0-0.1,0.2-0.2,0.6-0.5
		c0,0,0.2-0.3,0.6-0.8c0.4-0.5,0.8-0.9,1.1-1.2c2.8-2.7,4.2-4.3,4.3-4.8c0.1-0.2,0.3-0.3,0.6-0.5s0.6-0.5,1-0.8
		c0.1-0.5,0.5-1.2,1.2-1.9c0.5-0.7,0.7-1.2,0.9-1.7c0.1-0.5,0.2-0.7,0.1-0.8c-0.1-0.1-0.4-0.2-1-0.4c-1.6-0.5-3.1-0.3-4.6,0.8
		c-0.2,0.1-0.4,0.1-0.7,0.2c-0.6,0.2-0.9,0.3-1,0.3c-0.1,0-0.2-0.1-0.3-0.2s-0.2-0.2-0.3-0.4c-0.1-0.1-0.2-0.3-0.3-0.3l-0.4-0.8
		l1.2-0.7C409.3,157.4,411.2,156.9,412.6,157.4z"/>
</g>
<circle class="st5" cx="107.5" cy="74.9" r="10.4"/>
<circle class="st6" cx="115.5" cy="79.9" r="8.4"/>
<line class="st7" x1="131.2" y1="70.9" x2="254.2" y2="70.9"/>
<line class="st7" x1="131.2" y1="80.9" x2="237.7" y2="80.9"/>
<line class="st8" x1="97.2" y1="247" x2="110.7" y2="247"/>
<line class="st8" x1="117.2" y1="247" x2="147.7" y2="247"/>
<line class="st8" x1="153.2" y1="247" x2="208.7" y2="247"/>
<line class="st8" x1="287.2" y1="247" x2="336.7" y2="247"/>
<line class="st8" x1="343.2" y1="247" x2="346.2" y2="247"/>
<line class="st8" x1="352.9" y1="247" x2="381.2" y2="247"/>
<line class="st8" x1="386.9" y1="247" x2="423.3" y2="247"/>
<polygon class="st9" points="62.8,238.1 67.8,227.8 72.9,238 84.3,239.6 76.1,247.7 78.1,259 67.9,253.7 57.8,259.1 59.7,247.8 
	51.4,239.8 "/>
<polygon class="st9" points="255.8,238.1 260.8,227.8 265.9,238 277.3,239.6 269.1,247.7 271.1,259 260.9,253.7 250.8,259.1 
	252.7,247.8 244.4,239.8 "/>
</svg>
