<?xml version="1.0" encoding="utf-8"?>
<!-- Generator: Adobe Illustrator 20.0.0, SVG Export Plug-In . SVG Version: 6.00 Build 0)  -->
<svg version="1.1" id="Layer_1" xmlns="http://www.w3.org/2000/svg" xmlns:xlink="http://www.w3.org/1999/xlink" x="0px" y="0px"
	 viewBox="0 0 66.2 56.3" style="enable-background:new 0 0 66.2 56.3;" xml:space="preserve">
<path id="menu" d="M41.1,29.7h-27c-0.7,0-1.2-0.6-1.2-1.4c0-0.8,0.6-1.4,1.2-1.4h27c0.7,0,1.2,0.6,1.2,1.4
	C42.3,29.1,41.8,29.7,41.1,29.7z M41.1,23.2h-27c-0.7,0-1.2-0.6-1.2-1.4c0-0.8,0.6-1.4,1.2-1.4h27c0.7,0,1.2,0.6,1.2,1.4
	C42.3,22.5,41.8,23.2,41.1,23.2z M14.1,33.4h27c0.7,0,1.2,0.6,1.2,1.4c0,0.8-0.6,1.4-1.2,1.4h-27c-0.7,0-1.2-0.6-1.2-1.4
	C12.9,34,13.4,33.4,14.1,33.4z"/>
<g>
	<path d="M136.8,40.8L124,28.1c-0.5-0.5-0.5-1.4,0-1.9l0.2-0.2c0.5-0.5,1.4-0.5,1.9,0l12.8,12.8c0.5,0.5,0.5,1.4,0,1.9l-0.2,0.2
		C138.2,41.4,137.3,41.4,136.8,40.8z"/>
	<path d="M138.9,28.1l-12.8,12.8c-0.5,0.5-1.4,0.5-1.9,0l-0.2-0.2c-0.5-0.5-0.5-1.4,0-1.9l12.8-12.8c0.5-0.5,1.4-0.5,1.9,0l0.2,0.2
		C139.5,26.7,139.5,27.5,138.9,28.1z"/>
</g>
</svg>
