<?xml version="1.0" encoding="utf-8"?>
<!-- Generator: Adobe Illustrator 20.0.0, SVG Export Plug-In . SVG Version: 6.00 Build 0)  -->
<svg version="1.1" id="Layer_6" xmlns="http://www.w3.org/2000/svg" xmlns:xlink="http://www.w3.org/1999/xlink" x="0px" y="0px"
	 viewBox="0 0 450.7 295.3" style="enable-background:new 0 0 450.7 295.3;" xml:space="preserve">
<style type="text/css">
	.st0{fill:#4F4F4F;}
	.st1{fill:#3D3D3D;}
	.st2{fill:#FFFFFF;}
	.st3{fill:#1E88C8;stroke:#1E88C8;stroke-width:4;stroke-miterlimit:10;}
	.st4{fill:#93D4FA;}
	.st5{opacity:0.52;fill:none;stroke:#FFFFFF;stroke-width:3;stroke-miterlimit:10;}
	.st6{fill:none;stroke:#196C8C;stroke-width:6;stroke-linecap:round;stroke-miterlimit:10;}
	.st7{fill:#FFFFFF;stroke:#1C9480;stroke-width:4;stroke-miterlimit:10;}
	.st8{fill:#1C9480;}
	.st9{opacity:0.6;fill:#9F2EA1;}
	.st10{fill:none;stroke:#9F2EA1;stroke-width:6;stroke-linecap:round;stroke-miterlimit:10;}
	.st11{fill:none;stroke:#9F2EA1;stroke-width:4;stroke-linecap:round;stroke-miterlimit:10;}
</style>
<rect x="195.1" y="241.1" class="st0" width="66.3" height="45.6"/>
<path class="st1" d="M409.1,265.3H43.4c-5.5,0-10-4.5-10-10V31.5c0-5.5,4.5-10,10-10h365.8c5.5,0,10,4.5,10,10v223.8
	C419.1,260.8,414.6,265.3,409.1,265.3z"/>
<rect x="57.6" y="44.9" class="st2" width="337.4" height="187.7"/>
<g>
	<path class="st3" d="M346.5,213H207.9c-2.8,0-5.1-2.3-5.1-5.1l15-109.6c0.1-0.8,0.8-1.5,1.7-1.5h115.3c0.8,0,1.6,0.6,1.7,1.5
		l15,109.6C351.5,210.7,349.3,213,346.5,213z"/>
	<path class="st4" d="M207.7,172.6l-4.8,35.4c0,2.8,2.3,5.1,5.1,5.1h138.5c2.8,0,5.1-2.3,5.1-5.1l-4.8-35.4H207.7z"/>
	<circle class="st5" cx="246.4" cy="107" r="5.5"/>
	<circle class="st5" cx="308.9" cy="107" r="5.5"/>
	<path class="st6" d="M246.4,107.8l0.1-10.6c0-19.8,13.7-35.9,30.7-35.9s30.7,16.1,30.7,35.9l1,10.1"/>
	<g>
		<circle class="st7" cx="344.2" cy="124.3" r="20"/>
		<g id="ok_x5F_2_1_">
			<path class="st8" d="M355.5,119.2c0.2,0.2,0.2,0.5,0,0.7l-13.7,13.7c-0.2,0.2-0.5,0.2-0.7,0l-3.1-3.1c-0.2-0.2-0.5-0.5-0.7-0.7
				l-3.7-3.7c-0.2-0.2-0.2-0.5,0-0.7l3.1-3.1c0.2-0.2,0.5-0.2,0.7,0l3.7,3.7c0.2,0.2,0.5,0.2,0.7,0l9.9-9.9c0.2-0.2,0.5-0.2,0.7,0
				L355.5,119.2z"/>
		</g>
	</g>
</g>
<g>
	<path class="st9" d="M183.5,213.1h-72.4c-1.7,0-3-1.3-3-3V80.9h78.4v129.2C186.5,211.8,185.2,213.1,183.5,213.1z"/>
	<path class="st10" d="M126.2,86.7v-6.9c0-9.2,9.5-16.6,21.3-16.6c11.8,0,21.3,7.4,21.3,16.6v6.9"/>
	<line class="st11" x1="118.7" y1="88" x2="132.7" y2="88"/>
	<line class="st11" x1="161.7" y1="88" x2="176.7" y2="88"/>
	<g>
		<circle class="st7" cx="110.2" cy="124.4" r="20"/>
		<g id="remove_x5F_2_2_">
			<path class="st8" d="M113.8,124.5l5.7-5.7c0.2-0.2,0.2-0.6,0-0.8l-2.4-2.4c-0.2-0.2-0.6-0.2-0.8,0l-5.7,5.7l-5.7-5.7
				c-0.2-0.2-0.6-0.2-0.8,0l-2.4,2.4c-0.2,0.2-0.2,0.6,0,0.8l5.7,5.7l-5.7,5.7c-0.2,0.2-0.2,0.6,0,0.8l2.4,2.4
				c0.2,0.2,0.6,0.2,0.8,0l5.7-5.7l5.7,5.7c0.2,0.2,0.6,0.2,0.8,0l2.4-2.4c0.2-0.2,0.2-0.6,0-0.8L113.8,124.5z"/>
		</g>
	</g>
</g>
<circle class="st2" cx="223.5" cy="34" r="2.8"/>
</svg>
