<?xml version="1.0" encoding="utf-8"?>
<!-- Generator: Adobe Illustrator 20.0.0, SVG Export Plug-In . SVG Version: 6.00 Build 0)  -->
<svg version="1.1" id="Layer_11" xmlns="http://www.w3.org/2000/svg" xmlns:xlink="http://www.w3.org/1999/xlink" x="0px" y="0px"
	 viewBox="0 0 450.7 295.3" style="enable-background:new 0 0 450.7 295.3;" xml:space="preserve">
<style type="text/css">
	.st0{fill:#FFFFFF;}
	.st1{fill:#848484;}
	.st2{fill:#1C9480;}
	.st3{opacity:0.6;}
	.st4{fill:#9F2EA1;}
	.st5{fill:#FFFFFF;stroke:#FFFFFF;stroke-miterlimit:10;}
	.st6{fill:#DBDBDB;}
</style>
<g>
	<path class="st0" d="M424.7,280.4H25.9c-4.2,0-7.6-3.4-7.6-7.6v-247c0-4.2,3.4-7.6,7.6-7.6h398.8c4.2,0,7.6,3.4,7.6,7.6v247
		C432.3,277,428.9,280.4,424.7,280.4z"/>
</g>
<path class="st1" d="M18.3,75.2V23c0-2.6,3.4-4.8,7.6-4.8h398.8c4.2,0,7.6,2.2,7.6,4.8v52.2H18.3z"/>
<path class="st2" d="M53,139.9v-28.7c0-1.3,1.1-2.4,2.4-2.4h258.4c1.3,0,2.4,1.1,2.4,2.4v36.4c0,1.3-1.1,2.4-2.4,2.4H55.4
	c-1.3,0-2.4-1.1-2.4-2.4"/>
<path class="st2" d="M53,137.4c0,0-3.1,7.3-11.3,8.8c0,0,2.6,2.1,11.3,1.3v-29.3"/>
<g class="st3">
	<path class="st4" d="M398.9,225.9v-48.7c0-1.3-1.1-2.4-2.4-2.4H138.1c-1.3,0-2.4,1.1-2.4,2.4v56.4c0,1.3,1.1,2.4,2.4,2.4h258.4
		c1.3,0,2.4-1.1,2.4-2.4"/>
	<path class="st4" d="M398.9,223.4c0,0,3.1,7.3,11.3,8.8c0,0-2.6,2.1-11.3,1.3v-29.3"/>
</g>
<line class="st5" x1="66.3" y1="121.2" x2="299.3" y2="121.2"/>
<line class="st5" x1="65.8" y1="134.9" x2="267.3" y2="134.9"/>
<line class="st5" x1="153.8" y1="187.2" x2="386.8" y2="187.2"/>
<line class="st5" x1="153.8" y1="219.2" x2="386.8" y2="219.2"/>
<line class="st5" x1="185.3" y1="202.7" x2="386.8" y2="202.7"/>
<g id="remove_x5F_2_3_">
	<path class="st6" d="M410.5,46.7l5.4-5.4c0.2-0.2,0.2-0.6,0-0.8l-2.3-2.3c-0.2-0.2-0.6-0.2-0.8,0l-5.4,5.4l-5.4-5.4
		c-0.2-0.2-0.6-0.2-0.8,0l-2.3,2.3c-0.2,0.2-0.2,0.6,0,0.8l5.4,5.4l-5.4,5.4c-0.2,0.2-0.2,0.6,0,0.8l2.3,2.3c0.2,0.2,0.6,0.2,0.8,0
		l5.4-5.4l5.4,5.4c0.2,0.2,0.6,0.2,0.8,0l2.3-2.3c0.2-0.2,0.2-0.6,0-0.8L410.5,46.7z"/>
</g>
</svg>
