<?xml version="1.0" encoding="utf-8"?>
<!-- Generator: Adobe Illustrator 20.0.0, SVG Export Plug-In . SVG Version: 6.00 Build 0)  -->
<svg version="1.1" id="Layer_12" xmlns="http://www.w3.org/2000/svg" xmlns:xlink="http://www.w3.org/1999/xlink" x="0px" y="0px"
	 viewBox="0 0 450.7 295.3" style="enable-background:new 0 0 450.7 295.3;" xml:space="preserve">
<style type="text/css">
	.st0{fill:#FFFFFF;}
	.st1{fill:#E6E6E6;}
	.st2{fill:#1E88C8;}
	.st3{fill:#B3B3B3;}
	.st4{fill:#333333;}
	.st5{opacity:0.48;fill:#1C9480;}
	.st6{fill:#1C9480;}
	.st7{fill:#5E5A5A;}
</style>
<g>
	<path class="st0" d="M34.7,278V26c0-1.1,0.9-2,2-2H412c1.1,0,2,0.9,2,2v252H34.7z"/>
	<path class="st1" d="M412,25c0.6,0,1,0.4,1,1v251H35.7V26c0-0.6,0.4-1,1-1H412 M412,23H36.7c-1.7,0-3,1.3-3,3v253H415V26
		C415,24.3,413.7,23,412,23L412,23z"/>
</g>
<path class="st1" d="M415,60.1H33.7V14c0-1.7,1.3-3,3-3H412c1.7,0,3,1.3,3,3V60.1z"/>
<path class="st2" d="M70.6,44.4l2.6-12.3c0-1.4,1.2-2.6,2.6-2.6h66.7c1.4,0,2.6,1.2,2.6,2.6l2.6,12.3"/>
<path class="st3" d="M153.6,44.4l2.6-12.3c0-1.4,1.2-2.6,2.6-2.6h66.7c1.4,0,2.6,1.2,2.6,2.6l2.6,12.3"/>
<rect x="34.3" y="43.7" class="st2" width="380.7" height="53.6"/>
<path class="st0" d="M390.2,91.1H58.5c-1.1,0-2-0.9-2-2V56c0-1.1,0.9-2,2-2h331.7c1.1,0,2,0.9,2,2v33.1
	C392.2,90.2,391.3,91.1,390.2,91.1z"/>
<g>
	<path class="st4" d="M98.2,82.6L98.2,82.6l-0.3,1.6h-2.1V61.4h2.6v6.2l-0.1,2.8c1.4-1.2,3.1-2.2,4.9-2.2c4,0,6.2,3.1,6.2,7.9
		c0,5.3-3.2,8.4-6.7,8.4C101.2,84.5,99.6,83.8,98.2,82.6z M106.7,76.2c0-3.4-1.2-5.7-4.1-5.7c-1.3,0-2.7,0.7-4.2,2.1v8.2
		c1.4,1.2,2.8,1.6,3.8,1.6C104.8,82.3,106.7,80,106.7,76.2z"/>
	<path class="st4" d="M112.3,76.4c0-5.1,3.4-8.2,7-8.2c4,0,6.2,2.8,6.2,7.3c0,0.5,0,1.1-0.1,1.5h-10.5c0.2,3.3,2.2,5.4,5.2,5.4
		c1.5,0,2.7-0.5,3.9-1.2l0.9,1.7c-1.3,0.9-3,1.6-5.1,1.6C115.6,84.5,112.3,81.5,112.3,76.4z M123.2,75.1c0-3.1-1.4-4.8-3.8-4.8
		c-2.2,0-4.2,1.8-4.5,4.8H123.2z"/>
	<path class="st4" d="M127.6,82.4l1.3-1.8c1.3,1.1,2.7,1.9,4.6,1.9c2,0,3.1-1.1,3.1-2.4c0-1.6-1.9-2.3-3.6-2.9
		c-2.2-0.8-4.6-1.9-4.6-4.5c0-2.5,2-4.4,5.3-4.4c2,0,3.6,0.8,4.8,1.8l-1.2,1.7c-1.1-0.8-2.2-1.4-3.6-1.4c-2,0-2.8,1.1-2.8,2.2
		c0,1.5,1.7,2,3.5,2.7c2.2,0.8,4.7,1.8,4.7,4.7c0,2.5-2,4.6-5.7,4.6C131.2,84.5,129.1,83.6,127.6,82.4z"/>
	<path class="st4" d="M142.6,79.4v-8.6h-2.3v-2l2.4-0.2l0.3-4.4h2.2v4.4h4.2v2.1h-4.2v8.6c0,1.9,0.6,3,2.4,3c0.5,0,1.2-0.2,1.8-0.4
		l0.5,2c-0.9,0.3-1.9,0.6-2.9,0.6C143.7,84.5,142.6,82.4,142.6,79.4z"/>
	<path class="st4" d="M159.8,79.4v-8.6h-2.3v-2l2.4-0.2l0.3-4.4h2.2v4.4h4.2v2.1h-4.2v8.6c0,1.9,0.6,3,2.4,3c0.5,0,1.2-0.2,1.8-0.4
		l0.5,2c-0.9,0.3-1.9,0.6-2.9,0.6C160.9,84.5,159.8,82.4,159.8,79.4z"/>
	<path class="st4" d="M169.7,63.7c0-1,0.8-1.7,1.8-1.7s1.8,0.7,1.8,1.7c0,1-0.8,1.7-1.8,1.7S169.7,64.7,169.7,63.7z M170.2,68.6h2.6
		v15.6h-2.6V68.6z"/>
	<path class="st4" d="M178,68.6h2.2l0.2,2.8h0.1c1.1-2,2.7-3.2,4.4-3.2c0.7,0,1.2,0.1,1.7,0.3l-0.5,2.3c-0.5-0.2-0.9-0.3-1.5-0.3
		c-1.3,0-2.9,1-3.9,3.6v10H178V68.6z"/>
	<path class="st4" d="M187.7,76.4c0-5.1,3.4-8.2,7-8.2c4,0,6.2,2.8,6.2,7.3c0,0.5,0,1.1-0.1,1.5h-10.5c0.2,3.3,2.2,5.4,5.2,5.4
		c1.5,0,2.7-0.5,3.9-1.2l0.9,1.7c-1.3,0.9-3,1.6-5.1,1.6C191,84.5,187.7,81.5,187.7,76.4z M198.5,75.1c0-3.1-1.4-4.8-3.8-4.8
		c-2.2,0-4.2,1.8-4.5,4.8H198.5z"/>
	<path class="st4" d="M203,82.4l1.3-1.8c1.3,1.1,2.7,1.9,4.6,1.9c2,0,3.1-1.1,3.1-2.4c0-1.6-1.9-2.3-3.6-2.9
		c-2.2-0.8-4.6-1.9-4.6-4.5c0-2.5,2-4.4,5.3-4.4c2,0,3.6,0.8,4.8,1.8l-1.2,1.7c-1.1-0.8-2.2-1.4-3.6-1.4c-2,0-2.8,1.1-2.8,2.2
		c0,1.5,1.7,2,3.5,2.7c2.2,0.8,4.7,1.8,4.7,4.7c0,2.5-2,4.6-5.7,4.6C206.5,84.5,204.4,83.6,203,82.4z"/>
</g>
<rect x="56.5" y="111.4" class="st5" width="335.7" height="34.6"/>
<g id="search_2_">
	<path class="st6" d="M84.8,80.9l-5.4-5.4c0.9-1.4,1.4-3,1.4-4.7c0-4.8-3.9-8.7-8.7-8.7c-4.8,0-8.7,3.9-8.7,8.7
		c0,4.8,3.9,8.7,8.7,8.7c1.7,0,3.3-0.5,4.7-1.4l5.4,5.4c0.2,0.2,0.5,0.2,0.7,0l2-2C84.9,81.4,84.9,81.1,84.8,80.9z M66.2,70.8
		c0-3.3,2.7-5.9,5.9-5.9c3.3,0,5.9,2.7,5.9,5.9c0,3.3-2.7,5.9-5.9,5.9C68.8,76.8,66.2,74.1,66.2,70.8z"/>
</g>
<g>
	<path class="st7" d="M97.5,137.8L97.5,137.8l-0.2,1.6h-1.2v-23h1.4v6.7l-0.1,3c1.6-1.3,3.4-2.4,5.3-2.4c4.1,0,6.1,3.1,6.1,7.8
		c0,5.2-3.2,8.3-6.8,8.3C100.7,139.8,99,139,97.5,137.8z M107.4,131.5c0-3.8-1.3-6.6-4.9-6.6c-1.5,0-3.2,0.9-5,2.5v9.1
		c1.7,1.4,3.4,2,4.5,2C105.2,138.5,107.4,135.6,107.4,131.5z"/>
	<path class="st7" d="M112.2,131.7c0-5,3.3-8.1,6.7-8.1c3.6,0,5.9,2.6,5.9,7.1c0,0.4,0,0.8-0.1,1.2h-11.1c0.1,3.9,2.3,6.7,5.8,6.7
		c1.7,0,3-0.5,4.1-1.4l0.6,1.1c-1.2,0.7-2.6,1.5-4.8,1.5C115.3,139.8,112.2,136.8,112.2,131.7z M123.4,130.7c0-3.9-1.8-5.9-4.5-5.9
		c-2.6,0-5,2.2-5.3,5.9H123.4z"/>
	<path class="st7" d="M127,137.6l0.8-1.1c1.3,1.1,2.7,2,4.9,2c2.4,0,3.6-1.4,3.6-3c0-1.9-2-2.8-3.7-3.4c-2.3-0.8-4.9-1.8-4.9-4.4
		c0-2.2,1.8-4.1,5-4.1c1.6,0,3.3,0.7,4.4,1.6l-0.8,1c-1-0.8-2.1-1.4-3.7-1.4c-2.4,0-3.5,1.4-3.5,2.8c0,1.8,1.8,2.4,3.6,3.1
		c2.4,0.9,5,1.7,5,4.7c0,2.3-1.9,4.3-5.2,4.3C130.3,139.8,128.4,138.8,127,137.6z"/>
	<path class="st7" d="M141.6,135.1v-9.9h-2.4v-1.1l2.4-0.1l0.2-4.4h1.2v4.4h4.4v1.2H143v10c0,2,0.5,3.3,2.6,3.3
		c0.6,0,1.4-0.2,1.9-0.5l0.4,1.2c-0.9,0.3-1.9,0.6-2.5,0.6C142.4,139.8,141.6,137.9,141.6,135.1z"/>
	<path class="st7" d="M158,135.1v-9.9h-2.4v-1.1l2.4-0.1l0.2-4.4h1.2v4.4h4.4v1.2h-4.4v10c0,2,0.5,3.3,2.6,3.3
		c0.6,0,1.4-0.2,1.9-0.5l0.4,1.2c-0.9,0.3-1.9,0.6-2.5,0.6C158.8,139.8,158,137.9,158,135.1z"/>
	<path class="st7" d="M167.1,119.1c0-0.8,0.6-1.3,1.3-1.3s1.3,0.5,1.3,1.3c0,0.7-0.6,1.2-1.3,1.2S167.1,119.8,167.1,119.1z
		 M167.6,124h1.4v15.4h-1.4V124z"/>
	<path class="st7" d="M174.9,124h1.2l0.1,2.8h0.1c1-1.9,2.5-3.2,4.4-3.2c0.6,0,1,0.1,1.5,0.3l-0.3,1.3c-0.5-0.2-0.8-0.3-1.4-0.3
		c-1.4,0-3,1.1-4.2,3.9v10.5h-1.4V124z"/>
	<path class="st7" d="M183.5,131.7c0-5,3.3-8.1,6.7-8.1c3.6,0,5.9,2.6,5.9,7.1c0,0.4,0,0.8-0.1,1.2h-11.1c0.1,3.9,2.3,6.7,5.8,6.7
		c1.7,0,3-0.5,4.1-1.4l0.6,1.1c-1.2,0.7-2.6,1.5-4.8,1.5C186.6,139.8,183.5,136.8,183.5,131.7z M194.7,130.7c0-3.9-1.8-5.9-4.5-5.9
		c-2.6,0-5,2.2-5.3,5.9H194.7z"/>
	<path class="st7" d="M198.3,137.6l0.8-1.1c1.3,1.1,2.7,2,4.9,2c2.4,0,3.6-1.4,3.6-3c0-1.9-2-2.8-3.7-3.4c-2.3-0.8-4.9-1.8-4.9-4.4
		c0-2.2,1.8-4.1,5-4.1c1.6,0,3.3,0.7,4.4,1.6l-0.8,1c-1-0.8-2.1-1.4-3.7-1.4c-2.4,0-3.5,1.4-3.5,2.8c0,1.8,1.8,2.4,3.6,3.1
		c2.4,0.9,5,1.7,5,4.7c0,2.3-1.9,4.3-5.2,4.3C201.6,139.8,199.7,138.8,198.3,137.6z"/>
	<path class="st7" d="M97.5,189.8L97.5,189.8l-0.2,1.6h-1.2v-23h1.4v6.7l-0.1,3c1.6-1.3,3.4-2.4,5.3-2.4c4.1,0,6.1,3.1,6.1,7.8
		c0,5.2-3.2,8.3-6.8,8.3C100.7,191.8,99,191,97.5,189.8z M107.4,183.5c0-3.8-1.3-6.6-4.9-6.6c-1.5,0-3.2,0.9-5,2.5v9.1
		c1.7,1.4,3.4,2,4.5,2C105.2,190.5,107.4,187.6,107.4,183.5z"/>
	<path class="st7" d="M112.2,183.7c0-5,3.3-8.1,6.7-8.1c3.6,0,5.9,2.6,5.9,7.1c0,0.4,0,0.8-0.1,1.2h-11.1c0.1,3.9,2.3,6.7,5.8,6.7
		c1.7,0,3-0.5,4.1-1.4l0.6,1.1c-1.2,0.7-2.6,1.5-4.8,1.5C115.3,191.8,112.2,188.8,112.2,183.7z M123.4,182.7c0-3.9-1.8-5.9-4.5-5.9
		c-2.6,0-5,2.2-5.3,5.9H123.4z"/>
	<path class="st7" d="M127,189.6l0.8-1.1c1.3,1.1,2.7,2,4.9,2c2.4,0,3.6-1.4,3.6-3c0-1.9-2-2.8-3.7-3.4c-2.3-0.8-4.9-1.8-4.9-4.4
		c0-2.2,1.8-4.1,5-4.1c1.6,0,3.3,0.7,4.4,1.6l-0.8,1c-1-0.8-2.1-1.4-3.7-1.4c-2.4,0-3.5,1.4-3.5,2.8c0,1.8,1.8,2.4,3.6,3.1
		c2.4,0.9,5,1.7,5,4.7c0,2.3-1.9,4.3-5.2,4.3C130.3,191.8,128.4,190.8,127,189.6z"/>
	<path class="st7" d="M141.6,187.1v-9.9h-2.4v-1.1l2.4-0.1l0.2-4.4h1.2v4.4h4.4v1.2H143v10c0,2,0.5,3.3,2.6,3.3
		c0.6,0,1.4-0.2,1.9-0.5l0.4,1.2c-0.9,0.3-1.9,0.6-2.5,0.6C142.4,191.8,141.6,189.9,141.6,187.1z"/>
	<path class="st7" d="M158,187.1v-9.9h-2.4v-1.1l2.4-0.1l0.2-4.4h1.2v4.4h4.4v1.2h-4.4v10c0,2,0.5,3.3,2.6,3.3
		c0.6,0,1.4-0.2,1.9-0.5l0.4,1.2c-0.9,0.3-1.9,0.6-2.5,0.6C158.8,191.8,158,189.9,158,187.1z"/>
	<path class="st7" d="M167.1,171.1c0-0.8,0.6-1.3,1.3-1.3s1.3,0.5,1.3,1.3c0,0.7-0.6,1.2-1.3,1.2S167.1,171.8,167.1,171.1z
		 M167.6,176h1.4v15.4h-1.4V176z"/>
	<path class="st7" d="M174.9,176h1.2l0.1,2.8h0.1c1-1.9,2.5-3.2,4.4-3.2c0.6,0,1,0.1,1.5,0.3l-0.3,1.3c-0.5-0.2-0.8-0.3-1.4-0.3
		c-1.4,0-3,1.1-4.2,3.9v10.5h-1.4V176z"/>
	<path class="st7" d="M183.5,183.7c0-5,3.3-8.1,6.7-8.1c3.6,0,5.9,2.6,5.9,7.1c0,0.4,0,0.8-0.1,1.2h-11.1c0.1,3.9,2.3,6.7,5.8,6.7
		c1.7,0,3-0.5,4.1-1.4l0.6,1.1c-1.2,0.7-2.6,1.5-4.8,1.5C186.6,191.8,183.5,188.8,183.5,183.7z M194.7,182.7c0-3.9-1.8-5.9-4.5-5.9
		c-2.6,0-5,2.2-5.3,5.9H194.7z"/>
	<path class="st7" d="M198.3,189.6l0.8-1.1c1.3,1.1,2.7,2,4.9,2c2.4,0,3.6-1.4,3.6-3c0-1.9-2-2.8-3.7-3.4c-2.3-0.8-4.9-1.8-4.9-4.4
		c0-2.2,1.8-4.1,5-4.1c1.6,0,3.3,0.7,4.4,1.6l-0.8,1c-1-0.8-2.1-1.4-3.7-1.4c-2.4,0-3.5,1.4-3.5,2.8c0,1.8,1.8,2.4,3.6,3.1
		c2.4,0.9,5,1.7,5,4.7c0,2.3-1.9,4.3-5.2,4.3C201.6,191.8,199.7,190.8,198.3,189.6z"/>
	<path class="st7" d="M219.8,177.2h-2.1v-1.1l2.1-0.1v-3.4c0-3,1.4-4.6,3.8-4.6c0.7,0,1.5,0.2,2.2,0.5l-0.4,1.2
		c-0.6-0.3-1.3-0.4-1.9-0.4c-1.6,0-2.4,1.2-2.4,3.5v3.3h3.6v1.2h-3.6v14.1h-1.4V177.2z"/>
	<path class="st7" d="M226.4,183.7c0-5.2,3.2-8.1,6.9-8.1c3.7,0,6.9,2.9,6.9,8.1c0,5.1-3.2,8-6.9,8
		C229.6,191.8,226.4,188.8,226.4,183.7z M238.7,183.7c0-4.1-2.3-6.8-5.4-6.8c-3.1,0-5.4,2.8-5.4,6.8c0,4,2.3,6.8,5.4,6.8
		C236.4,190.5,238.7,187.8,238.7,183.7z"/>
	<path class="st7" d="M244.8,176h1.2l0.1,2.8h0.1c1-1.9,2.5-3.2,4.4-3.2c0.6,0,1,0.1,1.5,0.3l-0.3,1.3c-0.5-0.2-0.8-0.3-1.4-0.3
		c-1.4,0-3,1.1-4.2,3.9v10.5h-1.4V176z"/>
	<path class="st7" d="M266.1,170.3h1.5l7.4,21.1h-1.5l-2.5-7.2h-8.4l-2.5,7.2h-1.5L266.1,170.3z M263.1,182.9h7.5l-1.3-3.9
		c-0.9-2.5-1.6-4.7-2.3-7.3h-0.1c-0.7,2.6-1.5,4.8-2.3,7.3L263.1,182.9z"/>
	<path class="st7" d="M277.6,185.9V176h1.4v9.7c0,3.3,1,4.8,3.5,4.8c1.8,0,3.2-1,5-3.1V176h1.4v15.4h-1.2l-0.2-2.6h-0.1
		c-1.5,1.8-3.1,2.9-5.2,2.9C279.1,191.8,277.6,189.8,277.6,185.9z"/>
	<path class="st7" d="M293.5,183.7c0-5,3.2-8.1,6.8-8.1c1.9,0,3.1,0.7,4.6,1.9l-0.1-2.8v-6.3h1.4v23h-1.2l-0.1-2h-0.1
		c-1.2,1.2-2.9,2.4-5,2.4C296,191.8,293.5,188.9,293.5,183.7z M304.9,188v-9.1c-1.6-1.4-3-2-4.5-2c-3.1,0-5.4,3-5.4,6.8
		c0,4.1,1.8,6.8,5.1,6.8C301.8,190.5,303.3,189.6,304.9,188z"/>
	<path class="st7" d="M311.7,171.1c0-0.8,0.6-1.3,1.3-1.3s1.3,0.5,1.3,1.3c0,0.7-0.6,1.2-1.3,1.2S311.7,171.8,311.7,171.1z
		 M312.2,176h1.4v15.4h-1.4V176z"/>
	<path class="st7" d="M317.6,189.6l0.8-1.1c1.3,1.1,2.7,2,4.9,2c2.4,0,3.6-1.4,3.6-3c0-1.9-2-2.8-3.7-3.4c-2.3-0.8-4.9-1.8-4.9-4.4
		c0-2.2,1.8-4.1,5-4.1c1.6,0,3.3,0.7,4.4,1.6l-0.8,1c-1-0.8-2.1-1.4-3.7-1.4c-2.4,0-3.5,1.4-3.5,2.8c0,1.8,1.8,2.4,3.6,3.1
		c2.4,0.9,5,1.7,5,4.7c0,2.3-1.9,4.3-5.2,4.3C321,191.8,319,190.8,317.6,189.6z"/>
	<path class="st7" d="M97.5,241.8L97.5,241.8l-0.2,1.6h-1.2v-23h1.4v6.7l-0.1,3c1.6-1.3,3.4-2.4,5.3-2.4c4.1,0,6.1,3.1,6.1,7.8
		c0,5.2-3.2,8.3-6.8,8.3C100.7,243.8,99,243,97.5,241.8z M107.4,235.5c0-3.8-1.3-6.6-4.9-6.6c-1.5,0-3.2,0.9-5,2.5v9.1
		c1.7,1.4,3.4,2,4.5,2C105.2,242.5,107.4,239.6,107.4,235.5z"/>
	<path class="st7" d="M112.2,235.7c0-5,3.3-8.1,6.7-8.1c3.6,0,5.9,2.6,5.9,7.1c0,0.4,0,0.8-0.1,1.2h-11.1c0.1,3.9,2.3,6.7,5.8,6.7
		c1.7,0,3-0.5,4.1-1.4l0.6,1.1c-1.2,0.7-2.6,1.5-4.8,1.5C115.3,243.8,112.2,240.8,112.2,235.7z M123.4,234.7c0-3.9-1.8-5.9-4.5-5.9
		c-2.6,0-5,2.2-5.3,5.9H123.4z"/>
	<path class="st7" d="M127,241.6l0.8-1.1c1.3,1.1,2.7,2,4.9,2c2.4,0,3.6-1.4,3.6-3c0-1.9-2-2.8-3.7-3.4c-2.3-0.8-4.9-1.8-4.9-4.4
		c0-2.2,1.8-4.1,5-4.1c1.6,0,3.3,0.7,4.4,1.6l-0.8,1c-1-0.8-2.1-1.4-3.7-1.4c-2.4,0-3.5,1.4-3.5,2.8c0,1.8,1.8,2.4,3.6,3.1
		c2.4,0.9,5,1.7,5,4.7c0,2.3-1.9,4.3-5.2,4.3C130.3,243.8,128.4,242.8,127,241.6z"/>
	<path class="st7" d="M141.6,239.1v-9.9h-2.4v-1.1l2.4-0.1l0.2-4.4h1.2v4.4h4.4v1.2H143v10c0,2,0.5,3.3,2.6,3.3
		c0.6,0,1.4-0.2,1.9-0.5l0.4,1.2c-0.9,0.3-1.9,0.6-2.5,0.6C142.4,243.8,141.6,241.9,141.6,239.1z"/>
	<path class="st7" d="M158,239.1v-9.9h-2.4v-1.1l2.4-0.1l0.2-4.4h1.2v4.4h4.4v1.2h-4.4v10c0,2,0.5,3.3,2.6,3.3
		c0.6,0,1.4-0.2,1.9-0.5l0.4,1.2c-0.9,0.3-1.9,0.6-2.5,0.6C158.8,243.8,158,241.9,158,239.1z"/>
	<path class="st7" d="M167.1,223.1c0-0.8,0.6-1.3,1.3-1.3s1.3,0.5,1.3,1.3c0,0.7-0.6,1.2-1.3,1.2S167.1,223.8,167.1,223.1z
		 M167.6,228h1.4v15.4h-1.4V228z"/>
	<path class="st7" d="M174.9,228h1.2l0.1,2.8h0.1c1-1.9,2.5-3.2,4.4-3.2c0.6,0,1,0.1,1.5,0.3l-0.3,1.3c-0.5-0.2-0.8-0.3-1.4-0.3
		c-1.4,0-3,1.1-4.2,3.9v10.5h-1.4V228z"/>
	<path class="st7" d="M183.5,235.7c0-5,3.3-8.1,6.7-8.1c3.6,0,5.9,2.6,5.9,7.1c0,0.4,0,0.8-0.1,1.2h-11.1c0.1,3.9,2.3,6.7,5.8,6.7
		c1.7,0,3-0.5,4.1-1.4l0.6,1.1c-1.2,0.7-2.6,1.5-4.8,1.5C186.6,243.8,183.5,240.8,183.5,235.7z M194.7,234.7c0-3.9-1.8-5.9-4.5-5.9
		c-2.6,0-5,2.2-5.3,5.9H194.7z"/>
	<path class="st7" d="M198.3,241.6l0.8-1.1c1.3,1.1,2.7,2,4.9,2c2.4,0,3.6-1.4,3.6-3c0-1.9-2-2.8-3.7-3.4c-2.3-0.8-4.9-1.8-4.9-4.4
		c0-2.2,1.8-4.1,5-4.1c1.6,0,3.3,0.7,4.4,1.6l-0.8,1c-1-0.8-2.1-1.4-3.7-1.4c-2.4,0-3.5,1.4-3.5,2.8c0,1.8,1.8,2.4,3.6,3.1
		c2.4,0.9,5,1.7,5,4.7c0,2.3-1.9,4.3-5.2,4.3C201.6,243.8,199.7,242.8,198.3,241.6z"/>
	<path class="st7" d="M218.3,235.7c0-5,3.3-8.1,6.7-8.1c3.6,0,5.9,2.6,5.9,7.1c0,0.4,0,0.8-0.1,1.2h-11.1c0.1,3.9,2.3,6.7,5.8,6.7
		c1.7,0,3-0.5,4.1-1.4l0.6,1.1c-1.2,0.7-2.6,1.5-4.8,1.5C221.5,243.8,218.3,240.8,218.3,235.7z M229.5,234.7c0-3.9-1.8-5.9-4.5-5.9
		c-2.6,0-5,2.2-5.3,5.9H229.5z"/>
	<path class="st7" d="M232.8,228h1.5l3.5,9.6c0.5,1.5,1.1,3,1.5,4.4h0.1c0.5-1.4,1.1-2.9,1.6-4.4l3.5-9.6h1.4l-5.7,15.4h-1.7
		L232.8,228z"/>
	<path class="st7" d="M248,235.7c0-5,3.3-8.1,6.7-8.1c3.6,0,5.9,2.6,5.9,7.1c0,0.4,0,0.8-0.1,1.2h-11.1c0.1,3.9,2.3,6.7,5.8,6.7
		c1.7,0,3-0.5,4.1-1.4l0.6,1.1c-1.2,0.7-2.6,1.5-4.8,1.5C251.2,243.8,248,240.8,248,235.7z M259.2,234.7c0-3.9-1.8-5.9-4.5-5.9
		c-2.6,0-5,2.2-5.3,5.9H259.2z"/>
	<path class="st7" d="M264.7,228h1.2l0.1,2.8h0.1c1-1.9,2.5-3.2,4.4-3.2c0.6,0,1,0.1,1.5,0.3l-0.3,1.3c-0.5-0.2-0.8-0.3-1.4-0.3
		c-1.4,0-3,1.1-4.2,3.9v10.5h-1.4V228z"/>
</g>
</svg>
