<?xml version="1.0" encoding="utf-8"?>
<!-- Generator: Adobe Illustrator 20.0.0, SVG Export Plug-In . SVG Version: 6.00 Build 0)  -->
<svg version="1.1" id="Layer_4" xmlns="http://www.w3.org/2000/svg" xmlns:xlink="http://www.w3.org/1999/xlink" x="0px" y="0px"
	 viewBox="0 0 454 332" style="enable-background:new 0 0 454 332;" xml:space="preserve">
<style type="text/css">
	.st0{fill:#FFFFFF;}
	.st1{fill:#E2E2E2;}
	.st2{fill:#565656;}
	.st3{fill:#1D917F;stroke:#1D917F;stroke-width:0.75;stroke-linejoin:round;stroke-miterlimit:10;}
	.st4{fill:none;stroke:#1D917F;stroke-width:4;stroke-linejoin:round;stroke-miterlimit:10;}
</style>
<g>
	<path class="st0" d="M28.1,310.5c-2.5,0-4.6-2.1-4.6-4.6V23.1c0-2.5,2.1-4.6,4.6-4.6h398.8c2.5,0,4.6,2.1,4.6,4.6v282.8
		c0,2.5-2.1,4.6-4.6,4.6H28.1z"/>
	<path class="st1" d="M426.9,21.5c0.9,0,1.6,0.7,1.6,1.6v282.8c0,0.9-0.7,1.6-1.6,1.6H28.1c-0.9,0-1.6-0.7-1.6-1.6V23.1
		c0-0.9,0.7-1.6,1.6-1.6H426.9 M426.9,15.5H28.1c-4.2,0-7.6,3.4-7.6,7.6v282.8c0,4.2,3.4,7.6,7.6,7.6h398.8c4.2,0,7.6-3.4,7.6-7.6
		V23.1C434.5,18.9,431.1,15.5,426.9,15.5L426.9,15.5z"/>
</g>
<path class="st2" d="M20.5,72.5V20.3c0-2.6,3.4-4.8,7.6-4.8h398.8c4.2,0,7.6,2.2,7.6,4.8v52.2H20.5z"/>
<polygon class="st3" points="79.2,153.8 88.1,171.6 107.8,174.5 93.5,188.4 96.9,208.1 79.2,198.8 61.6,208.1 65,188.4 50.7,174.5 
	70.4,171.6 "/>
<polygon class="st3" points="154,153.8 162.9,171.6 182.6,174.5 168.3,188.4 171.7,208.1 154,198.8 136.4,208.1 139.8,188.4 
	125.5,174.5 145.2,171.6 "/>
<polygon class="st3" points="227.7,153.8 236.5,171.6 256.2,174.5 241.9,188.4 245.3,208.1 227.7,198.8 210,208.1 213.4,188.4 
	199.1,174.5 218.8,171.6 "/>
<polygon class="st4" points="300.4,153.8 309.2,171.6 329,174.5 314.7,188.4 318.1,208.1 300.4,198.8 282.8,208.1 286.1,188.4 
	271.8,174.5 291.6,171.6 "/>
<polygon class="st4" points="374,153.8 382.9,171.6 402.6,174.5 388.3,188.4 391.7,208.1 374,198.8 356.4,208.1 359.8,188.4 
	345.5,174.5 365.2,171.6 "/>
</svg>
