<?xml version="1.0" encoding="utf-8"?>
<!-- Generator: Adobe Illustrator 20.0.0, SVG Export Plug-In . SVG Version: 6.00 Build 0)  -->
<svg version="1.1" id="Layer_5" xmlns="http://www.w3.org/2000/svg" xmlns:xlink="http://www.w3.org/1999/xlink" x="0px" y="0px"
	 viewBox="0 0 330 233" style="enable-background:new 0 0 330 233;" xml:space="preserve">
<style type="text/css">
	.st0{fill:#FFFFFF;}
	.st1{fill:none;stroke:#E2E2E2;stroke-width:11;stroke-miterlimit:10;}
	.st2{fill:none;stroke:#1C9480;stroke-width:11;stroke-miterlimit:10;}
	.st3{fill:#1C9480;}
	.st4{fill:#565656;}
	.st5{fill:none;stroke:#E2E2E2;stroke-width:6;stroke-miterlimit:10;}
</style>
<rect x="6.8" y="15" class="st0" width="313.7" height="204.2"/>
<polyline class="st1" points="285.3,153.4 269.4,174.2 253.4,195 237.4,174.2 221.4,153.4 "/>
<polyline class="st2" points="285.3,82.4 269.4,61.6 253.4,40.8 237.4,61.6 221.4,82.4 "/>
<g>
	<path class="st3" d="M251.8,129.4c0,5.6-4.3,10.5-12.5,10.5c-8.4,0-12.4-4.6-12.4-10c0-4.8,4-8.4,7.1-9.2c-3.6-1.8-6.5-4.2-6.5-8.5
		c0-6,4.6-10.5,12.2-10.5c7.9,0,11.4,4.9,11.4,10c0,4.4-3.3,7.7-6.2,8.9C248.7,122.6,251.8,125.1,251.8,129.4z M231.9,129.4
		c0,3.8,3.3,6.2,7.7,6.2c4.7,0,7.2-2,7.2-5.6c0-4-4.4-5.8-9.1-7.7C234.3,123.5,231.9,126,231.9,129.4z M246.3,112.3
		c0-3.9-3-6.2-6.8-6.2c-4.6,0-7.1,2.6-7.1,5.6c0,3.7,4.3,5.4,8.8,7.3C244.3,117.8,246.3,115.5,246.3,112.3z"/>
	<path class="st3" d="M277.3,101.2l1.5,4.6c-8.5,2.1-14.6,6.6-16.5,13.9l0.1,0.1c2.4-2.3,5.2-3.7,9.4-3.7c5.9,0,10.9,4.6,10.9,11.5
		c0,7-4.9,12.3-12.6,12.3c-8.4,0-13-7-13-15.4C257,114.3,263.7,104.4,277.3,101.2z M270.3,135.4c4.6,0,7.5-3.1,7.5-7.6
		c0-4.5-3-7.4-7.2-7.4c-3.4,0-6.5,1.7-8.1,3.1c-0.2,0.7-0.3,1.6-0.3,2.5C262.1,131,265.2,135.4,270.3,135.4z"/>
</g>
<rect x="29.3" y="35" class="st4" width="154.8" height="75.7"/>
<line class="st5" x1="29.3" y1="134.5" x2="184.1" y2="134.5"/>
<line class="st5" x1="29.3" y1="161.1" x2="184.1" y2="161.1"/>
<line class="st5" x1="29.3" y1="187.7" x2="184.1" y2="187.7"/>
</svg>
