<?xml version="1.0" encoding="utf-8"?>
<!-- Generator: Adobe Illustrator 20.0.0, SVG Export Plug-In . SVG Version: 6.00 Build 0)  -->
<svg version="1.1" id="Layer_3" xmlns="http://www.w3.org/2000/svg" xmlns:xlink="http://www.w3.org/1999/xlink" x="0px" y="0px"
	 viewBox="0 0 450.7 295.3" style="enable-background:new 0 0 450.7 295.3;" xml:space="preserve">
<style type="text/css">
	.st0{fill:#868687;}
	.st1{fill:#FFFFFF;}
	.st2{fill:#AFAFAF;}
	.st3{fill:#6B6B6B;}
	.st4{opacity:0.55;fill:#FFFFFF;}
	.st5{fill:none;stroke:#93D4FA;stroke-width:4;stroke-miterlimit:10;}
	.st6{fill:none;stroke:#93D4FA;stroke-width:4;stroke-miterlimit:10;stroke-dasharray:11.9841,11.9841;}
	.st7{fill:none;stroke:#93D4FA;stroke-width:4;stroke-miterlimit:10;stroke-dasharray:12.2692,12.2692;}
	.st8{fill:#FFFFFF;stroke:#1C9480;stroke-width:4;stroke-miterlimit:10;}
	.st9{fill:#93D4FA;}
	.st10{fill:#FFFFFF;stroke:#777777;stroke-width:5;stroke-miterlimit:10;}
</style>
<path class="st0" d="M58,254.5V37.7c0-5.5,4.5-10.1,10.1-10.1h315.1c5.5,0,10.1,4.5,10.1,10.1v216.8"/>
<rect x="68.7" y="39" class="st1" width="313.7" height="204.2"/>
<path class="st2" d="M423.2,266H27.8c-1.1,0-2-0.9-2-2v-7c0-1.1,0.9-2,2-2h395.4c1.1,0,2,0.9,2,2v7C425.2,265.1,424.3,266,423.2,266
	z"/>
<path class="st3" d="M240.3,254.9v2.4c0,0.9-0.8,1.7-1.7,1.7h-40.2c-0.9,0-1.7-0.8-1.7-1.7v-2.4"/>
<g>
	<rect x="235.8" y="82.4" class="st4" width="119.9" height="122.4"/>
	<g>
		<polyline class="st5" points="355.7,198.8 355.7,204.8 349.7,204.8 		"/>
		<line class="st6" x1="337.7" y1="204.8" x2="247.8" y2="204.8"/>
		<polyline class="st5" points="241.8,204.8 235.8,204.8 235.8,198.8 		"/>
		<line class="st7" x1="235.8" y1="186.6" x2="235.8" y2="94.6"/>
		<polyline class="st5" points="235.8,88.4 235.8,82.4 241.8,82.4 		"/>
		<line class="st6" x1="253.8" y1="82.4" x2="343.7" y2="82.4"/>
		<polyline class="st5" points="349.7,82.4 355.7,82.4 355.7,88.4 		"/>
		<line class="st7" x1="355.7" y1="100.7" x2="355.7" y2="192.7"/>
	</g>
</g>
<path class="st8" d="M212.6,204.6H98.7c-1.7,0-3-1.3-3-3V85.2c0-1.7,1.3-3,3-3h113.9c1.7,0,3,1.3,3,3v116.4
	C215.6,203.3,214.2,204.6,212.6,204.6z"/>
<g id="remove_x5F_2_1_">
	<path class="st9" d="M300.8,138.5v-16c0-0.6-0.5-1.1-1.1-1.1h-6.8c-0.6,0-1.1,0.5-1.1,1.1v16l-16,0c-0.6,0-1.1,0.5-1.1,1.1l0,6.8
		c0,0.6,0.5,1.1,1.1,1.1l16,0v16c0,0.6,0.5,1.1,1.1,1.1l6.8,0c0.6,0,1.1-0.5,1.1-1.1v-16h16c0.6,0,1.1-0.5,1.1-1.1v-6.8
		c0-0.6-0.5-1.1-1.1-1.1H300.8z"/>
</g>
<line class="st10" x1="110.7" y1="150.5" x2="200.7" y2="150.5"/>
<line class="st10" x1="110.7" y1="170.5" x2="179.7" y2="170.5"/>
<line class="st10" x1="110.7" y1="109.5" x2="200.7" y2="109.5"/>
<line class="st10" x1="110.7" y1="130.5" x2="190.7" y2="130.5"/>
</svg>
